<svg width="210" height="210" viewBox="0 0 210 210" fill="none" xmlns="http://www.w3.org/2000/svg">
<path d="M32.2585 111.725H67.4468" stroke="#CB0000" stroke-width="8" stroke-linecap="round" stroke-linejoin="round"/>
<path d="M50.8967 107.742H48.7509C48.2515 107.742 47.8466 108.147 47.8466 108.647V115.096C47.8466 115.595 48.2515 116 48.7509 116H50.8967C51.3961 116 51.8009 115.595 51.8009 115.096V108.647C51.8009 108.147 51.3961 107.742 50.8967 107.742Z" fill="#CB0000" stroke="#CB0000" stroke-width="8" stroke-linecap="round" stroke-linejoin="round"/>
<path d="M71.4412 148.796L73.6687 154.916" stroke="#CB0000" stroke-width="8" stroke-linecap="round" stroke-linejoin="round"/>
<path d="M69.2362 134.576L65.3018 136.008L48.4357 89.6693L54.5559 87.4417L65.5628 117.683L69.2362 134.576Z" fill="#CB0000" stroke="#CB0000" stroke-width="8" stroke-linecap="round" stroke-linejoin="round"/>
<path d="M70.0801 140.975L67.4572 141.93L70.003 148.925L72.6259 147.97L70.0801 140.975Z" fill="#CB0000" stroke="#CB0000" stroke-width="8" stroke-linecap="round" stroke-linejoin="round"/>
<path d="M68.4968 142.172C70.8092 142.172 72.6838 140.298 72.6838 137.985C72.6838 135.673 70.8092 133.798 68.4968 133.798C66.1844 133.798 64.3098 135.673 64.3098 137.985C64.3098 140.298 66.1844 142.172 68.4968 142.172Z" fill="#CB0000" stroke="#CB0000" stroke-width="8" stroke-linecap="round" stroke-linejoin="round"/>
<path d="M30.4811 134.576L34.4156 136.008L51.2816 89.6693L45.1613 87.4417L34.1546 117.683L30.4811 134.576Z" fill="#CB0000" stroke="#CB0000" stroke-width="8" stroke-linecap="round" stroke-linejoin="round"/>
<path d="M27.0915 147.97L29.7145 148.925L32.2603 141.93L29.6373 140.976L27.0915 147.97Z" fill="#CB0000" stroke="#CB0000" stroke-width="8" stroke-linecap="round" stroke-linejoin="round"/>
<path d="M28.2763 148.796L26.0486 154.916" stroke="#CB0000" stroke-width="8" stroke-linecap="round" stroke-linejoin="round"/>
<path d="M31.2207 142.172C33.5331 142.172 35.4077 140.298 35.4077 137.985C35.4077 135.673 33.5331 133.798 31.2207 133.798C28.9083 133.798 27.0338 135.673 27.0338 137.985C27.0338 140.298 28.9083 142.172 31.2207 142.172Z" fill="#CB0000" stroke="#CB0000" stroke-width="8" stroke-linecap="round" stroke-linejoin="round"/>
<path d="M53.1113 100.415H46.6059C46.0721 100.401 45.5572 100.214 45.1387 99.8825C44.7203 99.5507 44.4208 99.092 44.2854 98.5754C43.1267 93.713 42.3287 88.7684 42.4164 83.9014C42.4507 82.6588 43.6472 81.574 44.8856 81.574H54.8329C56.0719 81.574 57.2689 82.6586 57.3021 83.9014C57.3892 88.769 56.5912 93.713 55.4331 98.5754C55.2977 99.0922 54.998 99.5511 54.5793 99.8829C54.1606 100.215 53.6454 100.402 53.1113 100.415Z" fill="#CB0000" stroke="#CB0000" stroke-width="8" stroke-linecap="round" stroke-linejoin="round"/>
<path d="M53.5068 61.8022H46.0633V78.3175H53.5068V61.8022Z" fill="#CB0000" stroke="#CB0000" stroke-width="8" stroke-linecap="round" stroke-linejoin="round"/>
<path d="M51.7621 78.3174H47.8078V81.5739H51.7621V78.3174Z" fill="#CB0000" stroke="#CB0000" stroke-width="8" stroke-linecap="round" stroke-linejoin="round"/>
<path d="M125.343 84.7178H86.2197C84.741 84.7121 83.3008 85.1888 82.1175 86.0756C80.9341 86.9624 80.0723 88.211 79.6627 89.6318C78.6268 93.2771 78.6268 97.139 79.6627 100.784C80.0723 102.205 80.9341 103.454 82.1175 104.34C83.3008 105.227 84.741 105.704 86.2197 105.698H125.343C126.165 105.701 126.957 105.391 127.559 104.831C128.162 104.271 128.529 103.504 128.587 102.684C128.924 97.7054 128.924 92.71 128.587 87.7317C128.529 86.9118 128.161 86.1444 127.559 85.5849C126.957 85.0254 126.165 84.7155 125.343 84.7178Z" fill="#CB0000" stroke="#CB0000" stroke-width="8" stroke-linecap="round" stroke-linejoin="round"/>
<path d="M100.581 101.81C99.749 97.4478 99.749 92.9682 100.581 88.6064H152.532C152.532 91.6361 151.855 96.5596 150.052 100.013C149.766 100.556 149.338 101.01 148.813 101.327C148.287 101.644 147.685 101.811 147.072 101.81H100.581Z" fill="#CB0000" stroke="#CB0000" stroke-width="8" stroke-linecap="round" stroke-linejoin="round"/>
<path d="M132.676 103.95V100.015H128.919V103.95H132.676Z" fill="#CB0000" stroke="#CB0000" stroke-width="8" stroke-linecap="round" stroke-linejoin="round"/>
<path d="M132.676 91.5093V87.5752H128.919V91.5093H132.676Z" fill="#CB0000" stroke="#CB0000" stroke-width="8" stroke-linecap="round" stroke-linejoin="round"/>
<path d="M65.3468 111.515H30.1585C29.9358 111.515 29.7221 111.426 29.5646 111.269C29.407 111.111 29.3185 110.898 29.3185 110.675C29.3185 110.452 29.407 110.239 29.5646 110.081C29.7221 109.923 29.9358 109.835 30.1585 109.835H65.3468C65.5696 109.835 65.7832 109.923 65.9407 110.081C66.0983 110.239 66.1868 110.452 66.1868 110.675C66.1868 110.898 66.0983 111.111 65.9407 111.269C65.7832 111.426 65.5696 111.515 65.3468 111.515Z" fill="#340600"/>
<path d="M48.7967 106.692H46.6509C46.1515 106.692 45.7466 107.097 45.7466 107.597V114.046C45.7466 114.545 46.1515 114.95 46.6509 114.95H48.7967C49.2961 114.95 49.701 114.545 49.701 114.046V107.597C49.701 107.097 49.2961 106.692 48.7967 106.692Z" fill="#BFBFBF"/>
<path d="M46.1459 106.846C46.0229 106.929 45.9222 107.041 45.8527 107.172C45.7831 107.302 45.7467 107.448 45.7469 107.597V114.046C45.7467 114.194 45.7831 114.34 45.8527 114.471C45.9222 114.601 46.0229 114.713 46.1459 114.796C46.8265 114.188 47.3114 112.64 47.3114 110.821C47.3114 109.002 46.8265 107.454 46.1459 106.846Z" fill="white"/>
<path d="M48.7967 115.58H46.6507C46.2441 115.579 45.8544 115.417 45.567 115.13C45.2797 114.842 45.1181 114.452 45.1177 114.046V107.597C45.1181 107.19 45.2797 106.8 45.567 106.513C45.8544 106.225 46.2441 106.063 46.6507 106.062H48.7967C49.2034 106.063 49.5934 106.225 49.8811 106.512C50.1687 106.8 50.3305 107.19 50.3309 107.597V114.046C50.3305 114.453 50.1687 114.843 49.8811 115.13C49.5934 115.418 49.2034 115.58 48.7967 115.58ZM46.6507 107.322C46.5782 107.323 46.5088 107.352 46.4576 107.403C46.4065 107.455 46.3777 107.524 46.3777 107.597V114.046C46.3777 114.118 46.4065 114.188 46.4576 114.239C46.5088 114.291 46.5782 114.32 46.6507 114.32H48.7967C48.8694 114.32 48.9391 114.291 48.9905 114.24C49.0419 114.188 49.0708 114.119 49.0709 114.046V107.597C49.0708 107.524 49.0419 107.454 48.9905 107.403C48.9391 107.352 48.8694 107.323 48.7967 107.322H46.6507Z" fill="#340600"/>
<path d="M67.1362 133.526L63.2018 134.958L46.3357 88.6193L52.4559 86.3916L63.4629 116.633L67.1362 133.526Z" fill="white"/>
<path d="M63.4628 116.633L52.4559 86.3916L50.787 86.9991L61.5728 116.633L65.2462 133.526L62.9807 134.351L63.2018 134.958L67.1362 133.526L63.4628 116.633Z" fill="#BFBFBF"/>
<path d="M52.666 86.1816L46.5457 88.4099L51.2965 101.462C52.3369 101.433 53.3391 101.065 54.1502 100.413C54.9614 99.7608 55.5369 98.8613 55.7889 97.8515C55.943 97.2047 56.086 96.5726 56.221 95.95L52.666 86.1816Z" fill="#BFBFBF"/>
<path d="M71.568 154.707C71.3956 154.707 71.2273 154.654 71.086 154.555C70.9447 154.456 70.8374 154.316 70.7784 154.154L68.551 148.034C68.4748 147.824 68.4849 147.593 68.579 147.391C68.6732 147.19 68.8437 147.033 69.0531 146.957C69.2624 146.881 69.4935 146.891 69.6954 146.985C69.8973 147.079 70.0535 147.25 70.1297 147.459L72.3572 153.579C72.4034 153.706 72.4183 153.843 72.4007 153.976C72.3832 154.11 72.3335 154.238 72.2561 154.349C72.1786 154.459 72.0757 154.55 71.9559 154.612C71.8361 154.674 71.7031 154.707 71.568 154.707Z" fill="#340600"/>
<path d="M67.9802 139.925L65.3572 140.88L67.903 147.875L70.526 146.92L67.9802 139.925Z" fill="#BFBFBF"/>
<path d="M63.2018 135.798C63.0294 135.798 62.8612 135.745 62.72 135.646C62.5788 135.547 62.4714 135.408 62.4124 135.246L45.5463 88.9065C45.5085 88.8029 45.4916 88.6928 45.4964 88.5826C45.5012 88.4724 45.5277 88.3642 45.5743 88.2642C45.6209 88.1642 45.6868 88.0744 45.7682 87.9999C45.8495 87.9253 45.9447 87.8676 46.0484 87.8299L52.1686 85.6022C52.2723 85.5644 52.3824 85.5475 52.4926 85.5523C52.6028 85.5571 52.711 85.5836 52.8109 85.6302C52.9109 85.6769 53.0007 85.7427 53.0753 85.8241C53.1498 85.9054 53.2076 86.0006 53.2453 86.1043L64.252 116.344C64.265 116.38 64.2755 116.416 64.2835 116.453L67.957 133.347C68.0002 133.546 67.97 133.753 67.8718 133.931C67.7737 134.109 67.6144 134.245 67.4234 134.315L63.4891 135.747C63.3971 135.781 63.2998 135.798 63.2018 135.798ZM47.4123 89.1211L63.7039 133.882L66.1595 132.988L62.6541 116.867L51.954 87.4682L47.4123 89.1211Z" fill="#340600"/>
<path d="M67.9031 148.715C67.7307 148.715 67.5624 148.662 67.4211 148.563C67.2799 148.464 67.1725 148.324 67.1135 148.162L64.5677 141.168C64.53 141.064 64.513 140.954 64.5178 140.844C64.5226 140.734 64.5491 140.625 64.5957 140.525C64.6424 140.425 64.7082 140.336 64.7896 140.261C64.8709 140.187 64.9661 140.129 65.0698 140.091L67.6929 139.136C67.9022 139.06 68.1333 139.07 68.3352 139.164C68.5371 139.258 68.6934 139.429 68.7696 139.638L71.316 146.633C71.3923 146.842 71.3822 147.073 71.2881 147.275C71.1939 147.477 71.0235 147.633 70.8141 147.71L68.191 148.664C68.0988 148.698 68.0013 148.715 67.9031 148.715ZM66.4331 141.382L68.4044 146.798L69.4485 146.418L67.4775 141.002L66.4331 141.382Z" fill="#340600"/>
<path d="M66.3968 141.122C68.7092 141.122 70.5837 139.248 70.5837 136.935C70.5837 134.623 68.7092 132.748 66.3968 132.748C64.0844 132.748 62.2098 134.623 62.2098 136.935C62.2098 139.248 64.0844 141.122 66.3968 141.122Z" fill="white"/>
<path d="M67.4789 135.212C66.9622 135.4 66.4876 135.688 66.0822 136.06C65.6768 136.431 65.3485 136.879 65.1161 137.377C64.8838 137.875 64.7518 138.415 64.7278 138.964C64.7038 139.513 64.7883 140.062 64.9763 140.579C65.0183 140.696 65.0685 140.808 65.1202 140.919C65.8657 141.159 66.6636 141.185 67.4232 140.994C68.1828 140.803 68.8735 140.403 69.4166 139.838C69.9597 139.274 70.3333 138.568 70.495 137.802C70.6567 137.035 70.5999 136.239 70.3311 135.503C70.2891 135.386 70.2391 135.274 70.1875 135.163C69.3044 134.877 68.351 134.894 67.4789 135.212Z" fill="#BFBFBF"/>
<path d="M66.3936 141.965C65.1329 141.966 63.9174 141.496 62.9867 140.645C62.0561 139.795 61.4781 138.626 61.3666 137.37C61.2551 136.115 61.6184 134.863 62.3846 133.862C63.1508 132.86 64.2645 132.183 65.5057 131.962C66.747 131.742 68.0259 131.995 69.0899 132.671C70.154 133.347 70.926 134.397 71.2537 135.615C71.5813 136.832 71.4408 138.128 70.8599 139.247C70.279 140.366 69.2999 141.227 68.1156 141.659C67.564 141.861 66.9811 141.965 66.3936 141.965ZM66.3989 133.586C65.5727 133.584 64.7749 133.888 64.1587 134.438C63.5425 134.988 63.1512 135.747 63.06 136.568C62.9687 137.389 63.1838 138.215 63.6641 138.888C64.1444 139.56 64.856 140.031 65.6624 140.211C66.4688 140.391 67.3132 140.267 68.0337 139.862C68.7541 139.458 69.2999 138.802 69.5662 138.019C69.8325 137.237 69.8007 136.384 69.4768 135.624C69.1529 134.864 68.5597 134.25 67.8111 133.901C67.3689 133.694 66.8869 133.587 66.3989 133.587V133.586Z" fill="#340600"/>
<path d="M28.3811 133.526L32.3157 134.958L49.1816 88.6193L43.0614 86.3916L32.0546 116.633L28.3811 133.526Z" fill="white"/>
<path d="M28.3811 133.526L32.3157 134.958L49.1816 88.6193L43.0614 86.3916L32.0546 116.633L28.3811 133.526Z" fill="white"/>
<path d="M43.0614 86.3916L42.8403 86.9991L47.2916 88.6193L30.6466 134.351L32.3157 134.958L49.1816 88.6193L43.0614 86.3916Z" fill="#BFBFBF"/>
<path d="M43.4814 86.1816L39.9263 95.9489C40.0628 96.5773 40.207 97.2155 40.3627 97.8683C40.6169 98.8746 41.193 99.7703 42.0032 100.419C42.8134 101.068 43.8134 101.434 44.851 101.462L49.602 88.4099L43.4814 86.1816Z" fill="#BFBFBF"/>
<path d="M32.3157 135.798C32.2177 135.798 32.1204 135.781 32.0284 135.748L28.0938 134.316C27.9028 134.247 27.7435 134.11 27.6454 133.932C27.5473 133.754 27.517 133.547 27.5602 133.348L31.2337 116.454C31.2417 116.417 31.2522 116.381 31.2652 116.346L42.272 86.1055C42.3097 86.0018 42.3675 85.9066 42.442 85.8253C42.5165 85.7439 42.6063 85.6781 42.7063 85.6314C42.8063 85.5848 42.9145 85.5583 43.0247 85.5535C43.1349 85.5487 43.245 85.5657 43.3486 85.6034L49.4689 87.8311C49.5725 87.8688 49.6678 87.9266 49.7491 88.0011C49.8304 88.0756 49.8963 88.1654 49.9429 88.2654C49.9895 88.3654 50.016 88.4736 50.0208 88.5838C50.0256 88.694 50.0087 88.8041 49.971 88.9077L33.105 135.246C33.0461 135.408 32.9387 135.548 32.7975 135.647C32.6563 135.745 32.488 135.798 32.3157 135.798ZM29.358 132.988L31.8138 133.882L48.1051 89.1213L43.5637 87.4684L32.8633 116.867L29.358 132.988Z" fill="#340600"/>
<path d="M24.9915 146.92L27.6144 147.875L30.1603 140.88L27.5373 139.926L24.9915 146.92Z" fill="#BFBFBF"/>
<path d="M27.615 148.715C27.5171 148.715 27.4198 148.698 27.3278 148.664L24.7049 147.71C24.6012 147.672 24.506 147.614 24.4246 147.54C24.3433 147.465 24.2774 147.375 24.2308 147.275C24.1842 147.175 24.1577 147.067 24.1529 146.957C24.1481 146.847 24.165 146.737 24.2028 146.633L26.7486 139.638C26.8248 139.429 26.9811 139.258 27.183 139.164C27.3849 139.07 27.6159 139.06 27.8253 139.136L30.4481 140.091C30.5518 140.129 30.647 140.187 30.7284 140.261C30.8097 140.336 30.8756 140.425 30.9222 140.525C30.9688 140.625 30.9953 140.734 31.0001 140.844C31.0049 140.954 30.988 141.064 30.9503 141.168L28.4044 148.162C28.3455 148.324 28.2381 148.464 28.0969 148.563C27.9557 148.662 27.7875 148.715 27.615 148.715ZM26.0688 146.418L27.1129 146.798L29.0842 141.382L28.0399 141.002L26.0688 146.418Z" fill="#340600"/>
<path d="M23.9486 154.707C23.8136 154.707 23.6805 154.674 23.5607 154.612C23.4409 154.55 23.3379 154.459 23.2604 154.349C23.1829 154.238 23.1333 154.11 23.1157 153.976C23.0981 153.843 23.113 153.706 23.1592 153.579L25.3869 147.459C25.4247 147.356 25.4824 147.26 25.557 147.179C25.6315 147.098 25.7213 147.032 25.8213 146.985C25.9213 146.939 26.0294 146.912 26.1396 146.907C26.2499 146.902 26.3599 146.919 26.4636 146.957C26.5673 146.995 26.6625 147.053 26.7438 147.127C26.8252 147.202 26.891 147.292 26.9376 147.391C26.9843 147.491 27.0107 147.6 27.0156 147.71C27.0204 147.82 27.0034 147.93 26.9657 148.034L24.738 154.153C24.6793 154.315 24.572 154.455 24.4308 154.555C24.2895 154.654 24.1212 154.707 23.9486 154.707Z" fill="#340600"/>
<path d="M29.1208 141.122C31.4332 141.122 33.3077 139.248 33.3077 136.935C33.3077 134.623 31.4332 132.748 29.1208 132.748C26.8084 132.748 24.9338 134.623 24.9338 136.935C24.9338 139.248 26.8084 141.122 29.1208 141.122Z" fill="white"/>
<path d="M29.1208 141.122C31.4332 141.122 33.3077 139.248 33.3077 136.935C33.3077 134.623 31.4332 132.748 29.1208 132.748C26.8084 132.748 24.9338 134.623 24.9338 136.935C24.9338 139.248 26.8084 141.122 29.1208 141.122Z" fill="white"/>
<path d="M33.0551 138.367C33.2439 137.851 33.3288 137.302 33.3047 136.752C33.2807 136.203 33.1482 135.664 32.915 135.165C32.14 134.915 31.3088 134.897 30.5235 135.113C29.7382 135.328 29.0328 135.768 28.4941 136.379C27.9553 136.99 27.6064 137.744 27.4903 138.55C27.3743 139.356 27.496 140.179 27.8406 140.917C28.8707 141.249 29.9894 141.169 30.9618 140.693C31.9342 140.218 32.6845 139.384 33.0551 138.367Z" fill="#BFBFBF"/>
<path d="M29.1237 141.965C27.8827 141.967 26.6845 141.512 25.7589 140.685C24.8333 139.859 24.2455 138.719 24.1082 137.486C23.971 136.253 24.294 135.012 25.0152 134.002C25.7364 132.992 26.8051 132.285 28.0163 132.014C29.2274 131.744 30.4958 131.93 31.5779 132.538C32.6601 133.145 33.4798 134.131 33.88 135.305C34.2801 136.48 34.2324 137.761 33.7461 138.903C33.2597 140.044 32.369 140.966 31.2447 141.492C30.5806 141.802 29.8567 141.964 29.1237 141.965ZM29.1184 133.586C28.279 133.585 27.4697 133.898 26.8501 134.465C26.2305 135.031 25.8456 135.809 25.7714 136.645C25.6972 137.481 25.939 138.315 26.4492 138.981C26.9593 139.648 27.7008 140.099 28.5273 140.246C29.3537 140.393 30.2052 140.224 30.9137 139.774C31.6222 139.324 32.1362 138.625 32.3545 137.814C32.5727 137.004 32.4792 136.141 32.0925 135.396C31.7058 134.651 31.0539 134.078 30.2654 133.79C29.8979 133.655 29.5097 133.587 29.1184 133.587V133.586Z" fill="#340600"/>
<path d="M51.0113 99.3654H44.506C43.9721 99.3513 43.4572 99.1643 43.0387 98.8325C42.6203 98.5006 42.3208 98.042 42.1855 97.5253C41.0267 92.663 40.2287 87.7183 40.3165 82.8514C40.3507 81.6088 41.5473 80.5239 42.7856 80.5239H52.7329C53.9719 80.5239 55.1689 81.6086 55.2021 82.8514C55.2892 87.719 54.4912 92.663 53.3331 97.5253C53.1977 98.0422 52.8981 98.501 52.4793 98.8329C52.0606 99.1647 51.5454 99.3516 51.0113 99.3654Z" fill="#BFBFBF"/>
<path d="M42.1051 97.5253C40.9463 92.663 40.1485 87.7183 40.2361 82.8514C40.2701 81.6086 41.4667 80.5239 42.705 80.5239H49.803C50.3974 83.2344 50.3496 86.0462 49.6636 88.7349C48.5926 92.9704 47.2076 98.766 42.8831 98.766C42.5019 98.4427 42.2301 98.0093 42.1051 97.5253Z" fill="white"/>
<path d="M51.0113 100.205H44.5059C43.7849 100.189 43.0887 99.9382 42.5228 99.4909C41.957 99.0437 41.5523 98.4243 41.37 97.7264C39.9985 91.9724 39.396 87.2428 39.476 82.8362C39.5222 81.1532 41.0682 79.6838 42.7848 79.6838H52.7323C54.4488 79.6838 55.9951 81.1538 56.041 82.8282C56.1202 87.2428 55.5188 91.9722 54.1489 97.7199C53.9675 98.4191 53.563 99.04 52.9967 99.4884C52.4305 99.9369 51.7335 100.188 51.0113 100.205ZM42.785 81.3638C41.9836 81.3638 41.1766 82.1121 41.1556 82.8744C41.0796 87.1279 41.6663 91.724 43.0025 97.3306C43.0928 97.664 43.2875 97.9599 43.558 98.1748C43.8285 98.3897 44.1607 98.5125 44.5059 98.525H51.0113C51.3576 98.5122 51.6907 98.3887 51.9616 98.1725C52.2324 97.9564 52.4268 97.6591 52.5162 97.3243C53.851 91.7238 54.4379 87.1277 54.3615 82.8664C54.3405 82.1121 53.5336 81.3638 52.7325 81.3638H42.785Z" fill="#340600"/>
<path d="M51.4068 60.7522H43.9633V77.2674H51.4068V60.7522Z" fill="#BFBFBF"/>
<g style="mix-blend-mode:screen">
<path d="M46.0633 60.7522H43.9633V77.2674H46.0633V60.7522Z" fill="#BFBFBF"/>
</g>
<g style="mix-blend-mode:multiply">
<path d="M51.4065 60.7522H48.7899V77.2674H51.4065V60.7522Z" fill="#BFBFBF"/>
</g>
<path d="M51.4067 78.1075H43.9633C43.7405 78.1075 43.5269 78.019 43.3693 77.8615C43.2118 77.7039 43.1233 77.4903 43.1233 77.2675V60.7531C43.1233 60.5303 43.2118 60.3166 43.3693 60.1591C43.5269 60.0016 43.7405 59.9131 43.9633 59.9131H51.4067C51.6295 59.9131 51.8432 60.0016 52.0007 60.1591C52.1582 60.3166 52.2467 60.5303 52.2467 60.7531V77.2675C52.2467 77.4903 52.1582 77.7039 52.0007 77.8615C51.8432 78.019 51.6295 78.1075 51.4067 78.1075ZM44.8033 76.4275H50.5667V61.5931H44.8033V76.4275Z" fill="#340600"/>
<path d="M49.6621 77.2673H45.7078V80.5238H49.6621V77.2673Z" fill="#606060"/>
<path d="M49.6621 81.3637H45.7078C45.485 81.3637 45.2714 81.2752 45.1138 81.1177C44.9563 80.9602 44.8678 80.7465 44.8678 80.5237V77.2672C44.8678 77.0445 44.9563 76.8308 45.1138 76.6733C45.2714 76.5157 45.485 76.4272 45.7078 76.4272H49.6621C49.8849 76.4272 50.0985 76.5157 50.2561 76.6733C50.4136 76.8308 50.5021 77.0445 50.5021 77.2672V80.5237C50.5021 80.7465 50.4136 80.9602 50.2561 81.1177C50.0985 81.2752 49.8849 81.3637 49.6621 81.3637ZM46.5478 79.6837H48.8221V78.1072H46.5478V79.6837Z" fill="#340600"/>
<path d="M46.3357 73.8653C46.1686 73.8653 46.0084 73.7989 45.8902 73.6808C45.7721 73.5626 45.7057 73.4024 45.7057 73.2353V63.6984C45.7057 63.5313 45.7721 63.371 45.8902 63.2529C46.0084 63.1347 46.1686 63.0684 46.3357 63.0684C46.5028 63.0684 46.663 63.1347 46.7812 63.2529C46.8993 63.371 46.9657 63.5313 46.9657 63.6984V73.2353C46.9657 73.4024 46.8993 73.5626 46.7812 73.6808C46.663 73.7989 46.5028 73.8653 46.3357 73.8653Z" fill="#340600"/>
<path d="M48.0678 92.0956C49.2856 92.0956 50.2728 91.1083 50.2728 89.8905C50.2728 88.6728 49.2856 87.6855 48.0678 87.6855C46.85 87.6855 45.8628 88.6728 45.8628 89.8905C45.8628 91.1083 46.85 92.0956 48.0678 92.0956Z" fill="#606060"/>
<path d="M48.069 92.9355C47.4668 92.9355 46.8781 92.7569 46.3773 92.4223C45.8766 92.0877 45.4863 91.6121 45.2558 91.0557C45.0254 90.4993 44.9651 89.8871 45.0826 89.2964C45.2 88.7057 45.4901 88.1632 45.9159 87.7373C46.3418 87.3115 46.8843 87.0215 47.475 86.904C48.0657 86.7865 48.6779 86.8468 49.2343 87.0772C49.7907 87.3077 50.2663 87.698 50.6009 88.1988C50.9355 88.6995 51.114 89.2882 51.114 89.8905C51.1132 90.6978 50.7921 91.4718 50.2212 92.0426C49.6503 92.6135 48.8764 92.9346 48.069 92.9355ZM48.069 88.5255C47.7991 88.5255 47.5352 88.6055 47.3107 88.7555C47.0862 88.9055 46.9113 89.1187 46.808 89.3681C46.7046 89.6175 46.6776 89.892 46.7303 90.1568C46.7829 90.4216 46.9129 90.6648 47.1038 90.8557C47.2947 91.0466 47.538 91.1766 47.8027 91.2292C48.0675 91.2819 48.342 91.2549 48.5914 91.1516C48.8408 91.0483 49.054 90.8733 49.204 90.6488C49.354 90.4244 49.434 90.1604 49.434 89.8905C49.4336 89.5286 49.2896 89.1816 49.0338 88.9258C48.7779 88.6699 48.4309 88.5259 48.069 88.5255Z" fill="#340600"/>
<path d="M124.293 82.1978H85.1697C83.691 82.1921 82.2508 82.6688 81.0675 83.5556C79.8842 84.4424 79.0223 85.6909 78.6127 87.1118C77.5768 90.7571 77.5768 94.6189 78.6127 98.2643C79.0223 99.6851 79.8842 100.934 81.0675 101.82C82.2508 102.707 83.691 103.184 85.1697 103.178H124.293C125.115 103.181 125.907 102.871 126.509 102.311C127.112 101.751 127.479 100.984 127.537 100.164C127.874 95.1854 127.874 90.19 127.537 85.2117C127.479 84.3917 127.111 83.6244 126.509 83.0649C125.907 82.5054 125.115 82.1954 124.293 82.1978Z" fill="#1D4928"/>
<path d="M124.293 104.018H85.1697C83.5091 104.02 81.8928 103.482 80.5644 102.486C79.2361 101.489 78.2676 100.088 77.805 98.4927C76.732 94.6972 76.732 90.6787 77.805 86.8832C78.2677 85.2882 79.2363 83.8869 80.5648 82.8903C81.8932 81.8937 83.5096 81.3559 85.1704 81.3579H124.293C125.327 81.3586 126.323 81.7505 127.08 82.4548C127.837 83.1592 128.3 84.1238 128.375 85.1551C128.713 90.1712 128.713 95.2043 128.375 100.22C128.3 101.252 127.837 102.217 127.08 102.921C126.323 103.626 125.327 104.018 124.293 104.018ZM85.1697 83.0379C83.8748 83.0351 82.614 83.4531 81.5774 84.2291C80.5407 85.0051 79.7843 86.0969 79.422 87.3402C78.4334 90.8368 78.4334 94.5391 79.422 98.0357C79.7843 99.2791 80.5409 100.371 81.5778 101.147C82.6147 101.923 83.8757 102.341 85.1708 102.338H124.294C124.902 102.339 125.488 102.109 125.934 101.695C126.38 101.281 126.653 100.714 126.698 100.107C127.032 95.1668 127.032 90.2095 126.698 85.2692C126.653 84.6622 126.38 84.0948 125.934 83.6809C125.488 83.2671 124.901 83.0374 124.293 83.0381L85.1697 83.0379Z" fill="#340600"/>
<path d="M124.293 104.018H85.1697C83.5091 104.02 81.8928 103.482 80.5644 102.486C79.2361 101.489 78.2676 100.088 77.805 98.4927C76.732 94.6972 76.732 90.6787 77.805 86.8832C78.2677 85.2882 79.2363 83.8869 80.5648 82.8903C81.8932 81.8937 83.5096 81.3559 85.1704 81.3579H124.293C125.327 81.3586 126.323 81.7505 127.08 82.4548C127.837 83.1592 128.3 84.1238 128.375 85.1551C128.713 90.1712 128.713 95.2043 128.375 100.22C128.3 101.252 127.837 102.217 127.08 102.921C126.323 103.626 125.327 104.018 124.293 104.018ZM85.1697 83.0379C83.8748 83.0351 82.614 83.4531 81.5774 84.2291C80.5407 85.0051 79.7843 86.0969 79.422 87.3402C78.4334 90.8368 78.4334 94.5391 79.422 98.0357C79.7843 99.2791 80.5409 100.371 81.5778 101.147C82.6147 101.923 83.8757 102.341 85.1708 102.338H124.294C124.902 102.339 125.488 102.109 125.934 101.695C126.38 101.281 126.653 100.714 126.698 100.107C127.032 95.1668 127.032 90.2095 126.698 85.2692C126.653 84.6622 126.38 84.0948 125.934 83.6809C125.488 83.2671 124.901 83.0374 124.293 83.0381L85.1697 83.0379Z" fill="#340600"/>
<path d="M99.531 99.2895C98.699 94.9278 98.699 90.4481 99.531 86.0864H151.482C151.482 89.1161 150.805 94.0395 149.002 97.4928C148.716 98.0358 148.288 98.4904 147.763 98.8072C147.237 99.1239 146.635 99.2907 146.022 99.2895H99.531Z" fill="#C4C4C4"/>
<g style="mix-blend-mode:multiply" opacity="0.77">
<path d="M150.129 86.0864C149.927 89.055 149.208 92.9324 147.711 95.7995C147.426 96.3426 146.997 96.7972 146.472 97.114C145.947 97.4307 145.345 97.5975 144.731 97.5963H99.251C99.3306 98.1623 99.4239 98.7267 99.531 99.2895H146.022C146.635 99.2907 147.237 99.1239 147.763 98.8072C148.288 98.4904 148.716 98.0358 149.002 97.4928C150.805 94.0395 151.482 89.1161 151.482 86.0864H150.129Z" fill="#C4C4C4"/>
</g>
<path d="M146.022 100.129H99.531C99.3355 100.129 99.1461 100.061 98.9955 99.9368C98.8448 99.8122 98.7424 99.639 98.7057 99.4469C97.8504 94.9815 97.8504 90.3943 98.7057 85.9288C98.7424 85.7368 98.8448 85.5636 98.9955 85.439C99.1461 85.3144 99.3355 85.2463 99.531 85.2463H151.482C151.705 85.2463 151.918 85.3348 152.076 85.4924C152.234 85.6499 152.322 85.8636 152.322 86.0863C152.322 89.502 151.526 94.4737 149.746 97.8816C149.391 98.5617 148.856 99.1311 148.199 99.5276C147.542 99.924 146.789 100.132 146.022 100.129ZM100.233 98.4494H146.022C146.482 98.4516 146.934 98.3273 147.328 98.09C147.722 97.8527 148.044 97.5116 148.257 97.104C149.766 94.2144 150.511 90.069 150.626 86.9263H100.233C99.5816 90.7398 99.5816 94.636 100.233 98.4494H100.233Z" fill="#340600"/>
<path d="M151.314 88.9758C151.42 88.0163 151.476 87.0518 151.482 86.0864H99.531C99.3481 87.0446 99.2063 88.0077 99.1055 88.9758H151.314Z" fill="white"/>
<path d="M151.314 89.8157H99.1056C98.9878 89.8157 98.8713 89.7909 98.7637 89.743C98.6561 89.6951 98.5598 89.6251 98.481 89.5375C98.4022 89.4499 98.3428 89.3468 98.3064 89.2347C98.2701 89.1227 98.2578 89.0042 98.2702 88.8871C98.3767 87.8812 98.5232 86.886 98.7057 85.929C98.7423 85.737 98.8448 85.5637 98.9955 85.4391C99.1461 85.3145 99.3355 85.2463 99.531 85.2463H151.482C151.705 85.2463 151.919 85.3348 152.076 85.4924C152.234 85.6499 152.322 85.8636 152.322 86.0863C152.316 87.0817 152.259 88.076 152.149 89.0654C152.127 89.2715 152.03 89.4621 151.875 89.6006C151.721 89.7391 151.521 89.8157 151.314 89.8157ZM100.052 88.1357H150.55C150.585 87.7201 150.61 87.3142 150.625 86.9263H100.233C100.166 87.3245 100.106 87.7276 100.052 88.1357Z" fill="#340600"/>
<path d="M98.1576 100.13C98.027 100.13 97.8981 100.099 97.7813 100.041C97.6645 99.9824 97.5629 99.8975 97.4847 99.7929C97.4064 99.6884 97.3536 99.567 97.3305 99.4384C97.3073 99.3098 97.3145 99.1777 97.3514 99.0524L100.265 89.1536C100.295 89.0465 100.346 88.9464 100.415 88.8591C100.484 88.7718 100.57 88.6991 100.667 88.6452C100.764 88.5913 100.871 88.5573 100.982 88.5451C101.093 88.5329 101.204 88.5428 101.311 88.5742C101.418 88.6056 101.517 88.6579 101.604 88.728C101.69 88.7982 101.762 88.8847 101.814 88.9828C101.867 89.0808 101.899 89.1883 101.91 89.299C101.921 89.4097 101.91 89.5215 101.877 89.6278L98.963 99.5267C98.9118 99.7007 98.8057 99.8534 98.6605 99.9621C98.5154 100.071 98.3389 100.13 98.1576 100.13Z" fill="#340600"/>
<path d="M103.652 100.13C103.522 100.13 103.393 100.099 103.276 100.041C103.159 99.9824 103.058 99.8975 102.979 99.7929C102.901 99.6884 102.848 99.567 102.825 99.4384C102.802 99.3098 102.809 99.1777 102.846 99.0524L105.76 89.1536C105.79 89.0465 105.841 88.9464 105.91 88.8591C105.979 88.7718 106.065 88.6991 106.162 88.6452C106.259 88.5913 106.366 88.5573 106.477 88.5451C106.587 88.5329 106.699 88.5428 106.806 88.5742C106.913 88.6056 107.012 88.6579 107.098 88.728C107.185 88.7982 107.256 88.8847 107.309 88.9828C107.362 89.0808 107.394 89.1883 107.405 89.299C107.416 89.4097 107.404 89.5215 107.372 89.6278L104.458 99.5267C104.407 99.7007 104.3 99.8534 104.155 99.9621C104.01 100.071 103.834 100.13 103.652 100.13Z" fill="#340600"/>
<path d="M109.147 100.13C109.017 100.13 108.888 100.099 108.771 100.041C108.654 99.9824 108.553 99.8975 108.474 99.7929C108.396 99.6884 108.343 99.567 108.32 99.4384C108.297 99.3098 108.304 99.1777 108.341 99.0524L111.255 89.1536C111.285 89.0465 111.336 88.9464 111.405 88.8591C111.474 88.7718 111.559 88.6991 111.657 88.6452C111.754 88.5913 111.861 88.5573 111.972 88.5451C112.082 88.5329 112.194 88.5428 112.301 88.5742C112.408 88.6056 112.507 88.6579 112.593 88.728C112.68 88.7982 112.751 88.8847 112.804 88.9828C112.856 89.0808 112.889 89.1883 112.9 89.299C112.911 89.4097 112.899 89.5215 112.866 89.6278L109.953 99.5267C109.901 99.7007 109.795 99.8534 109.65 99.9621C109.505 100.071 109.329 100.13 109.147 100.13Z" fill="#340600"/>
<path d="M114.642 100.13C114.512 100.13 114.383 100.099 114.266 100.041C114.149 99.9824 114.047 99.8975 113.969 99.7929C113.891 99.6884 113.838 99.567 113.815 99.4384C113.792 99.3098 113.799 99.1777 113.836 99.0524L116.75 89.1536C116.78 89.0465 116.831 88.9464 116.9 88.8591C116.969 88.7718 117.054 88.6991 117.152 88.6452C117.249 88.5913 117.356 88.5573 117.467 88.5451C117.577 88.5329 117.689 88.5428 117.796 88.5742C117.902 88.6056 118.002 88.6579 118.088 88.728C118.175 88.7982 118.246 88.8847 118.299 88.9828C118.351 89.0808 118.384 89.1883 118.395 89.299C118.405 89.4097 118.394 89.5215 118.361 89.6278L115.448 99.5267C115.396 99.7007 115.29 99.8534 115.145 99.9621C115 100.071 114.823 100.13 114.642 100.13Z" fill="#340600"/>
<path d="M120.137 100.13C120.006 100.13 119.877 100.099 119.761 100.041C119.644 99.9824 119.542 99.8975 119.464 99.7929C119.386 99.6884 119.333 99.567 119.31 99.4384C119.287 99.3098 119.294 99.1777 119.331 99.0524L122.244 89.1536C122.274 89.0465 122.325 88.9464 122.394 88.8591C122.463 88.7718 122.549 88.6991 122.646 88.6452C122.744 88.5913 122.851 88.5573 122.961 88.5451C123.072 88.5329 123.184 88.5428 123.29 88.5742C123.397 88.6056 123.497 88.6579 123.583 88.728C123.669 88.7982 123.741 88.8847 123.793 88.9828C123.846 89.0808 123.879 89.1883 123.889 89.299C123.9 89.4097 123.889 89.5215 123.856 89.6278L120.942 99.5267C120.891 99.7007 120.785 99.8534 120.64 99.9621C120.495 100.071 120.318 100.13 120.137 100.13Z" fill="#340600"/>
<path d="M125.632 100.13C125.501 100.13 125.372 100.099 125.255 100.041C125.139 99.9824 125.037 99.8975 124.959 99.7929C124.88 99.6884 124.828 99.567 124.805 99.4384C124.781 99.3098 124.789 99.1777 124.825 99.0524L127.739 89.1536C127.769 89.0465 127.82 88.9464 127.889 88.8591C127.958 88.7718 128.044 88.6991 128.141 88.6452C128.238 88.5913 128.346 88.5573 128.456 88.5451C128.567 88.5329 128.679 88.5428 128.785 88.5742C128.892 88.6056 128.991 88.6579 129.078 88.728C129.164 88.7982 129.236 88.8847 129.288 88.9828C129.341 89.0808 129.374 89.1883 129.384 89.299C129.395 89.4097 129.384 89.5215 129.351 89.6278L126.437 99.5267C126.386 99.7007 126.28 99.8534 126.135 99.9621C125.989 100.071 125.813 100.13 125.632 100.13Z" fill="#340600"/>
<path d="M131.127 100.13C130.996 100.13 130.867 100.099 130.75 100.041C130.633 99.9824 130.532 99.8975 130.454 99.7929C130.375 99.6884 130.323 99.567 130.299 99.4384C130.276 99.3098 130.283 99.1777 130.32 99.0524L133.234 89.1536C133.264 89.0465 133.315 88.9464 133.384 88.8591C133.453 88.7718 133.539 88.6991 133.636 88.6452C133.733 88.5913 133.84 88.5573 133.951 88.5451C134.062 88.5329 134.173 88.5428 134.28 88.5742C134.387 88.6056 134.486 88.6579 134.573 88.728C134.659 88.7982 134.731 88.8847 134.783 88.9828C134.836 89.0808 134.868 89.1883 134.879 89.299C134.89 89.4097 134.878 89.5215 134.846 89.6278L131.932 99.5267C131.881 99.7007 131.775 99.8534 131.629 99.9621C131.484 100.071 131.308 100.13 131.127 100.13Z" fill="#340600"/>
<path d="M136.621 100.13C136.491 100.13 136.362 100.099 136.245 100.041C136.128 99.9824 136.027 99.8975 135.948 99.7929C135.87 99.6884 135.817 99.567 135.794 99.4384C135.771 99.3098 135.778 99.1777 135.815 99.0524L138.729 89.1536C138.759 89.0465 138.81 88.9464 138.879 88.8591C138.948 88.7718 139.034 88.6991 139.131 88.6452C139.228 88.5913 139.335 88.5573 139.446 88.5451C139.556 88.5329 139.668 88.5428 139.775 88.5742C139.882 88.6056 139.981 88.6579 140.067 88.728C140.154 88.7982 140.225 88.8847 140.278 88.9828C140.331 89.0808 140.363 89.1883 140.374 89.299C140.385 89.4097 140.373 89.5215 140.341 89.6278L137.427 99.5267C137.376 99.7007 137.269 99.8534 137.124 99.9621C136.979 100.071 136.803 100.13 136.621 100.13Z" fill="#340600"/>
<path d="M142.116 100.13C141.986 100.13 141.857 100.099 141.74 100.041C141.623 99.9824 141.522 99.8975 141.443 99.7929C141.365 99.6884 141.312 99.567 141.289 99.4384C141.266 99.3098 141.273 99.1777 141.31 99.0524L144.224 89.1536C144.254 89.0465 144.305 88.9464 144.374 88.8591C144.443 88.7718 144.528 88.6991 144.626 88.6452C144.723 88.5913 144.83 88.5573 144.941 88.5451C145.051 88.5329 145.163 88.5428 145.27 88.5742C145.377 88.6056 145.476 88.6579 145.562 88.728C145.649 88.7982 145.72 88.8847 145.773 88.9828C145.825 89.0808 145.858 89.1883 145.869 89.299C145.88 89.4097 145.868 89.5215 145.835 89.6278L142.922 99.5267C142.87 99.7007 142.764 99.8534 142.619 99.9621C142.474 100.071 142.298 100.13 142.116 100.13Z" fill="#340600"/>
<path d="M127.738 89.3907C127.696 87.997 127.629 86.604 127.537 85.2117C127.479 84.3916 127.112 83.6242 126.509 83.0645C125.907 82.5049 125.115 82.195 124.293 82.1973H85.1697C83.691 82.1916 82.2508 82.6683 81.0674 83.5551C79.8841 84.4419 79.0223 85.6905 78.6127 87.1113C78.4015 87.8609 78.2328 88.6218 78.1074 89.3905L127.738 89.3907Z" fill="#47A942"/>
<path d="M85.8997 85.2199C97.2754 85.2199 113.646 85.2199 125.023 85.2199C125.52 85.2194 126.011 85.333 126.457 85.552C126.904 85.7709 127.294 86.0894 127.599 86.4828C127.578 86.1294 127.561 85.7755 127.537 85.4221C127.48 84.6021 127.112 83.8346 126.51 83.275C125.908 82.7154 125.116 82.4054 124.294 82.4078H85.1706C83.6919 82.4021 82.2516 82.8788 81.0683 83.7656C79.885 84.6524 79.0232 85.9009 78.6135 87.3218C78.4023 88.0713 78.2336 88.8323 78.1083 89.6009H79.5178C80.0107 88.3089 80.8854 87.1976 82.0254 86.415C83.1655 85.6323 84.5169 85.2155 85.8997 85.2199Z" fill="#81C347"/>
<path d="M127.537 85.4221C127.479 84.6021 127.112 83.8346 126.509 83.275C125.907 82.7154 125.115 82.4054 124.293 82.4078H85.1697C83.691 82.4021 82.2508 82.8788 81.0674 83.7656C79.8841 84.6524 79.0223 85.9009 78.6127 87.3218C78.4015 88.0713 78.2328 88.8323 78.1074 89.6009H78.1461C78.2065 89.3489 78.2704 89.0986 78.3409 88.8487C78.7506 87.4278 79.6124 86.1793 80.7957 85.2925C81.979 84.4057 83.4193 83.929 84.898 83.9347H124.021C124.657 83.934 125.279 84.12 125.811 84.4697C126.342 84.8194 126.759 85.3173 127.01 85.9017C127.229 86.0699 127.427 86.2652 127.598 86.483C127.577 86.1294 127.561 85.7755 127.537 85.4221Z" fill="#CADB2A"/>
<path d="M127.737 90.2308H78.1083C77.9865 90.2307 77.8662 90.2042 77.7557 90.153C77.6452 90.1018 77.5472 90.0272 77.4684 89.9343C77.3896 89.8415 77.332 89.7326 77.2995 89.6153C77.2669 89.4979 77.2603 89.3749 77.28 89.2548C77.4104 88.455 77.5857 87.6633 77.805 86.8832C78.2677 85.2882 79.2363 83.8869 80.5647 82.8903C81.8932 81.8937 83.5096 81.3559 85.1703 81.3579H124.293C125.327 81.3586 126.323 81.7505 127.08 82.4548C127.837 83.1592 128.299 84.1238 128.375 85.1551C128.466 86.5044 128.534 87.921 128.577 89.3656C128.58 89.478 128.561 89.59 128.52 89.6948C128.48 89.7996 128.418 89.8952 128.34 89.9758C128.262 90.0565 128.168 90.1206 128.064 90.1644C127.961 90.2081 127.849 90.2307 127.737 90.2306L127.737 90.2308ZM79.1223 88.5508H126.869C126.827 87.4273 126.77 86.3269 126.698 85.269C126.653 84.662 126.38 84.0946 125.934 83.6807C125.488 83.2669 124.901 83.0372 124.293 83.0379H85.1697C83.8748 83.0351 82.614 83.4531 81.5773 84.2291C80.5407 85.0051 79.7842 86.0969 79.422 87.3402C79.3103 87.7352 79.2099 88.1399 79.1219 88.5508H79.1223Z" fill="#340600"/>
<path d="M127.537 100.163C127.639 98.6467 127.709 97.1286 127.747 95.6092L126.614 94.8855L123.487 96.8834L120.36 94.8855L117.234 96.8834L114.106 94.8855L110.979 96.8834L107.851 94.8855L104.724 96.8834L101.596 94.8855L98.4667 96.8834L95.34 94.8855L92.2121 96.8834L89.0831 94.8855L85.9558 96.8834L82.8278 94.8855L79.6988 96.8834L78.0869 95.8544C78.2137 96.6675 78.389 97.4723 78.6119 98.2644C79.0215 99.6853 79.8833 100.934 81.0666 101.821C82.2499 102.707 83.6902 103.184 85.1689 103.178H124.292C125.114 103.181 125.907 102.871 126.509 102.311C127.112 101.751 127.479 100.984 127.537 100.163Z" fill="#47A942"/>
<path d="M127.566 95.4934C127.53 96.2914 127.486 97.0898 127.432 97.8885C127.374 98.7085 127.007 99.476 126.405 100.036C125.803 100.595 125.01 100.905 124.188 100.903H85.0654C83.6179 100.907 82.2068 100.45 81.0376 99.5963C79.8684 98.7431 79.0022 97.5388 78.565 96.1589L78.0877 95.8542C78.2146 96.6672 78.39 97.472 78.6127 98.2642C79.0223 99.685 79.8842 100.934 81.0675 101.82C82.2508 102.707 83.691 103.184 85.1697 103.178H124.293C125.115 103.181 125.907 102.871 126.509 102.311C127.112 101.751 127.479 100.984 127.537 100.164C127.639 98.6468 127.709 97.1288 127.747 95.6093L127.566 95.4934Z" fill="#26863F"/>
<path d="M124.293 104.018H85.1697C83.5091 104.02 81.8928 103.482 80.5645 102.485C79.2361 101.489 78.2677 100.087 77.805 98.4926C77.5736 97.6682 77.3912 96.8307 77.259 95.9847C77.234 95.8251 77.2556 95.6616 77.3212 95.5139C77.3868 95.3661 77.4936 95.2405 77.6288 95.152C77.7641 95.0635 77.922 95.0158 78.0836 95.0148C78.2452 95.0138 78.4037 95.0594 78.54 95.1462L79.6996 95.8869L82.3767 94.1775C82.5117 94.0912 82.6686 94.0454 82.8288 94.0454C82.9891 94.0454 83.1459 94.0912 83.281 94.1775L85.9566 95.8869L88.6316 94.1777C88.7666 94.0914 88.9235 94.0455 89.0838 94.0455C89.2441 94.0455 89.401 94.0914 89.536 94.1777L92.211 95.886L94.887 94.1766C95.0221 94.0903 95.179 94.0445 95.3393 94.0445C95.4995 94.0445 95.6565 94.0903 95.7915 94.1766L98.469 95.886L101.145 94.1766C101.28 94.0904 101.437 94.0446 101.597 94.0446C101.757 94.0446 101.914 94.0904 102.049 94.1766L104.725 95.886L107.4 94.1768C107.535 94.0906 107.692 94.0448 107.852 94.0448C108.013 94.0448 108.17 94.0906 108.305 94.1768L110.98 95.886L113.656 94.1766C113.791 94.0903 113.948 94.0445 114.108 94.0445C114.268 94.0445 114.425 94.0903 114.56 94.1766L117.235 95.8858L119.909 94.1766C120.044 94.0903 120.201 94.0444 120.362 94.0444C120.522 94.0444 120.679 94.0903 120.814 94.1766L123.489 95.8858L126.163 94.1766C126.298 94.0903 126.455 94.0445 126.615 94.0445C126.775 94.0445 126.932 94.0903 127.067 94.1766L128.2 94.9005C128.322 94.9785 128.422 95.0866 128.49 95.2145C128.558 95.3424 128.592 95.4857 128.588 95.6305C128.546 97.2202 128.474 98.7641 128.376 100.219C128.301 101.251 127.838 102.217 127.081 102.921C126.323 103.626 125.327 104.018 124.293 104.018ZM79.3118 97.629C79.347 97.7657 79.3837 97.9013 79.4218 98.0358C79.7841 99.2793 80.5406 100.371 81.5775 101.147C82.6144 101.923 83.8754 102.341 85.1706 102.338H124.294C124.902 102.339 125.488 102.109 125.934 101.695C126.38 101.281 126.653 100.714 126.698 100.107C126.786 98.8195 126.852 97.461 126.894 96.0614L126.614 95.8829L123.94 97.5919C123.805 97.6782 123.648 97.724 123.488 97.724C123.328 97.724 123.171 97.6782 123.036 97.5919L120.361 95.8829L117.687 97.5919C117.551 97.6782 117.395 97.7241 117.234 97.7241C117.074 97.7241 116.917 97.6782 116.782 97.5919L114.107 95.8827L111.431 97.5921C111.296 97.6784 111.139 97.7242 110.979 97.7242C110.819 97.7242 110.662 97.6784 110.527 97.5921L107.851 95.8829L105.176 97.5921C105.041 97.6784 104.884 97.7242 104.724 97.7242C104.564 97.7242 104.407 97.6784 104.272 97.5921L101.596 95.8827L98.9201 97.5921C98.785 97.6784 98.6281 97.7242 98.4679 97.7242C98.3076 97.7242 98.1507 97.6784 98.0156 97.5921L95.34 95.8823L92.6642 97.5917C92.5291 97.6779 92.3722 97.7238 92.212 97.7238C92.0517 97.7238 91.8948 97.6779 91.7597 97.5917L89.0839 95.8823L86.4089 97.5915C86.2739 97.6777 86.117 97.7236 85.9567 97.7236C85.7964 97.7236 85.6395 97.6777 85.5045 97.5915L82.8286 95.882L80.1518 97.5915C80.0274 97.671 79.8843 97.7163 79.7368 97.7229C79.5893 97.7295 79.4427 97.6971 79.3118 97.629Z" fill="#340600"/>
<path d="M100.78 98.2739C103.769 98.2739 106.191 95.8511 106.191 92.8624C106.191 89.8737 103.769 87.4509 100.78 87.4509C97.7912 87.4509 95.3684 89.8737 95.3684 92.8624C95.3684 95.8511 97.7912 98.2739 100.78 98.2739Z" fill="#CCCC00"/>
<path d="M100.779 99.114C99.5426 99.114 98.3339 98.7474 97.3058 98.0604C96.2777 97.3734 95.4764 96.397 95.0032 95.2547C94.53 94.1123 94.4062 92.8553 94.6475 91.6426C94.8887 90.4299 95.4842 89.3159 96.3585 88.4416C97.2328 87.5673 98.3468 86.9719 99.5595 86.7307C100.772 86.4895 102.029 86.6133 103.172 87.0865C104.314 87.5598 105.29 88.3611 105.977 89.3892C106.664 90.4173 107.031 91.626 107.031 92.8625C107.029 94.52 106.37 96.1091 105.198 97.2812C104.026 98.4532 102.437 99.1123 100.779 99.114ZM100.779 88.2908C99.8749 88.2908 98.991 88.5589 98.2392 89.0613C97.4873 89.5636 96.9014 90.2776 96.5554 91.113C96.2093 91.9484 96.1188 92.8676 96.2952 93.7544C96.4716 94.6412 96.907 95.4558 97.5464 96.0952C98.1857 96.7346 99.0003 97.17 99.8872 97.3464C100.774 97.5228 101.693 97.4322 102.529 97.0862C103.364 96.7402 104.078 96.1542 104.58 95.4024C105.083 94.6506 105.351 93.7667 105.351 92.8625C105.349 91.6504 104.867 90.4884 104.01 89.6313C103.153 88.7742 101.991 88.2921 100.779 88.2908Z" fill="#340600"/>
<path d="M131.625 101.429V97.4954H127.869V101.429H131.625Z" fill="#245B34"/>
<path d="M131.626 102.27H127.869C127.646 102.27 127.433 102.181 127.275 102.024C127.117 101.866 127.029 101.653 127.029 101.43V97.4955C127.029 97.2727 127.117 97.0591 127.275 96.9015C127.433 96.744 127.646 96.6555 127.869 96.6555H131.626C131.848 96.6555 132.062 96.744 132.219 96.9015C132.377 97.0591 132.466 97.2727 132.466 97.4955V101.43C132.466 101.653 132.377 101.866 132.22 102.024C132.062 102.181 131.848 102.27 131.626 102.27ZM128.709 100.59H130.785V98.3355H128.709V100.59Z" fill="#340600"/>
<path d="M131.626 89.1993V85.2651H127.869V89.1993H131.626Z" fill="#245B34"/>
<path d="M131.626 90.0394H127.869C127.646 90.0394 127.433 89.9509 127.275 89.7934C127.117 89.6359 127.029 89.4222 127.029 89.1994V85.2653C127.029 85.0425 127.117 84.8289 127.275 84.6713C127.433 84.5138 127.646 84.4253 127.869 84.4253H131.626C131.848 84.4253 132.062 84.5138 132.219 84.6713C132.377 84.8289 132.466 85.0425 132.466 85.2653V89.1994C132.466 89.4222 132.377 89.6358 132.22 89.7933C132.062 89.9508 131.848 90.0394 131.626 90.0394ZM128.709 88.3594H130.786V86.1053H128.709L128.709 88.3594Z" fill="#340600"/>
<path d="M95.575 94.8655C95.392 94.8657 95.214 94.8061 95.068 94.6959C94.9219 94.5856 94.8159 94.4307 94.766 94.2546C94.7161 94.0786 94.725 93.891 94.7914 93.7205C94.8579 93.55 94.9782 93.4059 95.134 93.31L103.67 88.0569C103.86 87.9415 104.087 87.9059 104.303 87.9579C104.519 88.0099 104.706 88.1452 104.822 88.3343C104.938 88.5234 104.975 88.7508 104.924 88.9669C104.873 89.1831 104.739 89.3703 104.551 89.4876L96.0145 94.7408C95.8825 94.8224 95.7303 94.8656 95.575 94.8655Z" fill="#340600"/>
<path d="M97.6488 97.8068C97.4657 97.8071 97.2876 97.7476 97.1415 97.6373C96.9954 97.527 96.8893 97.372 96.8394 97.1959C96.7895 97.0198 96.7984 96.8322 96.8649 96.6617C96.9314 96.4912 97.0518 96.347 97.2078 96.2512L105.744 90.998C105.934 90.8827 106.161 90.8471 106.377 90.8991C106.593 90.9511 106.779 91.0864 106.896 91.2755C107.012 91.4645 107.049 91.692 106.998 91.9081C106.947 92.1242 106.813 92.3114 106.624 92.4288L98.0883 97.6821C97.9562 97.7637 97.804 97.8069 97.6488 97.8068Z" fill="#340600"/>
<path d="M187.563 56.6921H82.4813C80.5442 56.6921 78.9739 58.2625 78.9739 60.1996V71.0106C78.9739 72.9477 80.5442 74.518 82.4813 74.518H187.563C189.5 74.518 191.07 72.9477 191.07 71.0106V60.1996C191.07 58.2625 189.5 56.6921 187.563 56.6921Z" fill="#CB0000" stroke="#CB0000" stroke-width="8" stroke-linecap="round" stroke-linejoin="round"/>
<path d="M184.965 53.9927H79.8834C77.9463 53.9927 76.376 55.563 76.376 57.5001V68.3111C76.376 70.2482 77.9463 71.8185 79.8834 71.8185H184.965C186.902 71.8185 188.473 70.2482 188.473 68.3111V57.5001C188.473 55.563 186.902 53.9927 184.965 53.9927Z" fill="#FF9E03"/>
<path d="M184.965 72.6587H79.884C78.7316 72.6573 77.6268 72.1988 76.8118 71.3839C75.9969 70.569 75.5385 69.4642 75.537 68.3117V57.5001C75.5385 56.3476 75.9969 55.2428 76.8118 54.4279C77.6268 53.613 78.7316 53.1545 79.884 53.1531H184.966C186.118 53.1545 187.223 53.6129 188.038 54.4278C188.853 55.2427 189.312 56.3476 189.313 57.5001V68.3113C189.312 69.464 188.853 70.569 188.038 71.3841C187.223 72.1991 186.118 72.6575 184.965 72.6587ZM79.884 54.8327C79.177 54.8335 78.4991 55.1148 77.9992 55.6148C77.4992 56.1148 77.2179 56.7926 77.217 57.4997V68.3109C77.2179 69.018 77.4992 69.6958 77.9992 70.1958C78.4991 70.6957 79.177 70.977 79.884 70.9779H184.966C185.673 70.9771 186.351 70.6958 186.851 70.1958C187.351 69.6958 187.632 69.018 187.633 68.3109V57.5001C187.632 56.793 187.351 56.1151 186.851 55.6151C186.351 55.1152 185.673 54.8339 184.966 54.8331L79.884 54.8327Z" fill="#340600"/>
<path d="M181.288 64.1913H82.3005C82.022 64.1913 81.7549 64.0807 81.558 63.8838C81.3611 63.6868 81.2505 63.4198 81.2505 63.1413C81.2505 62.8628 81.3611 62.5958 81.558 62.3988C81.7549 62.2019 82.022 62.0913 82.3005 62.0913H181.288C181.567 62.0913 181.834 62.2019 182.031 62.3988C182.228 62.5958 182.338 62.8628 182.338 63.1413C182.338 63.4198 182.228 63.6868 182.031 63.8838C181.834 64.0807 181.567 64.1913 181.288 64.1913Z" fill="#340600"/>
<path d="M181.448 53.9927H180.818V57.5787H181.448V53.9927Z" fill="#340600"/>
<path d="M171.706 53.9927H171.076V57.5787H171.706V53.9927Z" fill="#340600"/>
<path d="M174.268 53.9927H173.638V55.865H174.268V53.9927Z" fill="#340600"/>
<path d="M178.958 53.9927H178.328V55.865H178.958V53.9927Z" fill="#340600"/>
<path d="M176.613 53.9927H175.983V56.5956H176.613V53.9927Z" fill="#340600"/>
<path d="M161.964 53.9927H161.334V57.5787H161.964V53.9927Z" fill="#340600"/>
<path d="M164.526 53.9927H163.896V55.865H164.526V53.9927Z" fill="#340600"/>
<path d="M169.217 53.9927H168.587V55.865H169.217V53.9927Z" fill="#340600"/>
<path d="M166.871 53.9927H166.241V56.5956H166.871V53.9927Z" fill="#340600"/>
<path d="M152.223 53.9927H151.593V57.5787H152.223V53.9927Z" fill="#340600"/>
<path d="M154.784 53.9927H154.154V55.865H154.784V53.9927Z" fill="#340600"/>
<path d="M159.475 53.9927H158.845V55.865H159.475V53.9927Z" fill="#340600"/>
<path d="M157.13 53.9927H156.5V56.5956H157.13V53.9927Z" fill="#340600"/>
<path d="M142.481 53.9927H141.851V57.5787H142.481V53.9927Z" fill="#340600"/>
<path d="M145.043 53.9927H144.413V55.865H145.043V53.9927Z" fill="#340600"/>
<path d="M149.733 53.9927H149.103V55.865H149.733V53.9927Z" fill="#340600"/>
<path d="M147.388 53.9927H146.758V56.5956H147.388V53.9927Z" fill="#340600"/>
<path d="M132.739 53.9927H132.109V57.5787H132.739V53.9927Z" fill="#340600"/>
<path d="M135.301 53.9927H134.671V55.865H135.301V53.9927Z" fill="#340600"/>
<path d="M139.991 53.9927H139.361V55.865H139.991V53.9927Z" fill="#340600"/>
<path d="M137.646 53.9927H137.016V56.5956H137.646V53.9927Z" fill="#340600"/>
<path d="M122.998 53.9927H122.368V57.5787H122.998V53.9927Z" fill="#340600"/>
<path d="M125.559 53.9927H124.929V55.865H125.559V53.9927Z" fill="#340600"/>
<path d="M130.25 53.9927H129.62V55.865H130.25V53.9927Z" fill="#340600"/>
<path d="M127.905 53.9927H127.274V56.5956H127.905V53.9927Z" fill="#340600"/>
<path d="M113.256 53.9927H112.626V57.5787H113.256V53.9927Z" fill="#340600"/>
<path d="M115.818 53.9927H115.188V55.865H115.818V53.9927Z" fill="#340600"/>
<path d="M120.508 53.9927H119.878V55.865H120.508V53.9927Z" fill="#340600"/>
<path d="M118.163 53.9927H117.533V56.5956H118.163V53.9927Z" fill="#340600"/>
<path d="M103.514 53.9927H102.884V57.5787H103.514V53.9927Z" fill="#340600"/>
<path d="M106.076 53.9927H105.446V55.865H106.076V53.9927Z" fill="#340600"/>
<path d="M110.766 53.9927H110.136V55.865H110.766V53.9927Z" fill="#340600"/>
<path d="M108.421 53.9927H107.791V56.5956H108.421V53.9927Z" fill="#340600"/>
<path d="M93.7726 53.9927H93.1426V57.5787H93.7726V53.9927Z" fill="#340600"/>
<path d="M96.3341 53.9927H95.7042V55.865H96.3341V53.9927Z" fill="#340600"/>
<path d="M101.025 53.9927H100.395V55.865H101.025V53.9927Z" fill="#340600"/>
<path d="M98.6794 53.9927H98.0494V56.5956H98.6794V53.9927Z" fill="#340600"/>
<path d="M84.0309 53.9927H83.4009V57.5787H84.0309V53.9927Z" fill="#340600"/>
<path d="M86.5927 53.9927H85.9627V55.865H86.5927V53.9927Z" fill="#340600"/>
<path d="M91.283 53.9927H90.653V55.865H91.283V53.9927Z" fill="#340600"/>
<path d="M88.9378 53.9927H88.3077V56.5956H88.9378V53.9927Z" fill="#340600"/>
<path d="M189.112 97.9504L115.223 149.234C114.998 149.384 114.827 149.602 114.736 149.857C114.645 150.112 114.638 150.389 114.716 150.648C114.794 150.907 114.954 151.133 115.171 151.295C115.388 151.456 115.651 151.543 115.922 151.543H190.23C190.453 151.543 190.667 151.454 190.824 151.297C190.982 151.139 191.07 150.926 191.07 150.703V98.9992C191.07 98.7712 191.009 98.5475 190.891 98.3519C190.774 98.1563 190.606 97.9961 190.405 97.8885C190.204 97.7809 189.978 97.7298 189.75 97.7407C189.522 97.7516 189.302 97.8241 189.112 97.9504ZM146.247 141.078L180.606 116.227V141.078H146.247Z" fill="#CB0000" stroke="#CB0000" stroke-width="8" stroke-linecap="round" stroke-linejoin="round"/>
<path d="M186.802 95.4304L112.913 146.714C112.688 146.864 112.517 147.082 112.426 147.337C112.335 147.591 112.327 147.869 112.406 148.128C112.484 148.386 112.644 148.613 112.861 148.775C113.078 148.936 113.341 149.023 113.612 149.023H187.92C188.143 149.023 188.357 148.934 188.514 148.777C188.672 148.619 188.76 148.406 188.76 148.183V96.4791C188.76 96.2512 188.699 96.0275 188.581 95.8319C188.464 95.6363 188.296 95.4761 188.095 95.3685C187.894 95.2609 187.668 95.2098 187.44 95.2207C187.212 95.2316 186.992 95.3041 186.802 95.4304ZM143.937 138.558L178.296 113.707V138.558H143.937Z" fill="#FF9E03"/>
<path d="M187.92 149.863H113.612C113.161 149.863 112.722 149.718 112.36 149.449C111.998 149.18 111.732 148.802 111.602 148.371C111.471 147.939 111.483 147.477 111.635 147.053C111.788 146.629 112.073 146.265 112.448 146.015L186.323 94.7404C186.328 94.7372 186.332 94.7341 186.337 94.7311C186.653 94.5206 187.02 94.3997 187.4 94.3816C187.78 94.3634 188.157 94.4485 188.492 94.6279C188.827 94.8074 189.107 95.0743 189.302 95.4003C189.497 95.7263 189.6 96.0992 189.6 96.4792V148.183C189.6 148.628 189.423 149.055 189.108 149.37C188.793 149.685 188.366 149.862 187.92 149.863ZM187.273 96.1262L113.392 147.404C113.311 147.451 113.249 147.524 113.216 147.612C113.182 147.699 113.18 147.795 113.21 147.884C113.233 147.972 113.285 148.05 113.358 148.104C113.431 148.158 113.521 148.186 113.612 148.183H187.92V96.4792C187.92 96.4037 187.9 96.3297 187.862 96.2648C187.823 96.1999 187.768 96.1466 187.701 96.1105C187.635 96.0744 187.561 96.0568 187.485 96.0595C187.41 96.0623 187.336 96.0853 187.273 96.1262ZM178.296 139.398H143.937C143.76 139.398 143.587 139.342 143.443 139.237C143.299 139.133 143.193 138.986 143.138 138.817C143.083 138.648 143.083 138.466 143.139 138.297C143.194 138.128 143.301 137.981 143.445 137.877L177.804 113.026C177.929 112.936 178.077 112.881 178.231 112.869C178.386 112.858 178.54 112.889 178.678 112.959C178.816 113.029 178.931 113.136 179.012 113.268C179.093 113.4 179.136 113.552 179.136 113.707V138.558C179.136 138.781 179.047 138.994 178.89 139.152C178.732 139.309 178.518 139.398 178.296 139.398ZM146.532 137.718H177.456V115.351L146.532 137.718Z" fill="#340600"/>
<path d="M184.648 145.505H184.018V148.984H184.648V145.505Z" fill="#340600"/>
<path d="M175.198 145.505H174.568V148.984H175.198V145.505Z" fill="#340600"/>
<path d="M177.683 147.168H177.053V148.984H177.683V147.168Z" fill="#340600"/>
<path d="M182.233 147.168H181.603V148.984H182.233V147.168Z" fill="#340600"/>
<path d="M179.958 146.459H179.328V148.984H179.958V146.459Z" fill="#340600"/>
<path d="M165.748 145.505H165.118V148.984H165.748V145.505Z" fill="#340600"/>
<path d="M168.233 147.168H167.603V148.984H168.233V147.168Z" fill="#340600"/>
<path d="M172.783 147.168H172.153V148.984H172.783V147.168Z" fill="#340600"/>
<path d="M170.508 146.459H169.878V148.984H170.508V146.459Z" fill="#340600"/>
<path d="M156.298 145.505H155.668V148.984H156.298V145.505Z" fill="#340600"/>
<path d="M158.783 147.168H158.153V148.984H158.783V147.168Z" fill="#340600"/>
<path d="M163.333 147.168H162.703V148.984H163.333V147.168Z" fill="#340600"/>
<path d="M161.058 146.459H160.428V148.984H161.058V146.459Z" fill="#340600"/>
<path d="M146.848 145.505H146.218V148.984H146.848V145.505Z" fill="#340600"/>
<path d="M149.333 147.168H148.703V148.984H149.333V147.168Z" fill="#340600"/>
<path d="M153.883 147.168H153.253V148.984H153.883V147.168Z" fill="#340600"/>
<path d="M151.608 146.459H150.978V148.984H151.608V146.459Z" fill="#340600"/>
<path d="M137.398 145.505H136.768V148.984H137.398V145.505Z" fill="#340600"/>
<path d="M139.883 147.168H139.253V148.984H139.883V147.168Z" fill="#340600"/>
<path d="M144.433 147.168H143.803V148.984H144.433V147.168Z" fill="#340600"/>
<path d="M142.158 146.459H141.528V148.984H142.158V146.459Z" fill="#340600"/>
<path d="M127.948 145.505H127.318V148.984H127.948V145.505Z" fill="#340600"/>
<path d="M130.433 147.168H129.803V148.984H130.433V147.168Z" fill="#340600"/>
<path d="M134.983 147.168H134.353V148.984H134.983V147.168Z" fill="#340600"/>
<path d="M132.708 146.459H132.078V148.984H132.708V146.459Z" fill="#340600"/>
<path d="M118.498 145.505H117.868V148.984H118.498V145.505Z" fill="#340600"/>
<path d="M120.983 147.168H120.353V148.984H120.983V147.168Z" fill="#340600"/>
<path d="M125.533 147.168H124.903V148.984H125.533V147.168Z" fill="#340600"/>
<path d="M123.258 146.459H122.628V148.984H123.258V146.459Z" fill="#340600"/>
<path d="M188.573 106.608H185.094V107.238H188.573V106.608Z" fill="#340600"/>
<path d="M188.573 104.123H186.756V104.753H188.573V104.123Z" fill="#340600"/>
<path d="M188.573 99.5732H186.756V100.203H188.573V99.5732Z" fill="#340600"/>
<path d="M188.572 101.848H186.048V102.478H188.572V101.848Z" fill="#340600"/>
<path d="M188.573 116.058H185.094V116.688H188.573V116.058Z" fill="#340600"/>
<path d="M188.573 113.573H186.756V114.203H188.573V113.573Z" fill="#340600"/>
<path d="M188.573 109.023H186.756V109.653H188.573V109.023Z" fill="#340600"/>
<path d="M188.572 111.298H186.048V111.928H188.572V111.298Z" fill="#340600"/>
<path d="M188.573 125.508H185.094V126.138H188.573V125.508Z" fill="#340600"/>
<path d="M188.573 123.023H186.756V123.653H188.573V123.023Z" fill="#340600"/>
<path d="M188.573 118.473H186.756V119.103H188.573V118.473Z" fill="#340600"/>
<path d="M188.572 120.748H186.048V121.378H188.572V120.748Z" fill="#340600"/>
<path d="M188.573 134.958H185.094V135.588H188.573V134.958Z" fill="#340600"/>
<path d="M188.573 132.473H186.756V133.103H188.573V132.473Z" fill="#340600"/>
<path d="M188.573 127.923H186.756V128.553H188.573V127.923Z" fill="#340600"/>
<path d="M188.572 130.198H186.048V130.828H188.572V130.198Z" fill="#340600"/>
<path d="M188.573 144.408H185.094V145.038H188.573V144.408Z" fill="#340600"/>
<path d="M188.573 141.923H186.756V142.553H188.573V141.923Z" fill="#340600"/>
<path d="M188.573 137.373H186.756V138.003H188.573V137.373Z" fill="#340600"/>
<path d="M188.572 139.648H186.048V140.278H188.572V139.648Z" fill="#340600"/>
<path d="M112.44 117.48H82.794C81.5531 117.48 80.5472 118.486 80.5472 119.727V131.4C80.5472 132.64 81.5531 133.646 82.794 133.646H112.44C113.681 133.646 114.687 132.64 114.687 131.4V119.727C114.687 118.486 113.681 117.48 112.44 117.48Z" fill="#CB0000" stroke="#CB0000" stroke-width="8" stroke-linecap="round" stroke-linejoin="round"/>
<path d="M105.803 115.918H85.9163C85.279 115.918 84.7623 116.435 84.7623 117.072V133.804C84.7623 134.442 85.279 134.958 85.9163 134.958H105.803C106.44 134.958 106.957 134.442 106.957 133.804V117.072C106.957 116.435 106.44 115.918 105.803 115.918Z" fill="#CB0000" stroke="#CB0000" stroke-width="8" stroke-linecap="round" stroke-linejoin="round"/>
<path d="M110.55 115.38H80.904C79.6631 115.38 78.6572 116.386 78.6572 117.627V129.3C78.6572 130.541 79.6631 131.547 80.904 131.547H110.55C111.791 131.547 112.797 130.541 112.797 129.3V117.627C112.797 116.386 111.791 115.38 110.55 115.38Z" fill="white"/>
<path d="M104.92 115.38H83.0699C81.829 115.38 80.8231 116.386 80.8231 117.627V129.3C80.8231 130.541 81.829 131.547 83.0699 131.547H104.92C106.161 131.547 107.167 130.541 107.167 129.3V117.627C107.167 116.386 106.161 115.38 104.92 115.38Z" fill="#BFBFBF"/>
<path d="M110.551 132.386H80.904C80.0855 132.385 79.3008 132.06 78.7221 131.481C78.1434 130.902 77.8179 130.118 77.817 129.299V117.626C77.8178 116.808 78.1433 116.023 78.722 115.444C79.3008 114.866 80.0855 114.54 80.904 114.539H110.551C111.369 114.54 112.154 114.866 112.732 115.444C113.311 116.023 113.637 116.808 113.638 117.626V129.3C113.637 130.118 113.311 130.903 112.732 131.481C112.154 132.06 111.369 132.385 110.551 132.386ZM80.904 116.22C80.5309 116.22 80.1732 116.368 79.9094 116.632C79.6456 116.896 79.4973 117.254 79.497 117.627V129.3C79.4973 129.673 79.6456 130.031 79.9094 130.295C80.1732 130.558 80.5309 130.707 80.904 130.707H110.551C110.924 130.707 111.281 130.558 111.545 130.295C111.809 130.031 111.957 129.673 111.958 129.3V117.626C111.957 117.253 111.809 116.896 111.545 116.632C111.281 116.368 110.924 116.22 110.551 116.219L80.904 116.22Z" fill="#340600"/>
<path d="M103.913 113.818H84.0263C83.389 113.818 82.8723 114.335 82.8723 114.972V131.704C82.8723 132.342 83.389 132.858 84.0263 132.858H103.913C104.55 132.858 105.067 132.342 105.067 131.704V114.972C105.067 114.335 104.55 113.818 103.913 113.818Z" fill="#06A0FF"/>
<g style="mix-blend-mode:multiply" opacity="0.27">
<path d="M103.913 130.27H84.0263C83.389 130.27 82.8723 130.787 82.8723 131.424V131.705C82.8723 132.342 83.389 132.858 84.0263 132.858H103.913C104.55 132.858 105.067 132.342 105.067 131.705V131.424C105.067 130.787 104.55 130.27 103.913 130.27Z" fill="#06A0FF"/>
</g>
<g style="mix-blend-mode:screen" opacity="0.38">
<path d="M103.913 114.086H84.0263C83.389 114.086 82.8723 114.602 82.8723 115.24V115.52C82.8723 116.158 83.389 116.674 84.0263 116.674H103.913C104.55 116.674 105.067 116.158 105.067 115.52V115.24C105.067 114.602 104.55 114.086 103.913 114.086Z" fill="#06A0FF"/>
</g>
<path d="M103.912 133.698H84.0254C83.4964 133.698 82.9892 133.488 82.6151 133.114C82.2411 132.74 82.0308 132.232 82.0304 131.703V114.972C82.0308 114.443 82.2411 113.936 82.6151 113.562C82.9892 113.188 83.4964 112.978 84.0254 112.977H103.912C104.441 112.978 104.948 113.188 105.322 113.562C105.696 113.936 105.906 114.443 105.906 114.972V131.704C105.906 132.233 105.695 132.74 105.322 133.114C104.948 133.488 104.441 133.698 103.912 133.698ZM84.0254 114.658C83.9419 114.658 83.8617 114.692 83.8027 114.751C83.7436 114.81 83.7104 114.89 83.7104 114.973V131.705C83.7104 131.789 83.7436 131.869 83.8027 131.928C83.8617 131.987 83.9419 132.02 84.0254 132.02H103.912C103.996 132.02 104.076 131.987 104.134 131.928C104.193 131.869 104.226 131.789 104.226 131.705V114.972C104.226 114.889 104.193 114.809 104.134 114.75C104.076 114.691 103.996 114.658 103.912 114.657L84.0254 114.658Z" fill="#340600"/>
<g opacity="0.58">
<path opacity="0.58" d="M98.9069 120.61H87.36C87.1372 120.61 86.9236 120.521 86.766 120.364C86.6085 120.206 86.52 119.993 86.52 119.77C86.52 119.547 86.6085 119.333 86.766 119.176C86.9236 119.018 87.1372 118.93 87.36 118.93H98.9069C99.1296 118.93 99.3433 119.018 99.5008 119.176C99.6584 119.333 99.7469 119.547 99.7469 119.77C99.7469 119.993 99.6584 120.206 99.5008 120.364C99.3433 120.521 99.1296 120.61 98.9069 120.61Z" fill="#340600"/>
</g>
<g opacity="0.58">
<path opacity="0.58" d="M92.19 124.303H87.36C87.1372 124.303 86.9236 124.215 86.766 124.057C86.6085 123.899 86.52 123.686 86.52 123.463C86.52 123.24 86.6085 123.027 86.766 122.869C86.9236 122.712 87.1372 122.623 87.36 122.623H92.19C92.4128 122.623 92.6264 122.712 92.784 122.869C92.9415 123.027 93.03 123.24 93.03 123.463C93.03 123.686 92.9415 123.899 92.784 124.057C92.6264 124.215 92.4128 124.303 92.19 124.303Z" fill="#340600"/>
</g>
</svg>
