<svg width="281" height="281" viewBox="0 0 281 281" fill="none" xmlns="http://www.w3.org/2000/svg">
<g opacity="0.15">
<path opacity="0.15" d="M233.511 211.234H47.489C47.2655 211.234 47.0511 211.146 46.893 210.987C46.7349 210.829 46.646 210.615 46.646 210.391C46.646 210.168 46.7349 209.953 46.893 209.795C47.0511 209.637 47.2655 209.548 47.489 209.548H233.511C233.735 209.548 233.949 209.637 234.107 209.795C234.265 209.953 234.354 210.168 234.354 210.391C234.354 210.615 234.265 210.829 234.107 210.987C233.949 211.146 233.735 211.234 233.511 211.234Z" fill="#474747"/>
<path opacity="0.15" d="M205.839 211.234C205.616 211.234 205.401 211.146 205.243 210.987C205.085 210.829 204.996 210.615 204.996 210.391V118.982C204.996 118.758 205.085 118.544 205.243 118.386C205.401 118.228 205.616 118.139 205.839 118.139C206.063 118.139 206.277 118.228 206.435 118.386C206.593 118.544 206.682 118.758 206.682 118.982V210.391C206.682 210.615 206.593 210.829 206.435 210.987C206.277 211.146 206.063 211.234 205.839 211.234Z" fill="#474747"/>
<path opacity="0.15" d="M205.839 160.461C198.105 160.461 192.603 157.25 189.485 150.918C181.335 134.354 192.457 100.651 197.846 93.6522C200.143 90.6694 203.131 88.8884 205.839 88.8884C208.548 88.8884 211.536 90.6694 213.832 93.6522C219.22 100.651 230.343 134.355 222.192 150.918C219.075 157.25 213.573 160.461 205.839 160.461ZM205.839 90.5744C203.65 90.5744 201.162 92.1095 199.182 94.6807C196.677 97.9347 192.657 107.878 190.267 118.885C187.373 132.219 187.632 143.332 190.998 150.173C193.808 155.881 198.8 158.775 205.838 158.775C212.876 158.775 217.869 155.881 220.678 150.173C224.045 143.331 224.305 132.219 221.41 118.885C219.02 107.878 215 97.9349 212.495 94.6807C210.517 92.1095 208.028 90.5744 205.839 90.5744Z" fill="#474747"/>
<path opacity="0.15" d="M205.839 133.884C205.672 133.884 205.509 133.835 205.371 133.742C205.232 133.649 205.124 133.518 205.06 133.364C204.997 133.21 204.98 133.04 205.012 132.877C205.045 132.713 205.125 132.563 205.243 132.445L212.325 125.364C212.484 125.21 212.696 125.125 212.917 125.127C213.139 125.129 213.35 125.218 213.506 125.374C213.663 125.53 213.751 125.742 213.753 125.963C213.755 126.184 213.67 126.397 213.517 126.556L206.435 133.637C206.357 133.716 206.264 133.778 206.162 133.82C206.06 133.862 205.95 133.884 205.839 133.884Z" fill="#474747"/>
<path opacity="0.15" d="M205.839 150.382C205.728 150.382 205.619 150.36 205.517 150.318C205.414 150.275 205.321 150.213 205.243 150.135L195.611 140.502C195.457 140.343 195.372 140.13 195.374 139.909C195.376 139.688 195.465 139.477 195.621 139.321C195.777 139.164 195.989 139.076 196.21 139.074C196.431 139.072 196.644 139.157 196.803 139.31L206.435 148.943C206.553 149.061 206.633 149.211 206.666 149.374C206.698 149.538 206.682 149.707 206.618 149.861C206.554 150.015 206.446 150.147 206.307 150.24C206.169 150.332 206.006 150.382 205.839 150.382Z" fill="#474747"/>
<path opacity="0.15" d="M229.201 170.415C236.865 170.415 243.079 164.201 243.079 156.537C243.079 148.872 236.865 142.659 229.201 142.659C221.536 142.659 215.323 148.872 215.323 156.537C215.323 164.201 221.536 170.415 229.201 170.415Z" fill="white"/>
<path opacity="0.15" d="M229.201 171.257C226.29 171.258 223.443 170.394 221.022 168.777C218.602 167.159 216.715 164.86 215.6 162.17C214.486 159.48 214.195 156.52 214.763 153.665C215.331 150.809 216.733 148.186 218.792 146.127C220.85 144.068 223.473 142.666 226.329 142.098C229.185 141.53 232.145 141.822 234.834 142.936C237.524 144.05 239.824 145.937 241.441 148.358C243.059 150.779 243.922 153.625 243.922 156.537C243.917 160.44 242.365 164.181 239.605 166.941C236.846 169.701 233.104 171.253 229.201 171.257ZM229.201 143.502C226.623 143.502 224.103 144.266 221.959 145.698C219.816 147.131 218.145 149.166 217.158 151.548C216.172 153.93 215.913 156.551 216.416 159.08C216.919 161.608 218.161 163.931 219.984 165.754C221.807 167.577 224.129 168.818 226.658 169.321C229.186 169.824 231.807 169.566 234.189 168.58C236.571 167.593 238.607 165.922 240.039 163.779C241.471 161.635 242.236 159.115 242.236 156.537C242.232 153.081 240.857 149.768 238.414 147.324C235.97 144.88 232.657 143.506 229.201 143.502Z" fill="#474747"/>
<path opacity="0.15" d="M205.839 180.76C205.672 180.76 205.509 180.711 205.371 180.618C205.232 180.525 205.124 180.394 205.06 180.24C204.997 180.086 204.98 179.916 205.012 179.753C205.045 179.589 205.125 179.439 205.243 179.321L230.917 153.648C231.076 153.494 231.289 153.409 231.51 153.411C231.731 153.413 231.942 153.502 232.098 153.658C232.255 153.814 232.343 154.026 232.345 154.247C232.347 154.468 232.262 154.681 232.109 154.84L206.435 180.514C206.357 180.593 206.264 180.654 206.162 180.697C206.059 180.739 205.95 180.76 205.839 180.76Z" fill="#474747"/>
<path opacity="0.15" d="M232.056 165.53H221.069C220.845 165.53 220.631 165.441 220.473 165.283C220.315 165.125 220.226 164.911 220.226 164.687C220.226 164.463 220.315 164.249 220.473 164.091C220.631 163.933 220.845 163.844 221.069 163.844H232.056C232.28 163.844 232.494 163.933 232.652 164.091C232.81 164.249 232.899 164.463 232.899 164.687C232.899 164.911 232.81 165.125 232.652 165.283C232.494 165.441 232.28 165.53 232.056 165.53Z" fill="#474747"/>
<path opacity="0.15" d="M226.563 160.037C226.339 160.037 226.125 159.948 225.967 159.79C225.809 159.632 225.72 159.417 225.72 159.194V154.244C225.72 154.02 225.809 153.806 225.967 153.648C226.125 153.49 226.339 153.401 226.563 153.401C226.786 153.401 227.001 153.49 227.159 153.648C227.317 153.806 227.406 154.02 227.406 154.244V159.194C227.406 159.417 227.317 159.632 227.159 159.79C227.001 159.948 226.786 160.037 226.563 160.037Z" fill="#474747"/>
<path opacity="0.15" d="M205.839 197.473C205.729 197.473 205.619 197.451 205.517 197.409C205.414 197.367 205.321 197.304 205.243 197.226L182.184 174.167C182.104 174.089 182.04 173.996 181.995 173.893C181.951 173.791 181.928 173.68 181.927 173.568C181.926 173.456 181.947 173.345 181.99 173.242C182.032 173.138 182.095 173.044 182.174 172.965C182.253 172.886 182.347 172.823 182.451 172.781C182.554 172.738 182.665 172.717 182.777 172.718C182.889 172.719 183 172.742 183.103 172.786C183.206 172.83 183.299 172.895 183.376 172.975L206.435 196.034C206.553 196.152 206.633 196.302 206.666 196.466C206.698 196.629 206.682 196.799 206.618 196.953C206.554 197.107 206.446 197.238 206.308 197.331C206.169 197.423 206.006 197.473 205.839 197.473Z" fill="#474747"/>
<path opacity="0.15" d="M189.844 190.746C188.487 190.737 187.14 190.531 185.843 190.134C182.042 188.998 178.457 186.397 175.75 182.808C170.104 175.324 170.07 165.795 175.675 161.567C181.28 157.339 190.433 159.989 196.079 167.473C201.725 174.958 201.759 184.487 196.154 188.715C194.331 190.068 192.113 190.782 189.844 190.746ZM182.007 161.223C180.098 161.186 178.229 161.78 176.691 162.913C171.83 166.581 172.011 175.05 177.097 181.793C179.59 185.097 182.867 187.485 186.327 188.518C189.695 189.524 192.824 189.116 195.14 187.369C200.001 183.701 199.82 175.231 194.734 168.488C191.238 163.854 186.319 161.223 182.007 161.223Z" fill="#474747"/>
<path opacity="0.15" d="M194.394 186.028C194.171 186.028 193.956 185.939 193.798 185.781C193.64 185.623 193.551 185.408 193.551 185.185V177.743C193.551 177.519 193.64 177.305 193.798 177.147C193.956 176.989 194.171 176.9 194.394 176.9C194.618 176.9 194.832 176.989 194.99 177.147C195.148 177.305 195.237 177.519 195.237 177.743V185.185C195.237 185.408 195.148 185.623 194.99 185.781C194.832 185.939 194.618 186.028 194.394 186.028Z" fill="#474747"/>
<path opacity="0.15" d="M188.487 180.121H182.78C182.557 180.121 182.342 180.032 182.184 179.874C182.026 179.716 181.937 179.501 181.937 179.278C181.937 179.054 182.026 178.84 182.184 178.682C182.342 178.524 182.557 178.435 182.78 178.435H188.487C188.711 178.435 188.925 178.524 189.084 178.682C189.242 178.84 189.33 179.054 189.33 179.278C189.33 179.501 189.242 179.716 189.084 179.874C188.925 180.032 188.711 180.121 188.487 180.121Z" fill="#474747"/>
<path opacity="0.15" d="M73.2497 210.216H66.9834C66.7598 210.216 66.5454 210.127 66.3873 209.969C66.2292 209.811 66.1404 209.597 66.1404 209.373V193.869C66.1404 193.645 66.2292 193.431 66.3873 193.273C66.5454 193.115 66.7598 193.026 66.9834 193.026H73.2497C73.4733 193.026 73.6877 193.115 73.8458 193.273C74.0039 193.431 74.0927 193.645 74.0927 193.869V209.373C74.0927 209.597 74.0039 209.811 73.8458 209.969C73.6877 210.127 73.4733 210.216 73.2497 210.216ZM67.8264 208.53H72.4067V194.712H67.8264V208.53Z" fill="#474747"/>
<path opacity="0.15" d="M138.048 210.216H131.782C131.559 210.216 131.344 210.127 131.186 209.969C131.028 209.811 130.939 209.597 130.939 209.373V193.869C130.939 193.645 131.028 193.431 131.186 193.273C131.344 193.115 131.559 193.026 131.782 193.026H138.048C138.272 193.026 138.486 193.115 138.645 193.273C138.803 193.431 138.891 193.645 138.891 193.869V209.373C138.891 209.597 138.803 209.811 138.645 209.969C138.486 210.127 138.272 210.216 138.048 210.216ZM132.625 208.53H137.205V194.712H132.625V208.53Z" fill="#474747"/>
<path opacity="0.15" d="M75.4092 187.639H71.0219C70.7983 187.639 70.5839 187.55 70.4258 187.392C70.2677 187.234 70.1789 187.019 70.1789 186.796V153.553C70.1789 153.33 70.2677 153.115 70.4258 152.957C70.5839 152.799 70.7983 152.71 71.0219 152.71H75.4092C75.6328 152.71 75.8472 152.799 76.0053 152.957C76.1634 153.115 76.2522 153.33 76.2522 153.553V186.796C76.2522 187.019 76.1634 187.234 76.0053 187.392C75.8472 187.55 75.6328 187.639 75.4092 187.639ZM71.8649 185.953H74.5662V154.396H71.8649V185.953Z" fill="#474747"/>
<path opacity="0.15" d="M134.009 187.639H129.621C129.398 187.639 129.183 187.55 129.025 187.392C128.867 187.234 128.778 187.019 128.778 186.796V153.553C128.778 153.33 128.867 153.115 129.025 152.957C129.183 152.799 129.398 152.71 129.621 152.71H134.009C134.232 152.71 134.447 152.799 134.605 152.957C134.763 153.115 134.852 153.33 134.852 153.553V186.796C134.852 187.019 134.763 187.234 134.605 187.392C134.447 187.55 134.232 187.639 134.009 187.639ZM130.464 185.953H133.166V154.396H130.464V185.953Z" fill="#474747"/>
<path opacity="0.15" d="M144.449 158.633H56.7069V168.034H144.449V158.633Z" fill="white"/>
<path opacity="0.15" d="M144.45 168.877H56.7058C56.4823 168.877 56.2678 168.789 56.1097 168.63C55.9517 168.472 55.8628 168.258 55.8628 168.034V158.633C55.8628 158.41 55.9517 158.195 56.1097 158.037C56.2678 157.879 56.4823 157.79 56.7058 157.79H144.45C144.673 157.79 144.888 157.879 145.046 158.037C145.204 158.195 145.293 158.41 145.293 158.633V168.034C145.293 168.258 145.204 168.472 145.046 168.63C144.888 168.789 144.673 168.877 144.45 168.877ZM57.55 167.191H143.607V159.476H57.5488L57.55 167.191Z" fill="#474747"/>
<path opacity="0.15" d="M144.449 168.034H56.7069V177.435H144.449V168.034Z" fill="white"/>
<path opacity="0.15" d="M144.45 178.278H56.7058C56.4823 178.278 56.2678 178.189 56.1097 178.031C55.9517 177.873 55.8628 177.659 55.8628 177.435V168.034C55.8628 167.811 55.9517 167.596 56.1097 167.438C56.2678 167.28 56.4823 167.191 56.7058 167.191H144.45C144.673 167.191 144.888 167.28 145.046 167.438C145.204 167.596 145.293 167.811 145.293 168.034V177.435C145.293 177.659 145.204 177.873 145.046 178.031C144.888 178.189 144.673 178.278 144.45 178.278ZM57.55 176.592H143.607V168.877H57.5488L57.55 176.592Z" fill="#474747"/>
<path opacity="0.15" d="M131.815 165.776C131.4 165.776 130.995 165.653 130.65 165.422C130.306 165.192 130.037 164.865 129.878 164.481C129.72 164.098 129.678 163.677 129.759 163.27C129.84 162.863 130.04 162.49 130.333 162.197C130.626 161.903 130.999 161.704 131.406 161.623C131.813 161.542 132.234 161.583 132.617 161.742C133 161.901 133.328 162.17 133.558 162.514C133.789 162.859 133.912 163.264 133.912 163.679C133.911 164.235 133.69 164.768 133.297 165.161C132.904 165.554 132.371 165.775 131.815 165.776ZM131.815 163.269C131.734 163.269 131.655 163.293 131.587 163.338C131.52 163.383 131.467 163.447 131.436 163.522C131.405 163.597 131.397 163.68 131.412 163.759C131.428 163.839 131.467 163.912 131.525 163.969C131.582 164.027 131.655 164.066 131.735 164.082C131.815 164.098 131.897 164.089 131.972 164.058C132.047 164.027 132.111 163.975 132.156 163.907C132.202 163.84 132.226 163.76 132.226 163.679C132.225 163.57 132.182 163.466 132.105 163.389C132.028 163.312 131.924 163.269 131.815 163.269Z" fill="#474747"/>
<path opacity="0.15" d="M131.815 174.831C131.4 174.831 130.995 174.708 130.65 174.478C130.306 174.248 130.037 173.92 129.878 173.537C129.72 173.154 129.678 172.732 129.759 172.326C129.84 171.919 130.04 171.545 130.333 171.252C130.626 170.959 130.999 170.759 131.406 170.678C131.813 170.598 132.234 170.639 132.617 170.798C133 170.956 133.328 171.225 133.558 171.57C133.789 171.915 133.912 172.32 133.912 172.735C133.911 173.291 133.69 173.824 133.297 174.217C132.904 174.61 132.371 174.831 131.815 174.831ZM131.815 172.324C131.734 172.324 131.655 172.348 131.587 172.393C131.52 172.439 131.467 172.503 131.436 172.578C131.405 172.653 131.397 172.735 131.412 172.815C131.428 172.894 131.467 172.968 131.525 173.025C131.582 173.082 131.655 173.122 131.735 173.137C131.815 173.153 131.897 173.145 131.972 173.114C132.047 173.083 132.111 173.03 132.156 172.963C132.202 172.895 132.226 172.816 132.226 172.735C132.226 172.626 132.182 172.522 132.105 172.445C132.028 172.368 131.924 172.324 131.815 172.324Z" fill="#474747"/>
<path opacity="0.15" d="M73.2157 165.776C72.801 165.776 72.3957 165.653 72.0509 165.422C71.7061 165.192 71.4374 164.865 71.2787 164.481C71.1201 164.098 71.0785 163.677 71.1594 163.27C71.2403 162.863 71.44 162.49 71.7332 162.197C72.0264 161.903 72.4 161.704 72.8067 161.623C73.2134 161.542 73.6349 161.583 74.018 161.742C74.4011 161.901 74.7285 162.17 74.9589 162.514C75.1893 162.859 75.3122 163.264 75.3122 163.679C75.3116 164.235 75.0906 164.768 74.6975 165.161C74.3045 165.554 73.7715 165.775 73.2157 165.776ZM73.2157 163.269C73.1345 163.269 73.0551 163.293 72.9876 163.338C72.9201 163.383 72.8675 163.447 72.8364 163.522C72.8053 163.597 72.7972 163.68 72.813 163.759C72.8289 163.839 72.868 163.912 72.9254 163.969C72.9828 164.027 73.056 164.066 73.1356 164.082C73.2152 164.098 73.2978 164.089 73.3728 164.058C73.4478 164.027 73.5119 163.975 73.557 163.907C73.6021 163.84 73.6262 163.76 73.6262 163.679C73.6261 163.57 73.5828 163.466 73.5058 163.389C73.4289 163.312 73.3245 163.269 73.2157 163.269Z" fill="#474747"/>
<path opacity="0.15" d="M73.2157 174.831C72.801 174.831 72.3957 174.708 72.0509 174.478C71.7061 174.248 71.4374 173.92 71.2787 173.537C71.1201 173.154 71.0785 172.732 71.1594 172.326C71.2403 171.919 71.44 171.545 71.7332 171.252C72.0264 170.959 72.4 170.759 72.8067 170.678C73.2134 170.598 73.6349 170.639 74.018 170.798C74.4011 170.956 74.7285 171.225 74.9589 171.57C75.1893 171.915 75.3122 172.32 75.3122 172.735C75.3116 173.291 75.0906 173.824 74.6975 174.217C74.3045 174.61 73.7715 174.831 73.2157 174.831ZM73.2157 172.324C73.1345 172.324 73.0551 172.348 72.9876 172.393C72.9201 172.439 72.8675 172.503 72.8364 172.578C72.8053 172.653 72.7972 172.735 72.813 172.815C72.8289 172.894 72.868 172.968 72.9254 173.025C72.9828 173.082 73.056 173.122 73.1356 173.137C73.2152 173.153 73.2978 173.145 73.3728 173.114C73.4478 173.083 73.5119 173.03 73.557 172.963C73.6021 172.895 73.6262 172.816 73.6262 172.735C73.6262 172.626 73.5829 172.522 73.5059 172.445C73.4289 172.368 73.3245 172.324 73.2157 172.324Z" fill="#474747"/>
<path opacity="0.15" d="M151.537 194.712H52.1994C51.9758 194.712 51.7614 194.623 51.6033 194.465C51.4452 194.307 51.3564 194.093 51.3564 193.869V186.796C51.3564 186.572 51.4452 186.358 51.6033 186.2C51.7614 186.042 51.9758 185.953 52.1994 185.953H151.537C151.76 185.953 151.975 186.042 152.133 186.2C152.291 186.358 152.38 186.572 152.38 186.796V193.869C152.38 194.093 152.291 194.307 152.133 194.465C151.975 194.623 151.76 194.712 151.537 194.712ZM53.0424 193.026H150.694V187.639H53.0424V193.026Z" fill="#474747"/>
</g>
<path d="M118.582 200.246L119.694 208.289C119.861 209.492 120.987 210.391 122.327 210.391H158.344C159.684 210.391 160.81 209.492 160.976 208.289L162.088 200.246H118.582Z" fill="#D6D6D4"/>
<path d="M157.568 210.391L160.189 209.714L162.088 200.246H118.582L119.009 203.337H154.977C160.111 203.337 157.568 210.391 157.568 210.391Z" fill="#BABABA"/>
<path d="M166.448 197.525L176.271 118.983H104.397L114.221 197.525C114.322 198.283 114.696 198.978 115.274 199.48C115.852 199.981 116.593 200.253 117.358 200.246H163.311C164.076 200.253 164.817 199.981 165.395 199.48C165.973 198.978 166.348 198.283 166.448 197.525Z" fill="#5EB173"/>
<path d="M166.448 197.525L176.271 118.983H104.397L114.221 197.525C114.322 198.283 114.696 198.978 115.274 199.48C115.852 199.981 116.593 200.253 117.358 200.246H163.311C164.076 200.253 164.817 199.981 165.395 199.48C165.973 198.978 166.348 198.283 166.448 197.525Z" fill="#5EB173"/>
<g style="mix-blend-mode:multiply" opacity="0.34">
<path d="M138.336 183.267C137.817 183.258 137.316 183.075 136.913 182.747C136.587 182.446 136.328 182.08 136.151 181.673C135.975 181.266 135.886 180.827 135.89 180.383C135.855 179.795 135.943 179.206 136.148 178.654C136.354 178.102 136.672 177.598 137.082 177.176C137.296 176.971 137.946 176.346 138.792 176.346C138.88 176.346 138.968 176.353 139.055 176.367C139.359 176.431 139.645 176.558 139.897 176.74C140.148 176.921 140.359 177.153 140.516 177.421C140.82 177.9 141.026 178.435 141.121 178.995C141.216 179.555 141.198 180.128 141.069 180.681C140.757 181.905 139.715 183.227 138.4 183.266L138.336 183.267ZM138.614 179.401C138.37 179.985 138.426 180.365 138.496 180.429C138.504 180.435 138.512 180.441 138.521 180.446C138.583 180.37 138.631 180.283 138.66 180.19C138.734 179.929 138.718 179.651 138.613 179.401H138.614Z" fill="#60A06C"/>
</g>
<g style="mix-blend-mode:multiply" opacity="0.34">
<path d="M141.601 186.749C141.239 186.752 140.885 186.647 140.583 186.447C139.953 186.026 140 185.471 140.174 183.411C140.284 182.107 140.45 180.136 140.589 177.031C140.596 176.872 140.606 176.714 140.617 176.557H140.564C140.497 176.557 140.434 176.559 140.372 176.565C140.149 176.586 139.925 176.595 139.702 176.603C139.459 176.613 139.23 176.622 139.005 176.647C138.911 176.658 138.828 176.668 138.755 176.678C138.615 176.699 138.473 176.712 138.332 176.716C138.219 176.721 138.107 176.702 138.002 176.66C137.897 176.619 137.801 176.556 137.722 176.476C137.144 175.873 137.778 174.613 138.266 174.136C138.479 173.941 138.728 173.792 139 173.695C139.271 173.598 139.56 173.556 139.847 173.572C140.283 173.58 140.716 173.64 141.138 173.749C141.365 172.979 141.83 172.301 142.467 171.812C142.948 171.451 143.529 171.247 144.13 171.227C144.243 171.227 144.355 171.235 144.467 171.252C144.898 171.303 145.3 171.494 145.612 171.796C145.965 172.166 146.16 172.659 146.154 173.17C146.391 173.086 146.64 173.043 146.891 173.042C146.992 173.042 147.093 173.049 147.193 173.064C147.582 173.111 147.945 173.284 148.227 173.557C148.437 173.791 148.586 174.073 148.663 174.377C148.74 174.682 148.742 175.001 148.669 175.306L148.558 175.786C148.645 175.751 148.724 175.699 148.793 175.634C148.984 175.419 149.091 175.142 149.094 174.854L149.192 173.699L150.637 175.05L150.683 175.141C150.935 175.647 150.765 176.302 150.19 177.033C149.769 177.572 148.958 177.834 147.713 177.834C147.303 177.832 146.893 177.808 146.486 177.763C146.38 178.726 146.335 179.695 146.352 180.664C146.367 181.237 146.384 181.747 146.399 182.203C146.483 184.695 146.517 185.726 145.713 186.316C145.418 186.527 145.064 186.64 144.701 186.638C144.373 186.641 144.051 186.545 143.777 186.364C143.642 186.282 143.529 186.169 143.448 186.033C143.367 185.898 143.319 185.745 143.31 185.588C143.202 185.911 142.996 186.193 142.72 186.393C142.394 186.627 142.002 186.751 141.601 186.749ZM143.512 177.182C143.388 178.587 143.42 179.927 143.42 179.942C143.437 180.602 143.457 181.191 143.474 181.717C143.481 181.933 143.489 182.138 143.495 182.337C143.575 181.297 143.666 179.938 143.747 178.141C143.761 177.837 143.783 177.542 143.812 177.261C143.712 177.235 143.612 177.209 143.513 177.182H143.512ZM147.118 175.782C147.397 175.846 147.681 175.88 147.966 175.885C148.051 175.886 148.135 175.881 148.219 175.871L147.854 175.676C147.757 175.621 147.648 175.591 147.536 175.588C147.512 175.588 147.487 175.59 147.463 175.594C147.336 175.63 147.218 175.695 147.119 175.782H147.118ZM144.384 174.877C144.523 174.558 144.707 174.261 144.93 173.995C144.912 173.995 144.894 173.992 144.876 173.992C144.84 173.992 144.804 173.995 144.768 174.001C144.555 174.064 144.363 174.185 144.217 174.353C144.124 174.465 144.05 174.591 143.998 174.726L144.384 174.877Z" fill="#60A06C"/>
</g>
<g style="mix-blend-mode:multiply" opacity="0.34">
<path d="M147.948 183.958C147.373 183.983 146.811 183.779 146.385 183.391C145.844 182.85 145.668 181.884 145.901 180.742C146.154 179.501 146.977 177.841 148.459 177.243C148.849 177.089 149.263 177.007 149.683 177C150.174 176.984 150.655 177.148 151.035 177.461C151.343 177.75 151.565 178.12 151.676 178.528C151.787 178.936 151.783 179.367 151.664 179.772C151.56 180.109 151.386 180.419 151.152 180.682C150.918 180.945 150.63 181.154 150.307 181.296C150.395 181.407 150.449 181.541 150.461 181.681C150.468 181.974 150.414 182.266 150.303 182.537C150.192 182.809 150.027 183.055 149.817 183.26C149.306 183.722 148.637 183.972 147.948 183.958ZM149.38 179.23C149.28 179.27 149.187 179.324 149.103 179.39C149.199 179.344 149.292 179.291 149.38 179.23Z" fill="#60A06C"/>
</g>
<g style="mix-blend-mode:multiply" opacity="0.34">
<path d="M152.471 184.074C151.852 184.09 151.252 183.862 150.799 183.44C150.266 182.892 150.085 181.968 150.305 180.905C150.586 179.545 151.424 178.394 152.443 177.973C152.816 177.823 153.213 177.745 153.615 177.743C153.894 177.728 154.173 177.775 154.433 177.879C154.693 177.983 154.926 178.142 155.118 178.345C155.746 179.059 155.518 180.04 155.434 180.324C155.26 180.885 154.892 181.365 154.396 181.678C154.502 181.797 154.566 181.948 154.576 182.108C154.581 182.378 154.53 182.646 154.425 182.895C154.319 183.145 154.163 183.369 153.965 183.553C153.549 183.906 153.016 184.092 152.471 184.074Z" fill="#60A06C"/>
</g>
<g style="mix-blend-mode:multiply" opacity="0.34">
<path d="M131.905 186.309C131.465 186.31 131.028 186.246 130.608 186.119C129.216 185.695 128.093 184.548 127.445 182.888C126.744 181.093 126.954 178.816 127.974 176.77C127.574 176.872 127.196 177.045 126.856 177.28C126.561 177.506 126.209 177.647 125.84 177.687C125.65 177.687 125.465 177.627 125.314 177.513C124.992 177.273 124.832 176.821 124.864 176.24C124.9 175.579 125.208 174.649 125.958 174.207C126.256 174.037 126.594 173.951 126.937 173.957C127.671 173.957 128.509 174.288 129.383 174.695C130.144 173.812 131.125 173.147 132.226 172.767C132.746 172.596 133.289 172.503 133.837 172.493C134.149 172.472 134.461 172.518 134.753 172.63C135.045 172.742 135.309 172.916 135.526 173.14C136.364 174.088 135.984 175.805 135.105 176.814C134.682 177.299 133.887 177.895 132.504 177.976C132.429 177.981 132.356 177.983 132.285 177.983C131.775 177.967 131.27 177.876 130.785 177.714C130.658 177.678 130.537 177.641 130.42 177.602C129.876 179.486 130.125 181.496 131.051 182.267C131.407 182.564 131.852 182.736 132.315 182.755C132.423 182.755 132.53 182.743 132.635 182.718C132.666 182.711 133.41 182.526 133.571 181.931C133.61 181.789 133.617 181.64 133.591 181.495C133.564 181.35 133.506 181.213 133.419 181.094C133.298 180.969 133.148 180.876 132.982 180.823C132.815 180.755 132.37 180.575 132.411 180.1C132.456 179.562 133.128 179.317 133.732 179.317C133.898 179.316 134.064 179.336 134.226 179.377C135.527 179.713 136.467 181.548 136.161 183.153C135.944 184.106 135.366 184.937 134.548 185.472C133.774 186.019 132.85 186.311 131.903 186.309L131.905 186.309ZM131.353 175.687C131.594 175.84 131.868 175.931 132.153 175.949C132.204 175.949 132.256 175.946 132.307 175.939C132.792 175.88 133.356 175.591 133.498 175.153C133.56 174.997 133.564 174.824 133.509 174.666C133.44 174.629 133.363 174.614 133.286 174.623C132.922 174.646 132.567 174.747 132.245 174.918L132.204 174.94C131.874 175.13 131.584 175.384 131.353 175.688V175.687Z" fill="#60A06C"/>
</g>
<path d="M104.397 118.983L105.17 125.16H164.956C165.494 125.16 166.027 125.274 166.517 125.496C167.008 125.717 167.446 126.041 167.803 126.444C168.159 126.848 168.426 127.323 168.585 127.837C168.744 128.352 168.791 128.894 168.725 129.429L162.492 194.053C162.376 195.259 161.868 196.394 161.047 197.284C160.226 198.175 159.136 198.772 157.943 198.986L150.905 200.245L160.914 200.252L160.916 200.245H163.311C164.076 200.253 164.817 199.98 165.395 199.479C165.973 198.978 166.348 198.282 166.448 197.524L176.271 118.983H104.397Z" fill="#60A06C"/>
<path d="M158.343 211.234H122.326C120.572 211.234 119.082 210.018 118.858 208.405L117.746 200.362C117.73 200.242 117.739 200.121 117.773 200.005C117.808 199.89 117.867 199.783 117.946 199.692C118.025 199.601 118.123 199.529 118.233 199.479C118.342 199.429 118.461 199.403 118.582 199.403H162.088C162.209 199.403 162.328 199.429 162.437 199.479C162.547 199.529 162.645 199.602 162.724 199.693C162.803 199.783 162.862 199.89 162.896 200.006C162.93 200.121 162.94 200.242 162.923 200.362L161.811 208.405C161.588 210.018 160.097 211.234 158.343 211.234ZM119.549 201.09L120.528 208.175C120.637 208.959 121.41 209.55 122.327 209.55H158.343C159.26 209.55 160.033 208.959 160.142 208.175L161.121 201.09H119.549Z" fill="#474747"/>
<path d="M163.311 201.089H117.358C116.388 201.094 115.45 200.746 114.719 200.109C113.987 199.472 113.513 198.591 113.385 197.629L103.56 119.088C103.546 118.969 103.556 118.849 103.592 118.734C103.627 118.62 103.686 118.515 103.765 118.425C103.844 118.336 103.941 118.264 104.05 118.215C104.159 118.166 104.277 118.14 104.397 118.14H176.271C176.391 118.14 176.509 118.166 176.618 118.215C176.727 118.264 176.824 118.336 176.903 118.425C176.982 118.515 177.041 118.62 177.077 118.735C177.112 118.849 177.122 118.969 177.108 119.088L167.284 197.63C167.155 198.591 166.681 199.472 165.95 200.109C165.219 200.746 164.281 201.094 163.311 201.089ZM105.352 119.826L115.058 197.42C115.134 197.974 115.41 198.481 115.834 198.846C116.257 199.211 116.799 199.409 117.358 199.403H163.311C163.87 199.409 164.412 199.211 164.836 198.846C165.259 198.481 165.535 197.974 165.612 197.42L166.448 197.525L165.612 197.42L175.317 119.826H105.352Z" fill="#474747"/>
<path d="M177.819 118.983H102.85C100.408 119.005 100.744 117.694 101.591 115.177C102.095 113.698 102.095 112.093 101.591 110.614C100.745 108.097 100.408 106.786 102.85 106.809H177.819C180.261 106.786 179.925 108.097 179.079 110.614C178.575 112.093 178.575 113.698 179.079 115.177C179.924 117.694 180.262 119.005 177.819 118.983Z" fill="#646464"/>
<path d="M179.079 110.614C179.625 108.989 179.957 107.867 179.468 107.282C179.363 107.652 179.229 108.06 179.079 108.507C178.715 109.579 178.613 110.723 178.783 111.842C178.845 111.425 178.944 111.013 179.079 110.614Z" fill="#7C7C7C"/>
<path d="M101.886 111.842C102.056 110.723 101.955 109.579 101.59 108.507C101.44 108.06 101.307 107.652 101.201 107.282C100.712 107.867 101.044 108.989 101.59 110.614C101.726 111.013 101.825 111.425 101.886 111.842Z" fill="#7C7C7C"/>
<path d="M179.468 116.402C179.199 116.724 178.684 116.884 177.819 116.876H102.85C101.985 116.884 101.47 116.723 101.201 116.402C100.713 118.116 100.842 119 102.85 118.983H177.819C179.827 119.001 179.956 118.116 179.468 116.402Z" fill="#7C7C7C"/>
<g style="mix-blend-mode:overlay">
<g style="mix-blend-mode:overlay">
<path d="M179.079 115.177C179.033 115.043 178.995 114.906 178.958 114.77C178.593 116.096 178.623 117.499 179.044 118.808C180.09 118.376 179.74 117.145 179.079 115.177Z" fill="#646464"/>
</g>
<g style="mix-blend-mode:overlay">
<path d="M101.964 113.397C102.256 113.276 103.344 110.557 105.027 110.557H176.271C178.306 110.557 178.666 114.649 178.957 114.77C178.97 114.731 179.064 110.653 179.078 110.614C179.925 108.095 180.261 106.784 177.813 106.809H102.927C100.402 106.758 100.735 108.07 101.591 110.613C101.604 110.653 101.952 113.358 101.964 113.397Z" fill="#646464"/>
</g>
<g style="mix-blend-mode:overlay">
<path d="M101.625 118.807C102.046 117.498 102.076 116.094 101.711 114.769C101.673 114.905 101.637 115.042 101.591 115.176C100.929 117.145 100.579 118.375 101.625 118.807Z" fill="#646464"/>
</g>
</g>
<path d="M102.774 119.826C102.042 119.826 101.036 119.723 100.48 118.957C99.7631 117.968 100.24 116.55 100.792 114.909C101.234 113.604 101.234 112.19 100.792 110.886C100.239 109.241 99.762 107.823 100.479 106.834C101.055 106.041 102.119 105.956 102.857 105.965H177.819C178.562 105.957 179.614 106.041 180.189 106.834C180.906 107.823 180.43 109.241 179.878 110.882C179.436 112.187 179.436 113.601 179.878 114.905C180.431 116.55 180.908 117.968 180.19 118.956C179.616 119.748 178.557 119.839 177.817 119.826H102.774V119.826ZM102.798 107.651C102.12 107.651 101.88 107.775 101.845 107.825C101.638 108.109 102.146 109.619 102.39 110.345C102.95 112 102.95 113.794 102.39 115.449C102.147 116.171 101.639 117.682 101.846 117.966C101.882 118.017 102.127 118.15 102.843 118.14H177.879C178.551 118.14 178.79 118.015 178.826 117.966C179.032 117.681 178.525 116.171 178.281 115.446C177.72 113.79 177.72 111.997 178.281 110.342C178.524 109.619 179.031 108.109 178.825 107.824C178.788 107.774 178.537 107.641 177.827 107.651H102.798Z" fill="#474747"/>
<path d="M175.643 106.808H105.026L105.717 104.344C106.82 100.414 110.577 97.6775 114.87 97.6775H165.799C170.093 97.6775 173.849 100.414 174.952 104.344L175.643 106.808Z" fill="#D6D6D4"/>
<path d="M175.643 106.808H105.026L105.717 104.344C106.82 100.414 110.577 97.6775 114.87 97.6775H165.799C170.093 97.6775 173.849 100.414 174.952 104.344L175.643 106.808Z" fill="#D6D6D4"/>
<path d="M119.845 100.587L168.032 100.573C171.516 100.573 173.663 103.082 174.621 103.39C172.921 100.836 169.114 97.678 165.799 97.678H114.87C110.577 97.678 106.82 100.414 105.717 104.345L105.026 106.809H111.152C112.628 103.56 116.023 100.587 119.845 100.587Z" fill="white"/>
<path d="M175.644 107.651H105.026C104.896 107.651 104.768 107.621 104.651 107.563C104.534 107.505 104.433 107.421 104.354 107.317C104.276 107.214 104.222 107.093 104.198 106.965C104.173 106.837 104.179 106.706 104.214 106.58L104.905 104.117C106.109 99.8293 110.206 96.8347 114.87 96.8347H165.799C170.464 96.8347 174.561 99.8293 175.764 104.117L176.455 106.58C176.49 106.706 176.496 106.837 176.472 106.965C176.447 107.093 176.394 107.214 176.315 107.317C176.237 107.421 176.135 107.505 176.019 107.563C175.902 107.621 175.774 107.651 175.644 107.651ZM106.138 105.965H174.531L174.14 104.572C173.141 101.009 169.711 98.5207 165.799 98.5207H114.87C110.958 98.5207 107.529 101.009 106.529 104.572L106.138 105.965Z" fill="#474747"/>
<path d="M146.238 92.0981H157.955C158.958 92.0981 159.919 92.4962 160.628 93.2049C161.337 93.9135 161.735 94.8747 161.735 95.877V97.6769H142.459V95.877C142.459 94.8749 142.857 93.9139 143.566 93.2053C144.275 92.4967 145.236 92.0984 146.238 92.0981Z" fill="#D6D6D4"/>
<path d="M146.238 92.0981H157.955C158.958 92.0981 159.919 92.4962 160.628 93.2049C161.337 93.9135 161.735 94.8747 161.735 95.877V97.6769H142.459V95.877C142.459 94.8749 142.857 93.9139 143.566 93.2053C144.275 92.4967 145.236 92.0984 146.238 92.0981Z" fill="#D6D6D4"/>
<path d="M142.49 97.6176C142.49 96.6624 142.87 95.7463 143.545 95.0709C144.221 94.3954 145.137 94.016 146.092 94.016H158.166C159.042 94.0164 159.887 94.3357 160.544 94.914C161.2 95.4924 161.624 96.2903 161.735 97.1584V95.6997C161.735 94.7445 161.356 93.8284 160.68 93.153C160.005 92.4776 159.089 92.0981 158.134 92.0981H146.06C145.587 92.0981 145.118 92.1912 144.681 92.3722C144.244 92.5532 143.847 92.8185 143.513 93.1529C143.178 93.4874 142.913 93.8844 142.732 94.3214C142.551 94.7584 142.458 95.2267 142.458 95.6997V97.678H142.49V97.6176Z" fill="white"/>
<path d="M138.048 163.656C135.063 163.656 129.685 161.549 127.949 155.896C127.123 153.562 126.864 151.066 127.192 148.613C127.52 146.159 128.426 143.819 129.836 141.784C131.91 138.812 134.747 137.107 137.619 137.107C138.506 137.109 139.385 137.27 140.215 137.582L140.256 137.598L140.295 137.619C140.893 137.957 141.234 138.353 141.338 138.829C141.516 139.641 140.965 140.404 140.267 141.371C138.868 143.309 136.952 145.965 138.834 150.866C141.017 156.545 141.029 161.934 139.675 163.217C139.368 163.509 138.82 163.656 138.048 163.656Z" fill="#60A06C"/>
<path d="M161.735 98.521H142.459C142.235 98.521 142.021 98.4321 141.863 98.274C141.705 98.116 141.616 97.9015 141.616 97.678V95.8796C141.617 94.6539 142.105 93.4789 142.971 92.6122C143.838 91.7455 145.013 91.258 146.239 91.2566H157.957C159.182 91.2583 160.356 91.7456 161.222 92.6117C162.089 93.4778 162.576 94.652 162.578 95.877V97.6754C162.579 97.7864 162.557 97.8962 162.515 97.9988C162.473 98.1014 162.411 98.1946 162.332 98.2732C162.254 98.3517 162.161 98.414 162.059 98.4565C161.956 98.4991 161.846 98.521 161.735 98.521ZM143.302 96.835H160.892V95.8796C160.892 95.1009 160.582 94.3543 160.031 93.8037C159.481 93.2531 158.734 92.9434 157.955 92.9426H146.238C145.459 92.9434 144.713 93.2527 144.163 93.8028C143.612 94.3529 143.302 95.0988 143.301 95.877L143.302 96.835Z" fill="#474747"/>
<path d="M145.775 163.582C145.254 163.591 144.736 163.493 144.254 163.294C143.772 163.096 143.335 162.801 142.971 162.428C142.676 162.117 142.448 161.75 142.302 161.347C142.157 160.945 142.096 160.516 142.124 160.089C142.272 157.847 141.507 155.702 140.767 153.628C140.093 151.737 139.455 149.951 139.451 148.091C139.435 141.244 144.028 139.075 144.594 138.833C144.966 138.613 145.391 138.499 145.823 138.505C147.65 138.505 149.889 140.303 151.528 143.083C152.955 145.532 153.715 148.313 153.731 151.147C153.748 153.981 153.021 156.77 151.623 159.236C150.092 161.998 147.96 163.582 145.775 163.582H145.775Z" fill="#60A06C"/>
<path d="M140.299 137.266C143.613 139.139 135.218 141.446 138.591 150.225C140.896 156.219 140.558 161.03 139.57 161.966C138.581 162.902 130.875 161.784 128.763 154.874C125.277 145.4 132.857 134.488 140.299 137.266Z" fill="#F6F9E4"/>
<path d="M145.132 138.492C145.132 138.492 140.278 140.406 140.294 147.246C140.303 151.07 143.255 154.906 142.966 159.283C142.765 162.323 147.972 164.33 151.413 158.12C157.478 147.178 148.489 136.372 145.132 138.492Z" fill="#F6F9E4"/>
<path d="M137.189 177.02C135.893 178.263 135.832 180.805 136.987 181.75C137.301 182.006 137.694 182.144 138.098 182.142C139.166 182.111 139.994 180.947 140.241 179.978C140.628 178.463 139.811 176.538 138.685 176.36C137.99 176.25 137.381 176.836 137.189 177.02ZM138.907 179.817C138.878 179.902 138.699 180.401 138.321 180.454C138.233 180.46 138.144 180.448 138.06 180.418C137.977 180.389 137.901 180.342 137.836 180.282C137.495 179.973 137.517 179.262 137.866 178.503C138.083 178.159 138.247 178.091 138.361 178.099C138.751 178.126 139.167 179.089 138.907 179.817Z" fill="#F6F9E4"/>
<path d="M140.615 185.419C140.016 185.016 140.526 184.134 140.868 176.494C140.963 174.387 141.405 172.473 142.504 171.713C142.958 171.361 143.529 171.194 144.101 171.246C144.412 171.279 144.703 171.415 144.929 171.63C145.456 172.162 145.285 172.968 145.266 173.047C145.001 172.899 144.695 172.842 144.394 172.885C144.056 172.966 143.751 173.15 143.521 173.411C142.453 174.573 142.576 179.394 142.576 179.394C142.679 183.402 142.885 184.806 142.103 185.38C141.886 185.532 141.63 185.617 141.365 185.624C141.1 185.631 140.84 185.559 140.615 185.419Z" fill="#F6F9E4"/>
<path d="M143.807 185.336C143.288 184.987 143.731 184.223 144.028 177.605C144.11 175.778 144.493 174.121 145.445 173.463C145.838 173.158 146.333 173.014 146.828 173.059C147.098 173.088 147.35 173.205 147.546 173.392C147.687 173.559 147.787 173.757 147.838 173.97C147.889 174.183 147.889 174.406 147.839 174.619C147.609 174.49 147.343 174.441 147.083 174.478C146.79 174.548 146.526 174.707 146.327 174.933C145.4 175.94 145.508 180.117 145.508 180.117C145.597 183.588 145.775 184.804 145.099 185.3C144.911 185.433 144.688 185.507 144.458 185.513C144.229 185.52 144.002 185.458 143.807 185.336Z" fill="#F6F9E4"/>
<path d="M148.55 181.65C148.411 181.69 148.265 181.701 148.121 181.683C147.977 181.664 147.839 181.616 147.714 181.542C147.124 181.115 147.311 179.618 148.065 178.766C148.17 178.647 148.837 177.917 149.414 178.12C149.513 178.149 149.604 178.204 149.675 178.28C149.746 178.356 149.795 178.45 149.818 178.551C149.853 179.016 148.872 179.564 147.985 179.629C147.609 179.655 147.233 179.599 146.88 179.467C146.62 179.83 146.661 180.052 146.691 180.142C146.873 180.68 148.077 180.635 148.24 180.627C148.345 180.622 150.452 180.493 150.842 179.064C150.932 178.761 150.937 178.439 150.858 178.134C150.779 177.828 150.618 177.55 150.393 177.328C149.67 176.714 148.544 177.142 148.391 177.204C146.409 178.002 145.483 181.412 146.504 182.433C147.098 183.027 148.484 182.947 149.145 182.298C149.595 181.856 149.707 181.154 149.579 181.076C149.455 181 149.171 181.49 148.55 181.65Z" fill="#F6F9E4"/>
<path d="M152.78 182C152.656 182.036 152.526 182.045 152.398 182.029C152.27 182.012 152.147 181.97 152.036 181.904C151.509 181.521 151.718 180.204 152.348 179.434C152.445 179.316 152.912 178.745 153.295 178.872C153.391 178.912 153.473 178.979 153.531 179.065C153.589 179.152 153.619 179.254 153.618 179.357C153.602 179.805 152.843 180.14 152.276 180.2C151.942 180.234 151.604 180.184 151.293 180.057C151.061 180.379 151.098 180.576 151.124 180.656C151.265 181.074 152.09 181.12 152.501 181.088C153.237 181.031 154.318 180.594 154.614 179.601C154.651 179.475 154.874 178.675 154.415 178.153C153.922 177.593 152.943 177.695 152.376 177.929C150.732 178.608 149.948 181.484 150.921 182.484C151.478 183.056 152.71 183.115 153.305 182.574C153.715 182.201 153.807 181.557 153.691 181.486C153.585 181.422 153.331 181.857 152.78 182Z" fill="#F6F9E4"/>
<path d="M149.372 174.339C149.357 174.763 149.19 175.167 148.9 175.477C146.966 177.337 140.267 172.126 138.378 173.975C137.969 174.375 137.61 175.277 137.847 175.525C137.956 175.637 138.143 175.585 138.662 175.527C139.119 175.475 139.581 175.486 140.039 175.442C141.158 175.337 142.866 176.009 144.643 176.385C145.09 176.48 148.622 177.202 149.467 176.124C149.574 175.988 150.125 175.284 149.898 174.83L149.372 174.339Z" fill="#F6F9E4"/>
<path d="M129.71 175.046C130.908 175.628 131.309 176.032 132.095 175.936C132.718 175.86 133.522 175.477 133.753 174.763C133.844 174.482 133.897 173.986 133.631 173.712C133.226 173.295 132.255 173.572 131.705 173.858L131.65 173.886C129.218 175.213 128.444 180.499 130.411 182.134C130.692 182.378 131.025 182.555 131.384 182.653C131.743 182.751 132.12 182.767 132.486 182.7C132.6 182.672 133.592 182.41 133.835 181.514C133.898 181.285 133.907 181.044 133.861 180.811C133.816 180.578 133.717 180.358 133.572 180.17C133.211 179.738 132.68 179.732 132.692 179.584C132.705 179.43 133.291 179.225 133.808 179.359C134.806 179.616 135.586 181.148 135.33 182.486C135.138 183.295 134.641 184 133.942 184.453C133.447 184.801 132.88 185.033 132.282 185.131C131.685 185.229 131.073 185.191 130.492 185.018C128.594 184.441 127.848 182.529 127.689 182.121C126.311 178.589 128.905 173.758 132.116 172.741C132.353 172.666 134.09 172.116 134.825 172.948C135.451 173.657 135.099 175.08 134.401 175.881C133.628 176.767 132.48 176.834 132.19 176.851C131.668 176.864 131.147 176.782 130.654 176.609C129.221 176.204 129.127 175.756 128.336 175.638C126.815 175.412 125.871 176.875 125.371 176.501C124.928 176.17 125.131 174.62 125.964 174.129C126.797 173.637 128.142 174.286 129.71 175.046Z" fill="#F6F9E4"/>
<path d="M156.154 88.9742C155.999 88.974 155.847 88.931 155.715 88.8499C155.582 88.7689 155.475 88.6529 155.404 88.5148C155.334 88.3767 155.303 88.2218 155.314 88.0672C155.326 87.9125 155.38 87.7641 155.471 87.6383C157.018 85.4906 157.722 83.4104 157.563 81.4563C157.415 79.6475 156.598 78.4929 155.653 77.157C154.662 75.7554 153.539 74.1666 153.212 71.6632C152.726 67.954 154.32 64.8723 154.844 63.8604C155.96 61.7048 157.295 60.4957 158.586 59.3267C159.619 58.454 160.549 57.4652 161.356 56.3799C161.42 56.2898 161.501 56.2132 161.595 56.1545C161.689 56.0958 161.794 56.0562 161.903 56.0379C162.012 56.0197 162.124 56.0231 162.232 56.048C162.339 56.0729 162.441 56.1188 162.531 56.183C162.622 56.2473 162.698 56.3287 162.757 56.4226C162.816 56.5165 162.855 56.621 162.873 56.7302C162.892 56.8394 162.888 56.9511 162.863 57.059C162.838 57.1668 162.793 57.2688 162.728 57.3589C161.851 58.5431 160.841 59.6227 159.718 60.5763C158.483 61.6944 157.317 62.7501 156.341 64.6354C155.878 65.5315 154.466 68.258 154.883 71.4443C155.157 73.5341 156.067 74.821 157.03 76.1836C158.027 77.5939 159.058 79.0521 159.243 81.3203C159.436 83.6857 158.627 86.1436 156.839 88.6263C156.76 88.7344 156.657 88.8223 156.538 88.8827C156.419 88.9432 156.287 88.9745 156.154 88.9742Z" fill="#474747"/>
<path d="M161.736 74.7993C161.591 74.7995 161.448 74.762 161.321 74.6905C161.194 74.6189 161.088 74.5158 161.013 74.3911C159.803 72.3808 159.256 70.3565 159.388 68.3737C159.604 65.122 161.548 63.1064 163.605 60.9722C164.943 59.5849 166.326 58.1501 167.357 56.2562C169.279 52.7223 169.583 48.1496 168.261 42.6662C168.213 42.4504 168.252 42.2244 168.369 42.0369C168.486 41.8493 168.671 41.7152 168.886 41.6634C169.101 41.6116 169.328 41.6462 169.517 41.7599C169.707 41.8736 169.844 42.0571 169.9 42.2711C171.324 48.1721 170.966 53.1494 168.837 57.0618C167.698 59.1561 166.168 60.7429 164.819 62.1423C162.902 64.1309 161.246 65.8487 161.07 68.4858C160.962 70.1176 161.429 71.812 162.458 73.5216C162.535 73.6495 162.576 73.7955 162.579 73.9447C162.581 74.0939 162.543 74.241 162.47 74.3709C162.396 74.5008 162.29 74.609 162.161 74.6842C162.032 74.7595 161.885 74.7992 161.736 74.7993Z" fill="#474747"/>
<path d="M149.598 67.6648C149.375 67.6648 149.16 67.576 149.002 67.4179C148.844 67.2598 148.755 67.0454 148.755 66.8218C148.755 62.9946 152.183 58.9499 152.33 58.7799C152.478 58.6177 152.683 58.5194 152.901 58.5058C153.12 58.4921 153.336 58.5642 153.502 58.7067C153.669 58.8493 153.773 59.051 153.793 59.2693C153.814 59.4875 153.748 59.705 153.611 59.8758C153.579 59.9128 150.441 63.6206 150.441 66.821C150.441 66.9317 150.42 67.0415 150.377 67.1438C150.335 67.2462 150.273 67.3392 150.195 67.4176C150.116 67.496 150.023 67.5581 149.921 67.6006C149.819 67.643 149.709 67.6648 149.598 67.6648Z" fill="#474747"/>
</svg>
