<svg width="259" height="181" viewBox="0 0 259 181" fill="none" xmlns="http://www.w3.org/2000/svg">
<path d="M51.4262 179.616C79.7049 179.765 102.638 178.14 102.65 175.987C102.661 173.834 79.7459 171.968 51.4673 171.819C23.1886 171.67 0.254996 173.295 0.243655 175.448C0.232313 177.601 23.1475 179.467 51.4262 179.616Z" fill="#EEEEEE"/>
<path d="M40.0965 40.0737C49.0273 36.3209 60.1133 38.7868 70.9435 40.5148C71.055 38.4919 72.2906 36.0357 71.0173 34.6173C69.4705 32.8941 69.6232 31.0929 70.569 29.2854C72.9876 24.6635 69.5834 19.714 66.1415 15.5953C65.3657 14.6691 64.383 13.9393 63.273 13.4654C62.1631 12.9915 60.9573 12.7867 59.7536 12.8677L53.3354 13.2933C51.7736 13.3969 50.2806 13.9762 49.0561 14.9536C47.8317 15.9311 46.9342 17.2602 46.4838 18.763C44.9408 20.8437 44.1099 22.9224 44.6152 24.9972C42.3123 26.5572 41.9168 28.4529 42.9366 30.5976C43.8039 31.9492 43.7877 33.2603 42.8761 34.5304C41.6793 36.1494 40.7596 37.957 40.1548 39.8788L40.0965 40.0737Z" fill="#2E3841"/>
<path d="M251.249 156.376L69.6343 155.42C68.0192 155.411 66.4737 154.76 65.3377 153.609C64.2017 152.458 63.5683 150.902 63.5768 149.283C129.452 141.959 194.05 142.299 257.371 150.303C257.362 151.923 256.712 153.472 255.564 154.611C254.416 155.75 252.864 156.385 251.249 156.376Z" fill="#2E3841"/>
<path d="M257.369 150.663L63.5768 149.283L86.2364 111.514L86.3448 111.335L86.7846 27.8359C86.7899 26.8224 86.9942 25.8199 87.386 24.8856C87.7777 23.9512 88.3493 23.1034 89.0679 22.3905C89.7865 21.6776 90.6381 21.1137 91.5742 20.7308C92.5102 20.3479 93.5123 20.1536 94.5233 20.159L226.711 20.8553C227.722 20.8605 228.722 21.0654 229.654 21.4581C230.586 21.8508 231.432 22.4238 232.143 23.1442C232.854 23.8646 233.417 24.7184 233.799 25.6568C234.18 26.5952 234.374 27.5998 234.369 28.6133L233.926 112.687L257.369 150.663Z" fill="#3F3D56"/>
<path d="M94.3195 25.5449C93.6547 25.5421 93.0159 25.8038 92.5433 26.2726C92.0708 26.7414 91.803 27.379 91.7987 28.0455L91.3977 104.179C91.395 104.845 91.656 105.486 92.1236 105.959C92.5912 106.433 93.2272 106.702 93.892 106.706L227.506 107.41C228.17 107.412 228.809 107.151 229.282 106.682C229.754 106.213 230.022 105.576 230.026 104.909L230.427 28.7757C230.43 28.1092 230.169 27.4689 229.701 26.9951C229.234 26.5214 228.598 26.2529 227.933 26.2487L94.3195 25.5449Z" fill="white"/>
<path d="M94.3988 116.764C94.1934 116.764 93.992 116.822 93.8185 116.932C93.6449 117.042 93.5063 117.2 93.4192 117.386L86.4191 132.433C86.3429 132.596 86.309 132.777 86.3205 132.957C86.332 133.137 86.3886 133.312 86.485 133.465C86.5814 133.617 86.7146 133.743 86.8722 133.831C87.0299 133.918 87.207 133.965 87.3872 133.966L232.924 134.732C233.108 134.733 233.288 134.687 233.448 134.599C233.609 134.51 233.744 134.382 233.841 134.226C233.938 134.07 233.994 133.892 234.003 133.709C234.012 133.525 233.975 133.343 233.894 133.178L226.45 118.055C226.363 117.876 226.226 117.724 226.057 117.618C225.888 117.512 225.692 117.455 225.493 117.455L94.3988 116.764Z" fill="#2E3841"/>
<path d="M160.596 24.637C161.486 24.6417 162.211 23.922 162.216 23.0295C162.221 22.137 161.503 21.4096 160.613 21.4049C159.722 21.4003 158.997 22.12 158.992 23.0125C158.987 23.905 159.705 24.6323 160.596 24.637Z" fill="white"/>
<path d="M145.698 137.146C145.461 137.145 145.231 137.222 145.043 137.365C144.855 137.508 144.719 137.709 144.656 137.937L142.886 144.392C142.842 144.552 142.835 144.719 142.867 144.882C142.898 145.044 142.966 145.197 143.065 145.329C143.165 145.461 143.294 145.568 143.441 145.642C143.589 145.716 143.751 145.755 143.916 145.755L176.93 145.929C177.102 145.93 177.271 145.89 177.423 145.812C177.576 145.734 177.708 145.621 177.808 145.481C177.908 145.342 177.974 145.181 177.999 145.011C178.024 144.841 178.008 144.667 177.953 144.505L175.755 138.029C175.683 137.817 175.547 137.633 175.366 137.502C175.184 137.371 174.967 137.3 174.744 137.299L145.698 137.146Z" fill="#2E3841"/>
<path d="M233.936 110.855L233.928 112.292L86.2364 111.514L86.3485 111.335L86.3551 110.078L233.936 110.855Z" fill="#2E3841"/>
<path d="M230.128 51.5788C243.977 51.6518 255.262 40.4561 255.335 26.5725C255.408 12.689 244.241 1.37504 230.393 1.30209C216.545 1.22915 205.259 12.4248 205.186 26.3084C205.113 40.1919 216.28 51.5059 230.128 51.5788Z" fill="#AA26DA"/>
<path d="M240.591 37.4484L219.815 37.3389C219.435 37.3366 219.072 37.1832 218.804 36.9124C218.537 36.6417 218.388 36.2758 218.39 35.8949L218.456 23.3257C218.458 22.9448 218.611 22.5805 218.881 22.3126C219.151 22.0447 219.516 21.8952 219.896 21.8968L240.673 22.0062C241.052 22.0086 241.416 22.162 241.683 22.4327C241.95 22.7034 242.099 23.0694 242.098 23.4502L242.032 36.0194C242.029 36.4003 241.876 36.7647 241.606 37.0326C241.336 37.3004 240.971 37.45 240.591 37.4484ZM219.889 23.3333L219.823 35.9024L240.6 36.0119L240.665 23.4427L219.889 23.3333Z" fill="white"/>
<path d="M236.725 23.4219L223.829 23.354L223.859 17.6081C223.881 13.4463 226.609 10.44 230.345 10.4597C234.081 10.4793 236.777 13.5142 236.755 17.676L236.725 23.4219ZM225.269 21.9251L235.299 21.9779L235.322 17.6685C235.34 14.2854 233.29 11.9117 230.337 11.8961C227.385 11.8806 225.31 14.2326 225.292 17.6156L225.269 21.9251Z" fill="white"/>
<path d="M230.238 30.7499C231.029 30.7541 231.674 30.1143 231.678 29.321C231.683 28.5276 231.044 27.8811 230.253 27.877C229.462 27.8728 228.817 28.5125 228.813 29.3059C228.809 30.0992 229.447 30.7457 230.238 30.7499Z" fill="white"/>
<path d="M212.466 81.5062L109.204 80.9622C108.697 80.959 108.212 80.7542 107.856 80.3929C107.499 80.0317 107.3 79.5433 107.302 79.0351L107.437 53.3555C107.441 52.8472 107.645 52.361 108.005 52.0035C108.366 51.646 108.853 51.4464 109.36 51.4485L212.621 51.9924C213.128 51.9956 213.613 52.2004 213.97 52.5617C214.326 52.9229 214.525 53.4113 214.523 53.9195L214.388 79.5991C214.385 80.1074 214.18 80.5936 213.82 80.9511C213.46 81.3086 212.972 81.5082 212.466 81.5062ZM109.356 52.2153C109.051 52.214 108.759 52.3338 108.543 52.5483C108.327 52.7628 108.204 53.0545 108.202 53.3595L108.067 79.0391C108.066 79.3441 108.185 79.6371 108.399 79.8539C108.613 80.0706 108.904 80.1935 109.208 80.1954L212.47 80.7393C212.774 80.7406 213.066 80.6208 213.282 80.4063C213.498 80.1918 213.621 79.9001 213.623 79.5951L213.758 53.9155C213.759 53.6105 213.64 53.3175 213.426 53.1007C213.212 52.884 212.921 52.7611 212.617 52.7592L109.356 52.2153Z" fill="#EEEEEE"/>
<path d="M125.29 73.1137C129.593 73.1363 133.098 69.6584 133.121 65.3455C133.144 61.0327 129.675 57.518 125.373 57.4953C121.071 57.4727 117.565 60.9506 117.542 65.2635C117.519 69.5764 120.988 73.091 125.29 73.1137Z" fill="#EEEEEE"/>
<path d="M143.349 60.1931C143.179 60.1919 143.009 60.2245 142.851 60.289C142.693 60.3534 142.549 60.4485 142.428 60.5687C142.307 60.689 142.21 60.8321 142.144 60.9898C142.078 61.1475 142.043 61.3167 142.042 61.4878C142.041 61.6589 142.074 61.8285 142.138 61.9869C142.203 62.1453 142.298 62.2894 142.418 62.4109C142.538 62.5324 142.681 62.629 142.839 62.6951C142.996 62.7612 143.165 62.7956 143.336 62.7962L204.538 63.1186C204.883 63.1204 205.214 62.985 205.458 62.7422C205.703 62.4994 205.842 62.1691 205.843 61.8239C205.845 61.4787 205.71 61.1469 205.468 60.9015C205.226 60.6562 204.896 60.5173 204.552 60.5155L143.349 60.1931Z" fill="#EEEEEE"/>
<path d="M143.308 68.0024C142.964 68.0005 142.633 68.1359 142.388 68.3787C142.143 68.6215 142.005 68.9519 142.003 69.297C142.001 69.6422 142.136 69.974 142.378 70.2194C142.621 70.4647 142.95 70.6036 143.294 70.6054L169.63 70.7441C169.974 70.746 170.305 70.6106 170.55 70.3678C170.795 70.125 170.933 69.7946 170.935 69.4494C170.937 69.1043 170.802 68.7725 170.56 68.5271C170.318 68.2817 169.988 68.1429 169.644 68.1411L143.308 68.0024Z" fill="#EEEEEE"/>
<path d="M86.2103 68.2281L67.068 78.3017L66.8711 69.822C73.107 68.8121 79.0441 67.0278 84.5406 64.1011L86.563 59.1668C86.7834 58.6291 87.1395 58.1582 87.5962 57.8001C88.053 57.4421 88.5948 57.2092 89.1685 57.1245C89.7421 57.0398 90.3278 57.106 90.8682 57.3168C91.4086 57.5276 91.8849 57.8756 92.2506 58.3267C92.7856 58.9867 93.0504 59.826 92.9912 60.6744C92.9321 61.5228 92.5535 62.317 91.9321 62.896L86.2103 68.2281Z" fill="#FFB8B8"/>
<path d="M39.2596 126.724C39.123 126.211 39.0963 125.675 39.1811 125.151C39.2659 124.628 39.4604 124.128 39.7517 123.684L43.979 117.255C44.9788 115.734 46.5065 114.64 48.2655 114.185C50.0246 113.729 51.8896 113.945 53.4988 114.791C51.7207 117.789 51.9525 120.428 54.0656 122.732C50.7579 124.329 47.6977 126.397 44.9798 128.872C44.4842 129.207 43.916 129.418 43.3225 129.488C42.729 129.558 42.1274 129.485 41.5677 129.275C41.0081 129.065 40.5066 128.724 40.1051 128.28C39.7036 127.836 39.4137 127.303 39.2596 126.724Z" fill="#2E3841"/>
<path d="M86.8147 118.539C86.1746 119.596 85.2743 120.47 84.2001 121.077C83.126 121.685 81.9141 122.006 80.6808 122.009L52.8227 122.073L51.6515 115.042L63.9937 111.473L53.6458 103.425L65.0725 90.1612L85.5979 109.544C86.7976 110.677 87.573 112.188 87.7944 113.825C88.0159 115.463 87.6701 117.126 86.8147 118.539Z" fill="#2E3841"/>
<path d="M48.2397 166.38L41.7157 166.346C36.0702 126.062 30.3204 85.6651 48.0189 70.6916L68.7811 74.1925L66.03 91.862L54.3616 105.124L48.2397 166.38Z" fill="#2E3841"/>
<path d="M53.9266 175.529C53.4151 175.666 52.8806 175.693 52.358 175.608C51.8355 175.523 51.3368 175.328 50.8948 175.036L43.8161 174.044C42.2992 173.042 41.2078 171.51 40.7535 169.747C40.2992 167.983 40.5146 166.114 41.3577 164.5C44.3483 166.283 46.9811 166.05 49.2791 163.931C50.8776 167.211 53.5409 167.025 56.0689 169.794C56.403 170.291 56.6138 170.861 56.6838 171.456C56.7538 172.051 56.6809 172.654 56.4713 173.215C56.2617 173.776 55.9214 174.279 55.4788 174.681C55.0361 175.084 54.504 175.375 53.9266 175.529Z" fill="#2E3841"/>
<path d="M64.3496 43.8883L52.2834 40.9178C54.3117 36.8107 54.501 32.2299 53.563 27.3586L61.7797 27.1597C62.0053 33.2122 62.7543 38.8697 64.3496 43.8883Z" fill="#FFB8B8"/>
<path d="M67.4722 81.4795C58.6457 87.4414 52.462 81.606 47.767 72.6283C48.4549 67.1535 47.4224 60.5921 45.4839 53.4582C44.6216 50.3116 44.9674 46.9553 46.453 44.0518C47.9386 41.1483 50.456 38.9086 53.5082 37.775L63.8753 42.1901C72.6597 49.4459 74.3551 57.2643 71.0017 65.4833L67.4722 81.4795Z" fill="#AA26DA"/>
<path d="M42.3294 49.8284L32.6375 54.8646L49.7395 65.129L52.0955 71.0447C52.2528 71.4395 52.3282 71.8623 52.3171 72.2873C52.306 72.7123 52.2087 73.1306 52.0311 73.5167C51.8536 73.9028 51.5994 74.2486 51.2842 74.533C50.9689 74.8174 50.5992 75.0344 50.1976 75.1709C49.7411 75.3261 49.2549 75.3731 48.7772 75.3085C48.2994 75.2438 47.8431 75.0691 47.444 74.7982C47.0448 74.5272 46.7137 74.1672 46.4765 73.7465C46.2392 73.3258 46.1024 72.8557 46.0766 72.3732L45.8569 68.2578L24.0903 60.9292C23.3569 60.6823 22.6893 60.2713 22.1378 59.7274C21.5863 59.1834 21.1655 58.5208 20.9074 57.7897C20.531 56.724 20.5177 55.5633 20.8695 54.4891C21.2212 53.415 21.9183 52.4881 22.8515 51.8535L40.4487 39.8864L42.3294 49.8284Z" fill="#FFB8B8"/>
<path d="M51.9896 50.8483C47.9679 49.0561 44.2923 50.9606 39.6576 52.4791L39.0003 39.6365C43.6073 37.206 47.9909 36.5672 52.0547 38.4941L51.9896 50.8483Z" fill="#AA26DA"/>
<path d="M56.9031 33.4937C61.1632 33.5161 64.6349 30.0721 64.6574 25.8012C64.6799 21.5304 61.2446 18.05 56.9845 18.0275C52.7245 18.0051 49.2528 21.4491 49.2303 25.72C49.2078 29.9908 52.643 33.4712 56.9031 33.4937Z" fill="#FFB8B8"/>
<path d="M66.1768 24.8335C58.5358 25.5431 52.7229 24.2603 49.0225 20.6754L49.0376 17.8041L65.5652 17.8911L66.1768 24.8335Z" fill="#2E3841"/>
</svg>
