<svg width="500" height="500" viewBox="0 0 500 500" fill="none" xmlns="http://www.w3.org/2000/svg">
<path d="M356.22 364.12H142.86C129.906 364.12 120 354.214 120 341.26V188.86C120 175.906 129.906 166 142.86 166H356.22C369.174 166 379.08 175.906 379.08 188.86V341.26C379.08 354.214 369.174 364.12 356.22 364.12ZM142.86 181.24C138.288 181.24 135.24 184.288 135.24 188.86V341.26C135.24 345.832 138.288 348.88 142.86 348.88H356.22C360.792 348.88 363.84 345.832 363.84 341.26V188.86C363.84 184.288 360.792 181.24 356.22 181.24H142.86Z" fill="#2E3841" fill-opacity="0.9"/>
<path d="M287.64 257.44C270.876 257.44 257.16 243.724 257.16 226.96C257.16 210.196 270.876 196.48 287.64 196.48C304.404 196.48 318.12 210.196 318.12 226.96C318.12 243.724 304.404 257.44 287.64 257.44ZM287.64 211.72C279.258 211.72 272.4 218.578 272.4 226.96C272.4 235.342 279.258 242.2 287.64 242.2C296.022 242.2 302.88 235.342 302.88 226.96C302.88 218.578 296.022 211.72 287.64 211.72Z" fill="#2E3841" fill-opacity="0.9"/>
<path d="M328.026 361.834L203.82 245.248L132.954 310.78L122.286 300.112L203.82 223.912L338.694 351.166L328.026 361.834Z" fill="#2E3841" fill-opacity="0.9"/>
<path d="M366.888 323.734L325.74 290.206L291.45 318.4L281.544 306.208L325.74 270.394L376.032 311.542L366.888 323.734Z" fill="#2E3841" fill-opacity="0.9"/>
</svg>
