<svg width="250" height="250" viewBox="0 0 250 250" fill="none" xmlns="http://www.w3.org/2000/svg">
<g opacity="0.47">
<path opacity="0.47" d="M187.357 83.4086L230.274 71.9086C235.306 70.5603 238.292 65.3882 236.944 60.3561C235.595 55.3241 230.423 52.3382 225.391 53.6866L157.769 71.8049C152.737 73.1532 147.565 70.167 146.217 65.1353C146.217 65.1353 146.217 65.1353 146.217 65.1349C144.869 60.1032 147.855 54.932 152.886 53.5832L183.667 45.3332C188.699 43.9853 191.685 38.8136 190.338 33.7816C190.338 33.7811 190.338 33.7811 190.337 33.7807C188.989 28.7486 183.817 25.7628 178.785 27.1111L22.4167 69.0082C17.385 70.3561 14.3987 75.5278 15.7467 80.5599V80.5603C17.0937 85.5924 22.2654 88.5799 27.2975 87.2328C27.2983 87.2324 27.2992 87.2324 27.3 87.232L51.6471 80.7082C56.6792 79.3603 61.8512 82.3461 63.1996 87.3782C64.5479 92.4099 61.5617 97.582 56.53 98.9303H56.5296L14.8546 110.097C9.82249 111.445 6.83666 116.617 8.18457 121.649C9.53291 126.682 14.705 129.668 19.7367 128.319C19.7367 128.319 19.7367 128.319 19.7371 128.319L45.7454 121.35C50.7775 120.002 55.9496 122.988 57.2979 128.02C58.6462 133.052 55.66 138.224 50.6283 139.572H50.6279L48.7825 140.067C43.7504 141.415 40.7646 146.587 42.1125 151.619C42.1129 151.621 42.1133 151.623 42.1142 151.625C43.4621 156.657 48.6342 159.643 53.6662 158.295H53.6667L55.4167 157.827C60.4483 156.478 65.6204 159.464 66.9687 164.496V164.497C68.3171 169.528 65.3317 174.7 60.3 176.049C60.2996 176.049 60.2996 176.049 60.2992 176.049L34.3867 182.992C29.3546 184.34 26.3687 189.512 27.7171 194.544C29.0654 199.577 34.2375 202.562 39.2696 201.214L86.6183 188.527C91.6504 187.179 96.8225 190.165 98.1708 195.197C98.1708 195.197 98.1708 195.197 98.1708 195.197C99.5192 200.229 96.5333 205.401 91.5012 206.749C91.5008 206.749 91.5004 206.75 91.5 206.75L83.9117 208.783C78.88 210.132 75.8941 215.304 77.2421 220.335C78.59 225.367 83.7621 228.353 88.7937 227.005C88.7942 227.005 88.7942 227.005 88.7946 227.005L209.357 194.701C214.389 193.352 217.375 188.18 216.027 183.148C214.678 178.116 209.506 175.13 204.475 176.478C204.475 176.478 204.475 176.478 204.474 176.478L200.927 177.429C195.896 178.777 190.724 175.792 189.375 170.761C188.027 165.729 191.014 160.557 196.045 159.209C196.046 159.209 196.046 159.209 196.046 159.209L219.367 152.959C224.399 151.61 227.385 146.438 226.037 141.407C226.037 141.407 226.037 141.407 226.037 141.406C224.689 136.374 219.517 133.388 214.485 134.736C214.485 134.736 214.485 134.736 214.485 134.736L181.417 143.595C176.385 144.944 171.212 141.957 169.864 136.926C169.864 136.926 169.864 136.926 169.864 136.925C168.517 131.894 171.504 126.723 176.535 125.375L199.949 119.101C204.981 117.753 207.967 112.581 206.619 107.549C206.619 107.549 206.619 107.549 206.619 107.549C205.273 102.516 200.102 99.5278 195.07 100.874C195.069 100.874 195.067 100.875 195.066 100.875L192.241 101.632C187.209 102.98 182.037 99.9945 180.688 94.9624C179.339 89.9307 182.325 84.7582 187.356 83.4091C187.357 83.4091 187.357 83.4086 187.357 83.4086Z" fill="#76D1FF"/>
<path opacity="0.47" d="M224.347 93.0044L226.829 92.339C231.861 90.9899 237.034 93.9757 238.384 99.0078L238.384 99.0094C239.733 104.042 236.748 109.215 231.715 110.564L229.233 111.23C224.201 112.579 219.028 109.593 217.678 104.561L217.678 104.559C216.328 99.5269 219.314 94.3536 224.347 93.0044Z" fill="#76D1FF"/>
</g>
<g opacity="0.33">
<path opacity="0.33" d="M79.9791 109.102H176.646C179.867 109.102 182.479 111.713 182.479 114.935V122.218C182.479 125.439 179.867 128.051 176.646 128.051H79.9791C76.7575 128.051 74.1458 125.439 74.1458 122.218V114.935C74.1458 111.713 76.7575 109.102 79.9791 109.102Z" fill="#4E4E4E" stroke="black" stroke-linecap="round" stroke-linejoin="round"/>
<path opacity="0.33" d="M79.9791 109.102H176.646C179.867 109.102 182.479 111.713 182.479 114.935V122.218C182.479 125.439 179.867 128.051 176.646 128.051H79.9791C76.7575 128.051 74.1458 125.439 74.1458 122.218V114.935C74.1458 111.713 76.7575 109.102 79.9791 109.102Z" fill="#4E4E4E"/>
<path opacity="0.17" d="M79.9798 109.102H176.646C179.868 109.102 182.48 111.713 182.48 114.935V123.451C182.48 125.418 180.885 127.013 178.918 127.013H77.7089C75.7418 127.013 74.1469 125.418 74.1469 123.451V114.935C74.1469 111.713 76.7581 109.102 79.9798 109.102Z" fill="#4E4E4E"/>
<path opacity="0.33" d="M79.9791 109.102H176.646C179.867 109.102 182.479 111.713 182.479 114.935V122.218C182.479 125.439 179.867 128.051 176.646 128.051H79.9791C76.7575 128.051 74.1458 125.439 74.1458 122.218V114.935C74.1458 111.713 76.7575 109.102 79.9791 109.102Z" fill="#4E4E4E" stroke="#46505C" stroke-width="4" stroke-linecap="round" stroke-linejoin="round"/>
<path opacity="0.33" d="M174.979 111.237H81.6458V125.796H174.979V111.237Z" fill="#4E4E4E"/>
<path opacity="0.33" d="M174.979 111.237H81.6458V125.796H174.979V111.237Z" fill="#4E4E4E" stroke="#46505C" stroke-linecap="round" stroke-linejoin="round"/>
<path opacity="0.33" d="M79.9796 128.051H176.646C179.868 128.051 182.48 130.663 182.48 133.884V193.884C182.48 197.106 179.868 199.718 176.646 199.718H79.9796C76.7579 199.718 74.1462 197.106 74.1462 193.884V133.884C74.1462 130.663 76.7579 128.051 79.9796 128.051Z" fill="#4E4E4E"/>
<path opacity="0.33" d="M180.813 133.884V193.884C180.813 196.185 178.947 198.051 176.646 198.051H79.9795C77.6783 198.051 75.8129 196.185 75.8129 193.884V133.884C75.8129 131.583 77.6783 129.718 79.9795 129.718H176.646C178.947 129.718 180.813 131.583 180.813 133.884Z" fill="#4E4E4E" stroke="#E6F3FF" stroke-width="2" stroke-miterlimit="10"/>
<path opacity="0.33" d="M121.625 196.458H135C135.92 196.458 136.667 197.204 136.667 198.125V199.716H119.958V198.125C119.958 197.204 120.705 196.458 121.625 196.458Z" fill="#4E4E4E"/>
<path opacity="0.33" d="M79.9796 128.051H176.646C179.868 128.051 182.48 130.663 182.48 133.884V193.884C182.48 197.106 179.868 199.718 176.646 199.718H79.9796C76.7579 199.718 74.1462 197.106 74.1462 193.884V133.884C74.1462 130.663 76.7579 128.051 79.9796 128.051Z" fill="#4E4E4E" stroke="#46505C" stroke-width="4" stroke-linecap="round" stroke-linejoin="round"/>
<path opacity="0.33" d="M81.6458 133.643H174.979C175.67 133.643 176.229 134.202 176.229 134.893V170.726C176.229 171.416 175.67 171.976 174.979 171.976H81.6458C80.9554 171.976 80.3958 171.416 80.3958 170.726V134.893C80.3958 134.202 80.9554 133.643 81.6458 133.643Z" fill="#4E4E4E"/>
<path opacity="0.33" d="M93.7646 162.601H98.7646C98.9946 162.601 99.1812 162.788 99.1812 163.018V168.018C99.1812 168.248 98.9946 168.434 98.7646 168.434H93.7646C93.5346 168.434 93.3479 168.248 93.3479 168.018V163.018C93.3479 162.788 93.5346 162.601 93.7646 162.601Z" fill="#4E4E4E" stroke="#626C84" stroke-linecap="round" stroke-linejoin="round"/>
<path opacity="0.33" d="M84.7483 162.601H89.7483C89.9783 162.601 90.165 162.788 90.165 163.018V168.018C90.165 168.248 89.9783 168.434 89.7483 168.434H84.7483C84.5183 168.434 84.3317 168.248 84.3317 168.018V163.018C84.3317 162.788 84.5183 162.601 84.7483 162.601Z" fill="#4E4E4E" stroke="#626C84" stroke-linecap="round" stroke-linejoin="round"/>
<path opacity="0.33" d="M102.78 162.601H143.845C144.075 162.601 144.261 162.788 144.261 163.018V168.018C144.261 168.248 144.075 168.434 143.845 168.434H102.78C102.55 168.434 102.364 168.248 102.364 168.018V163.018C102.364 162.788 102.55 162.601 102.78 162.601Z" fill="#4E4E4E" stroke="#626C84" stroke-linecap="round" stroke-linejoin="round"/>
<path opacity="0.33" d="M147.861 162.601H152.861C153.091 162.601 153.278 162.788 153.278 163.018V168.018C153.278 168.248 153.091 168.434 152.861 168.434H147.861C147.631 168.434 147.444 168.248 147.444 168.018V163.018C147.444 162.788 147.631 162.601 147.861 162.601Z" fill="#4E4E4E" stroke="#626C84" stroke-linecap="round" stroke-linejoin="round"/>
<path opacity="0.33" d="M162.71 165.882H166.044C166.274 165.882 166.46 166.069 166.46 166.299V168.018C166.46 168.248 166.274 168.434 166.044 168.434H162.71C162.48 168.434 162.294 168.248 162.294 168.018V166.299C162.294 166.069 162.48 165.882 162.71 165.882Z" fill="#4E4E4E" stroke="#626C84" stroke-linecap="round" stroke-linejoin="round"/>
<path opacity="0.33" d="M162.71 162.601H166.044C166.274 162.601 166.46 162.788 166.46 163.018V164.736C166.46 164.967 166.274 165.153 166.044 165.153H162.71C162.48 165.153 162.294 164.967 162.294 164.736V163.018C162.294 162.788 162.48 162.601 162.71 162.601Z" fill="#4E4E4E" stroke="#626C84" stroke-linecap="round" stroke-linejoin="round"/>
<path opacity="0.33" d="M168.544 165.882H171.877C172.107 165.882 172.294 166.069 172.294 166.299V168.018C172.294 168.248 172.107 168.434 171.877 168.434H168.544C168.314 168.434 168.127 168.248 168.127 168.018V166.299C168.127 166.069 168.314 165.882 168.544 165.882Z" fill="#4E4E4E" stroke="#626C84" stroke-linecap="round" stroke-linejoin="round"/>
<path opacity="0.33" d="M156.877 165.882H160.21C160.44 165.882 160.627 166.069 160.627 166.299V168.018C160.627 168.248 160.44 168.434 160.21 168.434H156.877C156.647 168.434 156.46 168.248 156.46 168.018V166.299C156.46 166.069 156.647 165.882 156.877 165.882Z" fill="#4E4E4E" stroke="#626C84" stroke-linecap="round" stroke-linejoin="round"/>
<path opacity="0.33" d="M84.7483 154.301H97.9312C98.1612 154.301 98.3479 154.488 98.3479 154.718V159.718C98.3479 159.948 98.1612 160.134 97.9312 160.134H84.7483C84.5183 160.134 84.3317 159.948 84.3317 159.718V154.718C84.3317 154.488 84.5183 154.301 84.7483 154.301Z" fill="#4E4E4E" stroke="#626C84" stroke-linecap="round" stroke-linejoin="round"/>
<path opacity="0.33" d="M102.023 154.301H107.023C107.253 154.301 107.439 154.488 107.439 154.718V159.718C107.439 159.948 107.253 160.134 107.023 160.134H102.023C101.793 160.134 101.606 159.948 101.606 159.718V154.718C101.606 154.488 101.793 154.301 102.023 154.301Z" fill="#4E4E4E" stroke="#626C84" stroke-linecap="round" stroke-linejoin="round"/>
<path opacity="0.33" d="M111.039 154.301H116.039C116.269 154.301 116.455 154.488 116.455 154.718V159.718C116.455 159.948 116.269 160.134 116.039 160.134H111.039C110.809 160.134 110.622 159.948 110.622 159.718V154.718C110.622 154.488 110.809 154.301 111.039 154.301Z" fill="#4E4E4E" stroke="#626C84" stroke-linecap="round" stroke-linejoin="round"/>
<path opacity="0.33" d="M120.055 154.301H125.055C125.285 154.301 125.471 154.488 125.471 154.718V159.718C125.471 159.948 125.285 160.134 125.055 160.134H120.055C119.825 160.134 119.638 159.948 119.638 159.718V154.718C119.638 154.488 119.825 154.301 120.055 154.301Z" fill="#4E4E4E" stroke="#626C84" stroke-linecap="round" stroke-linejoin="round"/>
<path opacity="0.33" d="M129.071 154.301H134.071C134.301 154.301 134.487 154.488 134.487 154.718V159.718C134.487 159.948 134.301 160.134 134.071 160.134H129.071C128.841 160.134 128.654 159.948 128.654 159.718V154.718C128.654 154.488 128.841 154.301 129.071 154.301Z" fill="#4E4E4E" stroke="#626C84" stroke-linecap="round" stroke-linejoin="round"/>
<path opacity="0.33" d="M138.087 154.301H143.087C143.317 154.301 143.503 154.488 143.503 154.718V159.718C143.503 159.948 143.317 160.134 143.087 160.134H138.087C137.857 160.134 137.67 159.948 137.67 159.718V154.718C137.67 154.488 137.857 154.301 138.087 154.301Z" fill="#4E4E4E" stroke="#626C84" stroke-linecap="round" stroke-linejoin="round"/>
<path opacity="0.33" d="M147.103 154.301H152.103C152.333 154.301 152.52 154.488 152.52 154.718V159.718C152.52 159.948 152.333 160.134 152.103 160.134H147.103C146.873 160.134 146.686 159.948 146.686 159.718V154.718C146.686 154.488 146.873 154.301 147.103 154.301Z" fill="#4E4E4E" stroke="#626C84" stroke-linecap="round" stroke-linejoin="round"/>
<path opacity="0.33" d="M156.877 154.301H171.877C172.107 154.301 172.294 154.488 172.294 154.718V159.718C172.294 159.948 172.107 160.134 171.877 160.134H156.877C156.647 160.134 156.46 159.948 156.46 159.718V154.718C156.46 154.488 156.647 154.301 156.877 154.301Z" fill="#4E4E4E" stroke="#626C84" stroke-linecap="round" stroke-linejoin="round"/>
<path opacity="0.33" d="M98.7646 145.768H103.765C103.995 145.768 104.181 145.954 104.181 146.184V151.184C104.181 151.414 103.995 151.601 103.765 151.601H98.7646C98.5346 151.601 98.3479 151.414 98.3479 151.184V146.184C98.3479 145.954 98.5346 145.768 98.7646 145.768Z" fill="#4E4E4E" stroke="#626C84" stroke-linecap="round" stroke-linejoin="round"/>
<path opacity="0.33" d="M84.7483 145.768H94.7483C94.9783 145.768 95.165 145.954 95.165 146.184V151.184C95.165 151.414 94.9783 151.601 94.7483 151.601H84.7483C84.5183 151.601 84.3317 151.414 84.3317 151.184V146.184C84.3317 145.954 84.5183 145.768 84.7483 145.768Z" fill="#4E4E4E" stroke="#626C84" stroke-linecap="round" stroke-linejoin="round"/>
<path opacity="0.33" d="M107.78 145.768H112.78C113.01 145.768 113.197 145.954 113.197 146.184V151.184C113.197 151.414 113.01 151.601 112.78 151.601H107.78C107.55 151.601 107.364 151.414 107.364 151.184V146.184C107.364 145.954 107.55 145.768 107.78 145.768Z" fill="#4E4E4E" stroke="#626C84" stroke-linecap="round" stroke-linejoin="round"/>
<path opacity="0.33" d="M116.797 145.768H121.797C122.027 145.768 122.213 145.954 122.213 146.184V151.184C122.213 151.414 122.027 151.601 121.797 151.601H116.797C116.567 151.601 116.38 151.414 116.38 151.184V146.184C116.38 145.954 116.567 145.768 116.797 145.768Z" fill="#4E4E4E" stroke="#626C84" stroke-linecap="round" stroke-linejoin="round"/>
<path opacity="0.33" d="M125.813 145.768H130.813C131.043 145.768 131.229 145.954 131.229 146.184V151.184C131.229 151.414 131.043 151.601 130.813 151.601H125.813C125.583 151.601 125.396 151.414 125.396 151.184V146.184C125.396 145.954 125.583 145.768 125.813 145.768Z" fill="#4E4E4E" stroke="#626C84" stroke-linecap="round" stroke-linejoin="round"/>
<path opacity="0.33" d="M134.829 145.768H139.829C140.059 145.768 140.245 145.954 140.245 146.184V151.184C140.245 151.414 140.059 151.601 139.829 151.601H134.829C134.599 151.601 134.412 151.414 134.412 151.184V146.184C134.412 145.954 134.599 145.768 134.829 145.768Z" fill="#4E4E4E" stroke="#626C84" stroke-linecap="round" stroke-linejoin="round"/>
<path opacity="0.33" d="M143.845 145.768H148.845C149.075 145.768 149.262 145.954 149.262 146.184V151.184C149.262 151.414 149.075 151.601 148.845 151.601H143.845C143.615 151.601 143.428 151.414 143.428 151.184V146.184C143.428 145.954 143.615 145.768 143.845 145.768Z" fill="#4E4E4E" stroke="#626C84" stroke-linecap="round" stroke-linejoin="round"/>
<path opacity="0.33" d="M152.861 145.768H157.861C158.091 145.768 158.278 145.954 158.278 146.184V151.184C158.278 151.414 158.091 151.601 157.861 151.601H152.861C152.631 151.601 152.444 151.414 152.444 151.184V146.184C152.444 145.954 152.631 145.768 152.861 145.768Z" fill="#4E4E4E" stroke="#626C84" stroke-linecap="round" stroke-linejoin="round"/>
<path opacity="0.33" d="M161.877 145.768H171.877C172.107 145.768 172.294 145.954 172.294 146.184V151.184C172.294 151.414 172.107 151.601 171.877 151.601H161.877C161.647 151.601 161.46 151.414 161.46 151.184V146.184C161.46 145.954 161.647 145.768 161.877 145.768Z" fill="#4E4E4E" stroke="#626C84" stroke-linecap="round" stroke-linejoin="round"/>
<path opacity="0.33" d="M93.8738 137.601H98.8738C99.1038 137.601 99.2904 137.788 99.2904 138.018V143.018C99.2904 143.248 99.1038 143.434 98.8738 143.434H93.8738C93.6438 143.434 93.4571 143.248 93.4571 143.018V138.018C93.4571 137.788 93.6438 137.601 93.8738 137.601Z" fill="#4E4E4E" stroke="#626C84" stroke-linecap="round" stroke-linejoin="round"/>
<path opacity="0.33" d="M84.7483 137.601H89.7483C89.9783 137.601 90.165 137.788 90.165 138.018V143.018C90.165 143.248 89.9783 143.434 89.7483 143.434H84.7483C84.5183 143.434 84.3317 143.248 84.3317 143.018V138.018C84.3317 137.788 84.5183 137.601 84.7483 137.601Z" fill="#4E4E4E" stroke="#626C84" stroke-linecap="round" stroke-linejoin="round"/>
<path opacity="0.33" d="M102.999 137.601H107.999C108.229 137.601 108.416 137.788 108.416 138.018V143.018C108.416 143.248 108.229 143.434 107.999 143.434H102.999C102.769 143.434 102.583 143.248 102.583 143.018V138.018C102.583 137.788 102.769 137.601 102.999 137.601Z" fill="#4E4E4E" stroke="#626C84" stroke-linecap="round" stroke-linejoin="round"/>
<path opacity="0.33" d="M112.125 137.601H117.125C117.355 137.601 117.541 137.788 117.541 138.018V143.018C117.541 143.248 117.355 143.434 117.125 143.434H112.125C111.895 143.434 111.708 143.248 111.708 143.018V138.018C111.708 137.788 111.895 137.601 112.125 137.601Z" fill="#4E4E4E" stroke="#626C84" stroke-linecap="round" stroke-linejoin="round"/>
<path opacity="0.33" d="M121.25 137.601H126.25C126.48 137.601 126.667 137.788 126.667 138.018V143.018C126.667 143.248 126.48 143.434 126.25 143.434H121.25C121.02 143.434 120.833 143.248 120.833 143.018V138.018C120.833 137.788 121.02 137.601 121.25 137.601Z" fill="#4E4E4E" stroke="#626C84" stroke-linecap="round" stroke-linejoin="round"/>
<path opacity="0.33" d="M130.375 137.601H135.375C135.605 137.601 135.792 137.788 135.792 138.018V143.018C135.792 143.248 135.605 143.434 135.375 143.434H130.375C130.145 143.434 129.959 143.248 129.959 143.018V138.018C129.959 137.788 130.145 137.601 130.375 137.601Z" fill="#4E4E4E" stroke="#626C84" stroke-linecap="round" stroke-linejoin="round"/>
<path opacity="0.33" d="M139.501 137.601H144.501C144.731 137.601 144.918 137.788 144.918 138.018V143.018C144.918 143.248 144.731 143.434 144.501 143.434H139.501C139.271 143.434 139.084 143.248 139.084 143.018V138.018C139.084 137.788 139.271 137.601 139.501 137.601Z" fill="#4E4E4E" stroke="#626C84" stroke-linecap="round" stroke-linejoin="round"/>
<path opacity="0.33" d="M148.626 137.601H153.626C153.856 137.601 154.043 137.788 154.043 138.018V143.018C154.043 143.248 153.856 143.434 153.626 143.434H148.626C148.396 143.434 148.21 143.248 148.21 143.018V138.018C148.21 137.788 148.396 137.601 148.626 137.601Z" fill="#4E4E4E" stroke="#626C84" stroke-linecap="round" stroke-linejoin="round"/>
<path opacity="0.33" d="M157.752 137.601H162.752C162.982 137.601 163.168 137.788 163.168 138.018V143.018C163.168 143.248 162.982 143.434 162.752 143.434H157.752C157.522 143.434 157.335 143.248 157.335 143.018V138.018C157.335 137.788 157.522 137.601 157.752 137.601Z" fill="#4E4E4E" stroke="#626C84" stroke-linecap="round" stroke-linejoin="round"/>
<path opacity="0.33" d="M166.877 137.601H171.877C172.107 137.601 172.294 137.788 172.294 138.018V143.018C172.294 143.248 172.107 143.434 171.877 143.434H166.877C166.647 143.434 166.46 143.248 166.46 143.018V138.018C166.46 137.788 166.647 137.601 166.877 137.601Z" fill="#4E4E4E" stroke="#626C84" stroke-linecap="round" stroke-linejoin="round"/>
<path opacity="0.33" d="M93.7646 162.601H98.7646C98.9946 162.601 99.1812 162.788 99.1812 163.018V168.018C99.1812 168.248 98.9946 168.434 98.7646 168.434H93.7646C93.5346 168.434 93.3479 168.248 93.3479 168.018V163.018C93.3479 162.788 93.5346 162.601 93.7646 162.601Z" fill="#4E4E4E"/>
<path opacity="0.33" d="M84.7483 162.601H89.7483C89.9783 162.601 90.165 162.788 90.165 163.018V168.018C90.165 168.248 89.9783 168.434 89.7483 168.434H84.7483C84.5183 168.434 84.3317 168.248 84.3317 168.018V163.018C84.3317 162.788 84.5183 162.601 84.7483 162.601Z" fill="#4E4E4E"/>
<path opacity="0.33" d="M102.78 162.601H143.845C144.075 162.601 144.261 162.788 144.261 163.018V168.018C144.261 168.248 144.075 168.434 143.845 168.434H102.78C102.55 168.434 102.364 168.248 102.364 168.018V163.018C102.364 162.788 102.55 162.601 102.78 162.601Z" fill="#4E4E4E"/>
<path opacity="0.33" d="M147.861 162.601H152.861C153.091 162.601 153.278 162.788 153.278 163.018V168.018C153.278 168.248 153.091 168.434 152.861 168.434H147.861C147.631 168.434 147.444 168.248 147.444 168.018V163.018C147.444 162.788 147.631 162.601 147.861 162.601Z" fill="#4E4E4E"/>
<path opacity="0.33" d="M162.71 165.882H166.044C166.274 165.882 166.46 166.069 166.46 166.299V168.018C166.46 168.248 166.274 168.434 166.044 168.434H162.71C162.48 168.434 162.294 168.248 162.294 168.018V166.299C162.294 166.069 162.48 165.882 162.71 165.882Z" fill="#4E4E4E"/>
<path opacity="0.33" d="M162.71 162.601H166.044C166.274 162.601 166.46 162.788 166.46 163.018V164.736C166.46 164.967 166.274 165.153 166.044 165.153H162.71C162.48 165.153 162.294 164.967 162.294 164.736V163.018C162.294 162.788 162.48 162.601 162.71 162.601Z" fill="#4E4E4E"/>
<path opacity="0.33" d="M168.544 165.882H171.877C172.107 165.882 172.294 166.069 172.294 166.299V168.018C172.294 168.248 172.107 168.434 171.877 168.434H168.544C168.314 168.434 168.127 168.248 168.127 168.018V166.299C168.127 166.069 168.314 165.882 168.544 165.882Z" fill="#4E4E4E"/>
<path opacity="0.33" d="M156.877 165.882H160.21C160.44 165.882 160.627 166.069 160.627 166.299V168.018C160.627 168.248 160.44 168.434 160.21 168.434H156.877C156.647 168.434 156.46 168.248 156.46 168.018V166.299C156.46 166.069 156.647 165.882 156.877 165.882Z" fill="#4E4E4E"/>
<path opacity="0.33" d="M84.7483 154.301H97.9312C98.1612 154.301 98.3479 154.488 98.3479 154.718V159.718C98.3479 159.948 98.1612 160.134 97.9312 160.134H84.7483C84.5183 160.134 84.3317 159.948 84.3317 159.718V154.718C84.3317 154.488 84.5183 154.301 84.7483 154.301Z" fill="#4E4E4E"/>
<path opacity="0.33" d="M102.023 154.301H107.023C107.253 154.301 107.439 154.488 107.439 154.718V159.718C107.439 159.948 107.253 160.134 107.023 160.134H102.023C101.793 160.134 101.606 159.948 101.606 159.718V154.718C101.606 154.488 101.793 154.301 102.023 154.301Z" fill="#4E4E4E"/>
<path opacity="0.33" d="M111.039 154.301H116.039C116.269 154.301 116.455 154.488 116.455 154.718V159.718C116.455 159.948 116.269 160.134 116.039 160.134H111.039C110.809 160.134 110.622 159.948 110.622 159.718V154.718C110.622 154.488 110.809 154.301 111.039 154.301Z" fill="#4E4E4E"/>
<path opacity="0.33" d="M120.055 154.301H125.055C125.285 154.301 125.471 154.488 125.471 154.718V159.718C125.471 159.948 125.285 160.134 125.055 160.134H120.055C119.825 160.134 119.638 159.948 119.638 159.718V154.718C119.638 154.488 119.825 154.301 120.055 154.301Z" fill="#4E4E4E"/>
<path opacity="0.33" d="M129.071 154.301H134.071C134.301 154.301 134.487 154.488 134.487 154.718V159.718C134.487 159.948 134.301 160.134 134.071 160.134H129.071C128.841 160.134 128.654 159.948 128.654 159.718V154.718C128.654 154.488 128.841 154.301 129.071 154.301Z" fill="#4E4E4E"/>
<path opacity="0.33" d="M138.087 154.301H143.087C143.317 154.301 143.503 154.488 143.503 154.718V159.718C143.503 159.948 143.317 160.134 143.087 160.134H138.087C137.857 160.134 137.67 159.948 137.67 159.718V154.718C137.67 154.488 137.857 154.301 138.087 154.301Z" fill="#4E4E4E"/>
<path opacity="0.33" d="M147.103 154.301H152.103C152.333 154.301 152.52 154.488 152.52 154.718V159.718C152.52 159.948 152.333 160.134 152.103 160.134H147.103C146.873 160.134 146.686 159.948 146.686 159.718V154.718C146.686 154.488 146.873 154.301 147.103 154.301Z" fill="#4E4E4E"/>
<path opacity="0.33" d="M156.877 154.301H171.877C172.107 154.301 172.294 154.488 172.294 154.718V159.718C172.294 159.948 172.107 160.134 171.877 160.134H156.877C156.647 160.134 156.46 159.948 156.46 159.718V154.718C156.46 154.488 156.647 154.301 156.877 154.301Z" fill="#4E4E4E"/>
<path opacity="0.33" d="M98.7646 145.768H103.765C103.995 145.768 104.181 145.954 104.181 146.184V151.184C104.181 151.414 103.995 151.601 103.765 151.601H98.7646C98.5346 151.601 98.3479 151.414 98.3479 151.184V146.184C98.3479 145.954 98.5346 145.768 98.7646 145.768Z" fill="#4E4E4E"/>
<path opacity="0.33" d="M84.7483 145.768H94.7483C94.9783 145.768 95.165 145.954 95.165 146.184V151.184C95.165 151.414 94.9783 151.601 94.7483 151.601H84.7483C84.5183 151.601 84.3317 151.414 84.3317 151.184V146.184C84.3317 145.954 84.5183 145.768 84.7483 145.768Z" fill="#4E4E4E"/>
<path opacity="0.33" d="M107.78 145.768H112.78C113.01 145.768 113.197 145.954 113.197 146.184V151.184C113.197 151.414 113.01 151.601 112.78 151.601H107.78C107.55 151.601 107.364 151.414 107.364 151.184V146.184C107.364 145.954 107.55 145.768 107.78 145.768Z" fill="#4E4E4E"/>
<path opacity="0.33" d="M116.797 145.768H121.797C122.027 145.768 122.213 145.954 122.213 146.184V151.184C122.213 151.414 122.027 151.601 121.797 151.601H116.797C116.567 151.601 116.38 151.414 116.38 151.184V146.184C116.38 145.954 116.567 145.768 116.797 145.768Z" fill="#4E4E4E"/>
<path opacity="0.33" d="M125.813 145.768H130.813C131.043 145.768 131.229 145.954 131.229 146.184V151.184C131.229 151.414 131.043 151.601 130.813 151.601H125.813C125.583 151.601 125.396 151.414 125.396 151.184V146.184C125.396 145.954 125.583 145.768 125.813 145.768Z" fill="#4E4E4E"/>
<path opacity="0.33" d="M134.829 145.768H139.829C140.059 145.768 140.245 145.954 140.245 146.184V151.184C140.245 151.414 140.059 151.601 139.829 151.601H134.829C134.599 151.601 134.412 151.414 134.412 151.184V146.184C134.412 145.954 134.599 145.768 134.829 145.768Z" fill="#4E4E4E"/>
<path opacity="0.33" d="M143.845 145.768H148.845C149.075 145.768 149.262 145.954 149.262 146.184V151.184C149.262 151.414 149.075 151.601 148.845 151.601H143.845C143.615 151.601 143.428 151.414 143.428 151.184V146.184C143.428 145.954 143.615 145.768 143.845 145.768Z" fill="#4E4E4E"/>
<path opacity="0.33" d="M152.861 145.768H157.861C158.091 145.768 158.278 145.954 158.278 146.184V151.184C158.278 151.414 158.091 151.601 157.861 151.601H152.861C152.631 151.601 152.444 151.414 152.444 151.184V146.184C152.444 145.954 152.631 145.768 152.861 145.768Z" fill="#4E4E4E"/>
<path opacity="0.33" d="M161.877 145.768H171.877C172.107 145.768 172.294 145.954 172.294 146.184V151.184C172.294 151.414 172.107 151.601 171.877 151.601H161.877C161.647 151.601 161.46 151.414 161.46 151.184V146.184C161.46 145.954 161.647 145.768 161.877 145.768Z" fill="#4E4E4E"/>
<path opacity="0.33" d="M93.8738 137.601H98.8738C99.1038 137.601 99.2904 137.788 99.2904 138.018V143.018C99.2904 143.248 99.1038 143.434 98.8738 143.434H93.8738C93.6438 143.434 93.4571 143.248 93.4571 143.018V138.018C93.4571 137.788 93.6438 137.601 93.8738 137.601Z" fill="#4E4E4E"/>
<path opacity="0.33" d="M84.7483 137.601H89.7483C89.9783 137.601 90.165 137.788 90.165 138.018V143.018C90.165 143.248 89.9783 143.434 89.7483 143.434H84.7483C84.5183 143.434 84.3317 143.248 84.3317 143.018V138.018C84.3317 137.788 84.5183 137.601 84.7483 137.601Z" fill="#4E4E4E"/>
<path opacity="0.33" d="M102.999 137.601H107.999C108.229 137.601 108.416 137.788 108.416 138.018V143.018C108.416 143.248 108.229 143.434 107.999 143.434H102.999C102.769 143.434 102.583 143.248 102.583 143.018V138.018C102.583 137.788 102.769 137.601 102.999 137.601Z" fill="#4E4E4E"/>
<path opacity="0.33" d="M112.125 137.601H117.125C117.355 137.601 117.541 137.788 117.541 138.018V143.018C117.541 143.248 117.355 143.434 117.125 143.434H112.125C111.895 143.434 111.708 143.248 111.708 143.018V138.018C111.708 137.788 111.895 137.601 112.125 137.601Z" fill="#4E4E4E"/>
<path opacity="0.33" d="M121.25 137.601H126.25C126.48 137.601 126.667 137.788 126.667 138.018V143.018C126.667 143.248 126.48 143.434 126.25 143.434H121.25C121.02 143.434 120.833 143.248 120.833 143.018V138.018C120.833 137.788 121.02 137.601 121.25 137.601Z" fill="#4E4E4E"/>
<path opacity="0.33" d="M130.375 137.601H135.375C135.605 137.601 135.792 137.788 135.792 138.018V143.018C135.792 143.248 135.605 143.434 135.375 143.434H130.375C130.145 143.434 129.959 143.248 129.959 143.018V138.018C129.959 137.788 130.145 137.601 130.375 137.601Z" fill="#4E4E4E"/>
<path opacity="0.33" d="M139.501 137.601H144.501C144.731 137.601 144.918 137.788 144.918 138.018V143.018C144.918 143.248 144.731 143.434 144.501 143.434H139.501C139.271 143.434 139.084 143.248 139.084 143.018V138.018C139.084 137.788 139.271 137.601 139.501 137.601Z" fill="#4E4E4E"/>
<path opacity="0.33" d="M148.626 137.601H153.626C153.856 137.601 154.043 137.788 154.043 138.018V143.018C154.043 143.248 153.856 143.434 153.626 143.434H148.626C148.396 143.434 148.21 143.248 148.21 143.018V138.018C148.21 137.788 148.396 137.601 148.626 137.601Z" fill="#4E4E4E"/>
<path opacity="0.33" d="M157.752 137.601H162.752C162.982 137.601 163.168 137.788 163.168 138.018V143.018C163.168 143.248 162.982 143.434 162.752 143.434H157.752C157.522 143.434 157.335 143.248 157.335 143.018V138.018C157.335 137.788 157.522 137.601 157.752 137.601Z" fill="#4E4E4E"/>
<path opacity="0.33" d="M166.877 137.601H171.877C172.107 137.601 172.294 137.788 172.294 138.018V143.018C172.294 143.248 172.107 143.434 171.877 143.434H166.877C166.647 143.434 166.46 143.248 166.46 143.018V138.018C166.46 137.788 166.647 137.601 166.877 137.601Z" fill="#4E4E4E"/>
<path opacity="0.33" d="M92.8958 124.308H163.729V129.91C163.729 130.831 162.983 131.577 162.062 131.577H94.5625C93.6421 131.577 92.8958 130.831 92.8958 129.91V124.308Z" fill="#4E4E4E"/>
<path opacity="0.25" d="M162.062 129.91H94.5625C93.6421 129.91 92.8958 129.164 92.8958 128.243V129.91C92.8958 130.83 93.6421 131.576 94.5625 131.576H162.062C162.983 131.576 163.729 130.83 163.729 129.91V128.243C163.729 129.164 162.983 129.91 162.062 129.91Z" fill="#4E4E4E"/>
<path opacity="0.33" d="M92.8958 124.308H163.729V129.91C163.729 130.831 162.983 131.577 162.062 131.577H94.5625C93.6421 131.577 92.8958 130.831 92.8958 129.91V124.308Z" fill="#4E4E4E" stroke="#46505C" stroke-width="2" stroke-linecap="round" stroke-linejoin="round"/>
<path opacity="0.33" d="M113.73 174.059H142.896C143.357 174.059 143.73 174.432 143.73 174.893V194.476C143.73 194.936 143.357 195.309 142.896 195.309H113.73C113.269 195.309 112.896 194.936 112.896 194.476V174.893C112.896 174.432 113.269 174.059 113.73 174.059Z" fill="#4E4E4E"/>
<path opacity="0.33" d="M113.73 174.059H142.896C143.357 174.059 143.73 174.432 143.73 174.893V194.476C143.73 194.936 143.357 195.309 142.896 195.309H113.73C113.269 195.309 112.896 194.936 112.896 194.476V174.893C112.896 174.432 113.269 174.059 113.73 174.059Z" fill="#4E4E4E" stroke="#626C84" stroke-linecap="round" stroke-linejoin="round"/>
</g>
<g opacity="0.33">
<path opacity="0.33" d="M36.4992 169.774L39.7167 165.177C39.8079 165.047 39.9879 165.015 40.1183 165.107L43.4008 167.404C43.5312 167.495 43.5629 167.675 43.4717 167.806L40.2542 172.402C39.5946 173.345 38.2954 173.574 37.3529 172.914L37.0117 172.676C36.0687 172.016 35.8396 170.717 36.4992 169.774Z" fill="#4E4E4E" stroke="#46505C" stroke-width="4" stroke-linecap="round" stroke-linejoin="round"/>
<path opacity="0.33" d="M36.4992 169.774L39.7167 165.177C39.8079 165.047 39.9879 165.015 40.1183 165.107L43.4008 167.404C43.5312 167.495 43.5629 167.675 43.4717 167.806L40.2542 172.402C39.5946 173.345 38.2954 173.574 37.3529 172.914L37.0117 172.676C36.0687 172.016 35.8396 170.717 36.4992 169.774Z" fill="#4E4E4E" stroke="#46505C" stroke-width="4" stroke-linecap="round" stroke-linejoin="round"/>
<path opacity="0.33" d="M48.785 169.791C56.2814 169.791 62.3583 163.714 62.3583 156.217C62.3583 148.721 56.2814 142.644 48.785 142.644C41.2887 142.644 35.2117 148.721 35.2117 156.217C35.2117 163.714 41.2887 169.791 48.785 169.791Z" fill="#4E4E4E" stroke="#46505C" stroke-width="4" stroke-linecap="round" stroke-linejoin="round"/>
<path opacity="0.33" d="M48.785 169.791C56.2814 169.791 62.3583 163.714 62.3583 156.217C62.3583 148.721 56.2814 142.644 48.785 142.644C41.2887 142.644 35.2117 148.721 35.2117 156.217C35.2117 163.714 41.2887 169.791 48.785 169.791Z" fill="#4E4E4E" stroke="#46505C" stroke-width="4" stroke-linecap="round" stroke-linejoin="round"/>
<path opacity="0.33" d="M48.785 166.782C54.6196 166.782 59.3496 162.052 59.3496 156.217C59.3496 150.383 54.6196 145.653 48.785 145.653C42.9503 145.653 38.2204 150.383 38.2204 156.217C38.2204 162.052 42.9503 166.782 48.785 166.782Z" fill="#4E4E4E" stroke="#46505C" stroke-width="4" stroke-linecap="round" stroke-linejoin="round"/>
<path opacity="0.33" d="M48.785 166.782C54.6196 166.782 59.3496 162.052 59.3496 156.217C59.3496 150.383 54.6196 145.653 48.785 145.653C42.9503 145.653 38.2204 150.383 38.2204 156.217C38.2204 162.052 42.9503 166.782 48.785 166.782Z" fill="#4E4E4E" stroke="#46505C" stroke-width="4" stroke-linecap="round" stroke-linejoin="round"/>
<path opacity="0.33" d="M41.8788 154.024C42.02 153.706 42.1729 153.394 42.3288 153.088C43.0371 151.7 43.8842 150.261 45.2363 149.41C46.3842 148.688 47.9896 148.405 49.2338 149.044C50.3129 149.598 50.9633 150.738 51.9479 151.447C52.6117 151.854 53.3012 152.216 54.0121 152.533C54.73 152.855 55.2979 153.44 55.6008 154.166C55.9342 155.185 55.3846 156.271 55.3792 157.343C55.3775 157.934 55.5412 158.514 55.8529 159.017C56.0496 159.252 56.1758 159.538 56.2175 159.841C56.1567 160.238 55.8817 160.568 55.5029 160.7C54.4087 161.217 53.1308 161.03 51.9275 160.9C50.7242 160.77 49.3917 160.743 48.4404 161.491C48.0508 161.85 47.6904 162.239 47.3617 162.654C46.8417 163.434 45.7883 163.644 45.0088 163.124C44.9188 163.064 44.8346 162.995 44.7575 162.92C43.895 162.197 43.1471 161.349 42.5383 160.403C41.8988 159.602 41.4467 158.669 41.2163 157.67C41 156.431 41.3604 155.19 41.8788 154.024Z" fill="#4E4E4E" stroke="#46505C" stroke-width="4" stroke-linecap="round" stroke-linejoin="round"/>
<path opacity="0.33" d="M50.9216 164.215C51.2838 164.215 51.5775 163.922 51.5775 163.559C51.5775 163.197 51.2838 162.904 50.9216 162.904C50.5594 162.904 50.2658 163.197 50.2658 163.559C50.2658 163.922 50.5594 164.215 50.9216 164.215Z" fill="#4E4E4E" stroke="#46505C" stroke-width="4" stroke-linecap="round" stroke-linejoin="round"/>
<path opacity="0.33" d="M49.2145 164.256C49.4654 164.256 49.6687 164.052 49.6687 163.802C49.6687 163.551 49.4654 163.347 49.2145 163.347C48.9637 163.347 48.7604 163.551 48.7604 163.802C48.7604 164.052 48.9637 164.256 49.2145 164.256Z" fill="#4E4E4E" stroke="#46505C" stroke-width="4" stroke-linecap="round" stroke-linejoin="round"/>
<path opacity="0.33" d="M52.4712 163.361C52.6986 163.361 52.8829 163.177 52.8829 162.949C52.8829 162.722 52.6986 162.538 52.4712 162.538C52.2439 162.538 52.0596 162.722 52.0596 162.949C52.0596 163.177 52.2439 163.361 52.4712 163.361Z" fill="#4E4E4E" stroke="#46505C" stroke-width="4" stroke-linecap="round" stroke-linejoin="round"/>
<path opacity="0.33" d="M47.7779 164.267C47.9408 164.267 48.0729 164.134 48.0729 163.972C48.0729 163.809 47.9408 163.677 47.7779 163.677C47.615 163.677 47.4829 163.809 47.4829 163.972C47.4829 164.134 47.615 164.267 47.7779 164.267Z" fill="#4E4E4E" stroke="#46505C" stroke-width="4" stroke-linecap="round" stroke-linejoin="round"/>
<path opacity="0.33" d="M53.7717 162.694C53.8711 162.694 53.9517 162.614 53.9517 162.514C53.9517 162.415 53.8711 162.334 53.7717 162.334C53.6723 162.334 53.5917 162.415 53.5917 162.514C53.5917 162.614 53.6723 162.694 53.7717 162.694Z" fill="#4E4E4E" stroke="#46505C" stroke-width="4" stroke-linecap="round" stroke-linejoin="round"/>
<path opacity="0.33" d="M40.5871 154.144C40.8204 154.144 41.0096 153.954 41.0096 153.721C41.0096 153.488 40.8204 153.299 40.5871 153.299C40.3537 153.299 40.1646 153.488 40.1646 153.721C40.1646 153.954 40.3537 154.144 40.5871 154.144Z" fill="#4E4E4E" stroke="#46505C" stroke-width="4" stroke-linecap="round" stroke-linejoin="round"/>
<path opacity="0.33" d="M52.0891 149.203C52.3087 149.203 52.4866 149.025 52.4866 148.805C52.4866 148.586 52.3087 148.408 52.0891 148.408C51.8696 148.408 51.6917 148.586 51.6917 148.805C51.6917 149.025 51.8696 149.203 52.0891 149.203Z" fill="#4E4E4E" stroke="#46505C" stroke-width="4" stroke-linecap="round" stroke-linejoin="round"/>
<path opacity="0.33" d="M54.6729 151.124C54.8717 151.124 55.0329 150.962 55.0329 150.764C55.0329 150.565 54.8717 150.404 54.6729 150.404C54.4741 150.404 54.3129 150.565 54.3129 150.764C54.3129 150.962 54.4741 151.124 54.6729 151.124Z" fill="#4E4E4E" stroke="#46505C" stroke-width="4" stroke-linecap="round" stroke-linejoin="round"/>
<path opacity="0.33" d="M54.9683 151.941C55.0553 151.941 55.1259 151.87 55.1259 151.783C55.1259 151.696 55.0553 151.626 54.9683 151.626C54.8814 151.626 54.8109 151.696 54.8109 151.783C54.8109 151.87 54.8814 151.941 54.9683 151.941Z" fill="#4E4E4E" stroke="#46505C" stroke-width="4" stroke-linecap="round" stroke-linejoin="round"/>
</g>
<path d="M33.49 166.367L36.7071 161.771C36.7983 161.64 36.9783 161.609 37.1088 161.7L40.3913 163.997C40.5217 164.089 40.5533 164.269 40.4621 164.399L37.245 168.995C36.5854 169.938 35.2863 170.167 34.3438 169.507L34.0025 169.269C33.0596 168.609 32.83 167.309 33.49 166.367Z" fill="white" stroke="#E6F3FF" stroke-width="2" stroke-miterlimit="10"/>
<path opacity="0.18" d="M37.1083 161.7C36.9779 161.609 36.7983 161.641 36.707 161.771L35.2583 163.841C35.8137 164.37 36.4083 164.856 37.037 165.296C37.6654 165.736 38.3262 166.128 39.0129 166.469L40.4616 164.399C40.5529 164.269 40.5216 164.09 40.3916 163.999C40.3912 163.999 40.3908 163.999 40.3908 163.998L37.1083 161.7Z" fill="#4E4E4E" stroke="#46505C" stroke-width="4" stroke-linecap="round" stroke-linejoin="round"/>
<path d="M35.5337 170.716C34.9562 170.716 34.3733 170.546 33.8658 170.19L33.5245 169.951C32.207 169.029 31.8854 167.207 32.8075 165.889L36.0245 161.293C36.3791 160.787 37.0795 160.662 37.5862 161.017L40.8695 163.314C41.3766 163.67 41.4995 164.372 41.1445 164.877L37.9279 169.473C37.3612 170.282 36.4545 170.716 35.5337 170.716ZM34.1729 166.844C33.7775 167.409 33.9154 168.19 34.48 168.586L34.8212 168.824C35.3858 169.219 36.167 169.082 36.562 168.517L39.4666 164.367L37.077 162.695L34.1729 166.844ZM39.7791 163.921C39.7791 163.921 39.7787 163.921 39.7787 163.922L39.7791 163.921Z" fill="#46505C"/>
<path d="M45.7758 166.384C53.2722 166.384 59.3492 160.307 59.3492 152.811C59.3492 145.314 53.2722 139.237 45.7758 139.237C38.2795 139.237 32.2025 145.314 32.2025 152.811C32.2025 160.307 38.2795 166.384 45.7758 166.384Z" fill="white" stroke="#E6F3FF" stroke-width="2" stroke-miterlimit="10"/>
<path d="M45.7758 167.217C37.8321 167.217 31.3691 160.754 31.3691 152.811C31.3691 144.867 37.8321 138.404 45.7758 138.404C53.7196 138.404 60.1825 144.867 60.1825 152.811C60.1825 160.754 53.7196 167.217 45.7758 167.217ZM45.7758 140.071C38.7512 140.071 33.0358 145.786 33.0358 152.811C33.0358 159.835 38.7508 165.551 45.7758 165.551C52.8008 165.551 58.5158 159.835 58.5158 152.811C58.5158 145.786 52.8008 140.071 45.7758 140.071Z" fill="#46505C"/>
<path d="M45.7758 163.375C51.6105 163.375 56.3404 158.645 56.3404 152.811C56.3404 146.976 51.6105 142.246 45.7758 142.246C39.9412 142.246 35.2112 146.976 35.2112 152.811C35.2112 158.645 39.9412 163.375 45.7758 163.375Z" fill="#845B5B"/>
<path d="M45.7758 163.792C39.7208 163.792 34.7946 158.866 34.7946 152.811C34.7946 146.756 39.7208 141.83 45.7758 141.83C51.8308 141.83 56.7571 146.756 56.7571 152.811C56.7571 158.866 51.8308 163.792 45.7758 163.792ZM45.7758 142.663C40.1804 142.663 35.6279 147.215 35.6279 152.811C35.6279 158.406 40.1804 162.958 45.7758 162.958C51.3712 162.958 55.9237 158.406 55.9237 152.811C55.9237 147.215 51.3712 142.663 45.7758 142.663Z" fill="#46505C"/>
<path opacity="0.33" d="M38.8696 150.617C39.0109 150.299 39.1638 149.987 39.3196 149.681C40.0279 148.294 40.8754 146.854 42.2271 146.004C43.3754 145.281 44.9804 144.999 46.2246 145.637C47.3038 146.191 47.9542 147.331 48.9388 148.04C49.6025 148.446 50.2921 148.808 51.0034 149.124C51.7209 149.446 52.2888 150.03 52.5921 150.756C52.9254 151.775 52.3759 152.861 52.37 153.933C52.3684 154.524 52.5321 155.104 52.8438 155.606C53.0404 155.841 53.1671 156.127 53.2088 156.431C53.1479 156.828 52.8729 157.158 52.4942 157.29C51.3996 157.806 50.1217 157.62 48.9184 157.49C47.715 157.359 46.3829 157.333 45.4313 158.081C45.0421 158.44 44.6813 158.829 44.3525 159.244C43.8325 160.024 42.7788 160.234 41.9988 159.714C41.9088 159.654 41.825 159.586 41.7484 159.51C40.8859 158.787 40.1379 157.939 39.5292 156.992C38.89 156.193 38.4388 155.26 38.2084 154.262C37.9888 153.024 38.3517 151.784 38.8696 150.617Z" fill="#845B5B"/>
<path opacity="0.33" d="M47.9125 160.808C48.2747 160.808 48.5683 160.515 48.5683 160.152C48.5683 159.79 48.2747 159.497 47.9125 159.497C47.5503 159.497 47.2567 159.79 47.2567 160.152C47.2567 160.515 47.5503 160.808 47.9125 160.808Z" fill="#845B5B"/>
<path opacity="0.33" d="M46.2054 160.849C46.4563 160.849 46.6596 160.645 46.6596 160.394C46.6596 160.144 46.4563 159.94 46.2054 159.94C45.9546 159.94 45.7513 160.144 45.7513 160.394C45.7513 160.645 45.9546 160.849 46.2054 160.849Z" fill="#845B5B"/>
<path opacity="0.33" d="M49.4621 159.954C49.6894 159.954 49.8737 159.77 49.8737 159.543C49.8737 159.315 49.6894 159.131 49.4621 159.131C49.2347 159.131 49.0504 159.315 49.0504 159.543C49.0504 159.77 49.2347 159.954 49.4621 159.954Z" fill="#845B5B"/>
<path opacity="0.33" d="M44.7688 160.86C44.9317 160.86 45.0638 160.728 45.0638 160.565C45.0638 160.402 44.9317 160.27 44.7688 160.27C44.6058 160.27 44.4738 160.402 44.4738 160.565C44.4738 160.728 44.6058 160.86 44.7688 160.86Z" fill="#845B5B"/>
<path opacity="0.33" d="M50.7625 159.288C50.8619 159.288 50.9425 159.207 50.9425 159.108C50.9425 159.008 50.8619 158.928 50.7625 158.928C50.6631 158.928 50.5825 159.008 50.5825 159.108C50.5825 159.207 50.6631 159.288 50.7625 159.288Z" fill="#845B5B"/>
<path opacity="0.33" d="M37.5779 150.737C37.8112 150.737 38.0004 150.548 38.0004 150.314C38.0004 150.081 37.8112 149.892 37.5779 149.892C37.3446 149.892 37.1554 150.081 37.1554 150.314C37.1554 150.548 37.3446 150.737 37.5779 150.737Z" fill="#845B5B"/>
<path opacity="0.33" d="M49.08 145.796C49.2995 145.796 49.4775 145.618 49.4775 145.398C49.4775 145.179 49.2995 145.001 49.08 145.001C48.8605 145.001 48.6825 145.179 48.6825 145.398C48.6825 145.618 48.8605 145.796 49.08 145.796Z" fill="#845B5B"/>
<path opacity="0.33" d="M51.6637 147.717C51.8625 147.717 52.0237 147.555 52.0237 147.357C52.0237 147.158 51.8625 146.997 51.6637 146.997C51.4649 146.997 51.3037 147.158 51.3037 147.357C51.3037 147.555 51.4649 147.717 51.6637 147.717Z" fill="#845B5B"/>
<path opacity="0.33" d="M51.9592 148.534C52.0462 148.534 52.1167 148.463 52.1167 148.376C52.1167 148.29 52.0462 148.219 51.9592 148.219C51.8722 148.219 51.8017 148.29 51.8017 148.376C51.8017 148.463 51.8722 148.534 51.9592 148.534Z" fill="#845B5B"/>
<path d="M46.7017 154.517C47.1619 154.517 47.535 154.143 47.535 153.683C47.535 153.223 47.1619 152.85 46.7017 152.85C46.2414 152.85 45.8683 153.223 45.8683 153.683C45.8683 154.143 46.2414 154.517 46.7017 154.517Z" fill="#845B5B"/>
<path d="M43.9875 151.941C44.7929 151.941 45.4458 151.288 45.4458 150.483C45.4458 149.677 44.7929 149.024 43.9875 149.024C43.1821 149.024 42.5292 149.677 42.5292 150.483C42.5292 151.288 43.1821 151.941 43.9875 151.941Z" fill="#845B5B"/>
<path d="M173.333 124.335H76.6667C73.3354 124.335 70.625 121.625 70.625 118.293V61.6266C70.625 58.2954 73.3354 55.585 76.6667 55.585H173.333C176.665 55.585 179.375 58.2954 179.375 61.6266V118.293C179.375 121.625 176.665 124.335 173.333 124.335ZM76.6667 56.0016C73.565 56.0016 71.0417 58.525 71.0417 61.6266V118.293C71.0417 121.395 73.565 123.918 76.6667 123.918H173.333C176.435 123.918 178.958 121.395 178.958 118.293V61.6266C178.958 58.525 176.435 56.0016 173.333 56.0016H76.6667Z" fill="black"/>
<path d="M76.6666 55.7932H173.333C176.555 55.7932 179.167 58.4049 179.167 61.6265V118.293C179.167 121.515 176.555 124.127 173.333 124.127H76.6666C73.445 124.127 70.8333 121.515 70.8333 118.293V61.6265C70.8333 58.4049 73.445 55.7932 76.6666 55.7932Z" fill="#626C84"/>
<path d="M76.6666 55.7932H173.333C176.555 55.7932 179.167 58.4049 179.167 61.6265V118.293C179.167 121.515 176.555 124.127 173.333 124.127H76.6666C73.445 124.127 70.8333 121.515 70.8333 118.293V61.6265C70.8333 58.4049 73.445 55.7932 76.6666 55.7932Z" fill="#626C84"/>
<path opacity="0.17" d="M76.6666 55.7932H173.333C176.555 55.7932 179.167 58.4049 179.167 61.6265V114.55C179.167 117.772 176.555 120.383 173.333 120.383H76.6666C73.445 120.383 70.8333 117.772 70.8333 114.55V61.6265C70.8333 58.4049 73.445 55.7932 76.6666 55.7932Z" fill="#626C84"/>
<path opacity="0.1" d="M76.6666 57.4582H173.333C176.555 57.4582 179.167 60.0698 179.167 63.2915V118.291V61.6248C179.167 58.4032 176.555 55.7915 173.333 55.7915H76.6666C73.445 55.7915 70.8333 58.4032 70.8333 61.6248V63.2915C70.8333 60.0698 73.445 57.4582 76.6666 57.4582Z" fill="white"/>
<g opacity="0.1">
<path opacity="0.1" d="M103.845 124.127H110.54L160.187 55.7932H153.492L103.845 124.127Z" fill="white"/>
<path opacity="0.1" d="M114.402 124.127H116.462L166.11 55.7932H164.05L114.402 124.127Z" fill="white"/>
</g>
<path d="M173.333 124.96H76.6667C72.9908 124.96 70 121.969 70 118.293V61.6266C70 57.9508 72.9908 54.96 76.6667 54.96H173.333C177.009 54.96 180 57.9508 180 61.6266V118.293C180 121.969 177.009 124.96 173.333 124.96ZM76.6667 56.6266C73.9096 56.6266 71.6667 58.8695 71.6667 61.6266V118.293C71.6667 121.05 73.9096 123.293 76.6667 123.293H173.333C176.09 123.293 178.333 121.05 178.333 118.293V61.6266C178.333 58.8695 176.09 56.6266 173.333 56.6266H76.6667Z" fill="#46505C"/>
<path d="M171.667 63.4932H78.3333V115.993H171.667V63.4932Z" fill="#FD848E"/>
<g opacity="0.06">
<path opacity="0.06" d="M110.17 115.993H116.866L155.009 63.4932H148.314L110.17 115.993Z" fill="white"/>
<path opacity="0.06" d="M120.728 115.993H122.789L160.932 63.4932H158.872L120.728 115.993Z" fill="white"/>
</g>
<path d="M171.667 116.202H78.3333C78.2183 116.202 78.125 116.108 78.125 115.993V63.4932C78.125 63.3782 78.2183 63.2849 78.3333 63.2849H171.667C171.782 63.2849 171.875 63.3782 171.875 63.4932V115.993C171.875 116.108 171.782 116.202 171.667 116.202ZM78.5417 115.785H171.458V63.7016H78.5417V115.785Z" fill="#46505C"/>
<path d="M76.6666 124.126H173.333C176.555 124.126 179.167 126.738 179.167 129.96V189.96C179.167 193.181 176.555 195.793 173.333 195.793H76.6666C73.445 195.793 70.8333 193.181 70.8333 189.96V129.96C70.8333 126.738 73.445 124.126 76.6666 124.126Z" fill="#E6F3FF"/>
<path d="M177.5 129.96V189.96C177.5 192.261 175.635 194.127 173.333 194.127H76.6667C74.3654 194.127 72.5 192.261 72.5 189.96V129.96C72.5 127.659 74.3654 125.793 76.6667 125.793H173.333C175.635 125.793 177.5 127.659 177.5 129.96Z" fill="white" stroke="#E6F3FF" stroke-width="2" stroke-miterlimit="10"/>
<path d="M118.312 192.535H131.687C132.607 192.535 133.354 193.281 133.354 194.202V195.793H116.645V194.202C116.645 193.281 117.392 192.535 118.312 192.535Z" fill="#E6F3FF"/>
<path d="M173.333 196.627H76.6667C72.9908 196.627 70 193.636 70 189.96V129.96C70 126.284 72.9908 123.293 76.6667 123.293H173.333C177.009 123.293 180 126.284 180 129.96V189.96C180 193.636 177.009 196.627 173.333 196.627ZM76.6667 124.96C73.9096 124.96 71.6667 127.203 71.6667 129.96V189.96C71.6667 192.717 73.9096 194.96 76.6667 194.96H173.333C176.09 194.96 178.333 192.717 178.333 189.96V129.96C178.333 127.203 176.09 124.96 173.333 124.96H76.6667Z" fill="#46505C"/>
<path d="M78.3333 129.718H171.667C172.357 129.718 172.917 130.277 172.917 130.968V166.801C172.917 167.492 172.357 168.051 171.667 168.051H78.3333C77.6429 168.051 77.0833 167.492 77.0833 166.801V130.968C77.0833 130.277 77.6429 129.718 78.3333 129.718Z" fill="#E6F3FF"/>
<path d="M95.4517 164.718H90.4517C90.1071 164.718 89.8267 164.437 89.8267 164.093V159.093C89.8267 158.748 90.1071 158.468 90.4517 158.468H95.4517C95.7962 158.468 96.0767 158.748 96.0767 159.093V164.093C96.0767 164.437 95.7962 164.718 95.4517 164.718ZM90.4517 158.884C90.3367 158.884 90.2433 158.978 90.2433 159.093V164.093C90.2433 164.207 90.3367 164.301 90.4517 164.301H95.4517C95.5667 164.301 95.66 164.207 95.66 164.093V159.093C95.66 158.978 95.5667 158.884 95.4517 158.884H90.4517Z" fill="#626C84"/>
<path d="M86.4358 164.718H81.4358C81.0912 164.718 80.8108 164.437 80.8108 164.093V159.093C80.8108 158.748 81.0912 158.468 81.4358 158.468H86.4358C86.7804 158.468 87.0608 158.748 87.0608 159.093V164.093C87.0608 164.437 86.7804 164.718 86.4358 164.718ZM81.4358 158.884C81.3208 158.884 81.2275 158.978 81.2275 159.093V164.093C81.2275 164.207 81.3208 164.301 81.4358 164.301H86.4358C86.5508 164.301 86.6441 164.207 86.6441 164.093V159.093C86.6441 158.978 86.5508 158.884 86.4358 158.884H81.4358Z" fill="#626C84"/>
<path d="M140.532 164.718H99.4679C99.1233 164.718 98.8429 164.437 98.8429 164.093V159.093C98.8429 158.748 99.1233 158.468 99.4679 158.468H140.532C140.877 158.468 141.157 158.748 141.157 159.093V164.093C141.157 164.437 140.877 164.718 140.532 164.718ZM99.4679 158.884C99.3529 158.884 99.2596 158.978 99.2596 159.093V164.093C99.2596 164.207 99.3529 164.301 99.4679 164.301H140.532C140.647 164.301 140.74 164.207 140.74 164.093V159.093C140.74 158.978 140.647 158.884 140.532 158.884H99.4679Z" fill="#626C84"/>
<path d="M149.548 164.718H144.548C144.204 164.718 143.923 164.437 143.923 164.093V159.093C143.923 158.748 144.204 158.468 144.548 158.468H149.548C149.893 158.468 150.173 158.748 150.173 159.093V164.093C150.173 164.437 149.893 164.718 149.548 164.718ZM144.548 158.884C144.434 158.884 144.34 158.978 144.34 159.093V164.093C144.34 164.207 144.434 164.301 144.548 164.301H149.548C149.663 164.301 149.757 164.207 149.757 164.093V159.093C149.757 158.978 149.663 158.884 149.548 158.884H144.548Z" fill="#626C84"/>
<path d="M162.731 164.718H159.397C159.053 164.718 158.772 164.437 158.772 164.093V162.374C158.772 162.029 159.053 161.749 159.397 161.749H162.731C163.075 161.749 163.356 162.029 163.356 162.374V164.093C163.356 164.437 163.075 164.718 162.731 164.718ZM159.397 162.166C159.283 162.166 159.189 162.259 159.189 162.374V164.093C159.189 164.207 159.283 164.301 159.397 164.301H162.731C162.845 164.301 162.939 164.207 162.939 164.093V162.374C162.939 162.259 162.845 162.166 162.731 162.166H159.397Z" fill="#626C84"/>
<path d="M162.731 161.437H159.397C159.053 161.437 158.772 161.156 158.772 160.812V159.093C158.772 158.748 159.053 158.468 159.397 158.468H162.731C163.075 158.468 163.356 158.748 163.356 159.093V160.812C163.356 161.156 163.075 161.437 162.731 161.437ZM159.397 158.884C159.283 158.884 159.189 158.978 159.189 159.093V160.812C159.189 160.926 159.283 161.02 159.397 161.02H162.731C162.845 161.02 162.939 160.926 162.939 160.812V159.093C162.939 158.978 162.845 158.884 162.731 158.884H159.397Z" fill="#626C84"/>
<path d="M168.564 164.718H165.231C164.886 164.718 164.606 164.437 164.606 164.093V162.374C164.606 162.029 164.886 161.749 165.231 161.749H168.564C168.909 161.749 169.189 162.029 169.189 162.374V164.093C169.189 164.437 168.909 164.718 168.564 164.718ZM165.231 162.166C165.116 162.166 165.022 162.259 165.022 162.374V164.093C165.022 164.207 165.116 164.301 165.231 164.301H168.564C168.679 164.301 168.772 164.207 168.772 164.093V162.374C168.772 162.259 168.679 162.166 168.564 162.166H165.231Z" fill="#626C84"/>
<path d="M156.898 164.718H153.564C153.22 164.718 152.939 164.437 152.939 164.093V162.374C152.939 162.029 153.22 161.749 153.564 161.749H156.898C157.242 161.749 157.523 162.029 157.523 162.374V164.093C157.523 164.437 157.242 164.718 156.898 164.718ZM153.564 162.166C153.45 162.166 153.356 162.259 153.356 162.374V164.093C153.356 164.207 153.45 164.301 153.564 164.301H156.898C157.012 164.301 157.106 164.207 157.106 164.093V162.374C157.106 162.259 157.012 162.166 156.898 162.166H153.564Z" fill="#626C84"/>
<path d="M94.6187 156.418H81.4358C81.0912 156.418 80.8108 156.138 80.8108 155.793V150.793C80.8108 150.449 81.0912 150.168 81.4358 150.168H94.6187C94.9633 150.168 95.2437 150.449 95.2437 150.793V155.793C95.2437 156.138 94.9633 156.418 94.6187 156.418ZM81.4358 150.585C81.3208 150.585 81.2275 150.679 81.2275 150.793V155.793C81.2275 155.908 81.3208 156.002 81.4358 156.002H94.6187C94.7337 156.002 94.8271 155.908 94.8271 155.793V150.793C94.8271 150.679 94.7337 150.585 94.6187 150.585H81.4358Z" fill="#626C84"/>
<path d="M103.71 156.418H98.71C98.3654 156.418 98.085 156.138 98.085 155.793V150.793C98.085 150.449 98.3654 150.168 98.71 150.168H103.71C104.055 150.168 104.335 150.449 104.335 150.793V155.793C104.335 156.138 104.055 156.418 103.71 156.418ZM98.71 150.585C98.595 150.585 98.5017 150.679 98.5017 150.793V155.793C98.5017 155.908 98.595 156.002 98.71 156.002H103.71C103.825 156.002 103.918 155.908 103.918 155.793V150.793C103.918 150.679 103.825 150.585 103.71 150.585H98.71Z" fill="#626C84"/>
<path d="M112.726 156.418H107.726C107.381 156.418 107.101 156.138 107.101 155.793V150.793C107.101 150.449 107.381 150.168 107.726 150.168H112.726C113.07 150.168 113.351 150.449 113.351 150.793V155.793C113.351 156.138 113.07 156.418 112.726 156.418ZM107.726 150.585C107.611 150.585 107.517 150.679 107.517 150.793V155.793C107.517 155.908 107.611 156.002 107.726 156.002H112.726C112.841 156.002 112.934 155.908 112.934 155.793V150.793C112.934 150.679 112.841 150.585 112.726 150.585H107.726Z" fill="#626C84"/>
<path d="M121.742 156.418H116.742C116.397 156.418 116.117 156.138 116.117 155.793V150.793C116.117 150.449 116.397 150.168 116.742 150.168H121.742C122.087 150.168 122.367 150.449 122.367 150.793V155.793C122.367 156.138 122.087 156.418 121.742 156.418ZM116.742 150.585C116.627 150.585 116.534 150.679 116.534 150.793V155.793C116.534 155.908 116.627 156.002 116.742 156.002H121.742C121.857 156.002 121.95 155.908 121.95 155.793V150.793C121.95 150.679 121.857 150.585 121.742 150.585H116.742Z" fill="#626C84"/>
<path d="M130.758 156.418H125.758C125.413 156.418 125.133 156.138 125.133 155.793V150.793C125.133 150.449 125.413 150.168 125.758 150.168H130.758C131.103 150.168 131.383 150.449 131.383 150.793V155.793C131.383 156.138 131.103 156.418 130.758 156.418ZM125.758 150.585C125.643 150.585 125.549 150.679 125.549 150.793V155.793C125.549 155.908 125.643 156.002 125.758 156.002H130.758C130.873 156.002 130.966 155.908 130.966 155.793V150.793C130.966 150.679 130.873 150.585 130.758 150.585H125.758Z" fill="#626C84"/>
<path d="M139.774 156.418H134.774C134.43 156.418 134.149 156.138 134.149 155.793V150.793C134.149 150.449 134.43 150.168 134.774 150.168H139.774C140.119 150.168 140.399 150.449 140.399 150.793V155.793C140.399 156.138 140.119 156.418 139.774 156.418ZM134.774 150.585C134.66 150.585 134.566 150.679 134.566 150.793V155.793C134.566 155.908 134.66 156.002 134.774 156.002H139.774C139.889 156.002 139.983 155.908 139.983 155.793V150.793C139.983 150.679 139.889 150.585 139.774 150.585H134.774Z" fill="#626C84"/>
<path d="M148.79 156.418H143.79C143.445 156.418 143.165 156.138 143.165 155.793V150.793C143.165 150.449 143.445 150.168 143.79 150.168H148.79C149.135 150.168 149.415 150.449 149.415 150.793V155.793C149.415 156.138 149.135 156.418 148.79 156.418ZM143.79 150.585C143.675 150.585 143.582 150.679 143.582 150.793V155.793C143.582 155.908 143.675 156.002 143.79 156.002H148.79C148.905 156.002 148.998 155.908 148.998 155.793V150.793C148.998 150.679 148.905 150.585 148.79 150.585H143.79Z" fill="#626C84"/>
<path d="M168.564 156.418H153.564C153.22 156.418 152.939 156.138 152.939 155.793V150.793C152.939 150.449 153.22 150.168 153.564 150.168H168.564C168.909 150.168 169.189 150.449 169.189 150.793V155.793C169.189 156.138 168.909 156.418 168.564 156.418ZM153.564 150.585C153.45 150.585 153.356 150.679 153.356 150.793V155.793C153.356 155.908 153.45 156.002 153.564 156.002H168.564C168.679 156.002 168.772 155.908 168.772 155.793V150.793C168.772 150.679 168.679 150.585 168.564 150.585H153.564Z" fill="#626C84"/>
<path d="M100.452 147.885H95.4517C95.1071 147.885 94.8267 147.605 94.8267 147.26V142.26C94.8267 141.915 95.1071 141.635 95.4517 141.635H100.452C100.796 141.635 101.077 141.915 101.077 142.26V147.26C101.077 147.605 100.796 147.885 100.452 147.885ZM95.4517 142.052C95.3367 142.052 95.2433 142.145 95.2433 142.26V147.26C95.2433 147.375 95.3367 147.468 95.4517 147.468H100.452C100.567 147.468 100.66 147.375 100.66 147.26V142.26C100.66 142.145 100.567 142.052 100.452 142.052H95.4517Z" fill="#626C84"/>
<path d="M91.4358 147.885H81.4358C81.0912 147.885 80.8108 147.605 80.8108 147.26V142.26C80.8108 141.915 81.0912 141.635 81.4358 141.635H91.4358C91.7804 141.635 92.0608 141.915 92.0608 142.26V147.26C92.0608 147.605 91.7804 147.885 91.4358 147.885ZM81.4358 142.052C81.3208 142.052 81.2275 142.145 81.2275 142.26V147.26C81.2275 147.375 81.3208 147.468 81.4358 147.468H91.4358C91.5508 147.468 91.6441 147.375 91.6441 147.26V142.26C91.6441 142.145 91.5508 142.052 91.4358 142.052H81.4358Z" fill="#626C84"/>
<path d="M109.468 147.885H104.468C104.123 147.885 103.843 147.605 103.843 147.26V142.26C103.843 141.915 104.123 141.635 104.468 141.635H109.468C109.812 141.635 110.093 141.915 110.093 142.26V147.26C110.093 147.605 109.812 147.885 109.468 147.885ZM104.468 142.052C104.353 142.052 104.26 142.145 104.26 142.26V147.26C104.26 147.375 104.353 147.468 104.468 147.468H109.468C109.583 147.468 109.676 147.375 109.676 147.26V142.26C109.676 142.145 109.583 142.052 109.468 142.052H104.468Z" fill="#626C84"/>
<path d="M118.484 147.885H113.484C113.139 147.885 112.859 147.605 112.859 147.26V142.26C112.859 141.915 113.139 141.635 113.484 141.635H118.484C118.828 141.635 119.109 141.915 119.109 142.26V147.26C119.109 147.605 118.828 147.885 118.484 147.885ZM113.484 142.052C113.369 142.052 113.275 142.145 113.275 142.26V147.26C113.275 147.375 113.369 147.468 113.484 147.468H118.484C118.599 147.468 118.692 147.375 118.692 147.26V142.26C118.692 142.145 118.599 142.052 118.484 142.052H113.484Z" fill="#626C84"/>
<path d="M127.5 147.885H122.5C122.155 147.885 121.875 147.605 121.875 147.26V142.26C121.875 141.915 122.155 141.635 122.5 141.635H127.5C127.845 141.635 128.125 141.915 128.125 142.26V147.26C128.125 147.605 127.845 147.885 127.5 147.885ZM122.5 142.052C122.385 142.052 122.292 142.145 122.292 142.26V147.26C122.292 147.375 122.385 147.468 122.5 147.468H127.5C127.615 147.468 127.708 147.375 127.708 147.26V142.26C127.708 142.145 127.615 142.052 127.5 142.052H122.5Z" fill="#626C84"/>
<path d="M136.516 147.885H131.516C131.172 147.885 130.891 147.605 130.891 147.26V142.26C130.891 141.915 131.172 141.635 131.516 141.635H136.516C136.861 141.635 137.141 141.915 137.141 142.26V147.26C137.141 147.605 136.861 147.885 136.516 147.885ZM131.516 142.052C131.402 142.052 131.308 142.145 131.308 142.26V147.26C131.308 147.375 131.402 147.468 131.516 147.468H136.516C136.631 147.468 136.725 147.375 136.725 147.26V142.26C136.725 142.145 136.631 142.052 136.516 142.052H131.516Z" fill="#626C84"/>
<path d="M145.532 147.885H140.532C140.188 147.885 139.907 147.605 139.907 147.26V142.26C139.907 141.915 140.188 141.635 140.532 141.635H145.532C145.877 141.635 146.157 141.915 146.157 142.26V147.26C146.157 147.605 145.877 147.885 145.532 147.885ZM140.532 142.052C140.418 142.052 140.324 142.145 140.324 142.26V147.26C140.324 147.375 140.418 147.468 140.532 147.468H145.532C145.647 147.468 145.74 147.375 145.74 147.26V142.26C145.74 142.145 145.647 142.052 145.532 142.052H140.532Z" fill="#626C84"/>
<path d="M154.548 147.885H149.548C149.204 147.885 148.923 147.605 148.923 147.26V142.26C148.923 141.915 149.204 141.635 149.548 141.635H154.548C154.893 141.635 155.173 141.915 155.173 142.26V147.26C155.173 147.605 154.893 147.885 154.548 147.885ZM149.548 142.052C149.434 142.052 149.34 142.145 149.34 142.26V147.26C149.34 147.375 149.434 147.468 149.548 147.468H154.548C154.663 147.468 154.757 147.375 154.757 147.26V142.26C154.757 142.145 154.663 142.052 154.548 142.052H149.548Z" fill="#626C84"/>
<path d="M168.564 147.885H158.564C158.22 147.885 157.939 147.605 157.939 147.26V142.26C157.939 141.915 158.22 141.635 158.564 141.635H168.564C168.909 141.635 169.189 141.915 169.189 142.26V147.26C169.189 147.605 168.909 147.885 168.564 147.885ZM158.564 142.052C158.45 142.052 158.356 142.145 158.356 142.26V147.26C158.356 147.375 158.45 147.468 158.564 147.468H168.564C168.679 147.468 168.773 147.375 168.773 147.26V142.26C168.773 142.145 168.679 142.052 168.564 142.052H158.564Z" fill="#626C84"/>
<path d="M95.5613 139.718H90.5613C90.2167 139.718 89.9363 139.437 89.9363 139.093V134.093C89.9363 133.748 90.2167 133.468 90.5613 133.468H95.5613C95.9059 133.468 96.1863 133.748 96.1863 134.093V139.093C96.1863 139.437 95.9059 139.718 95.5613 139.718ZM90.5613 133.884C90.4463 133.884 90.3529 133.978 90.3529 134.093V139.093C90.3529 139.207 90.4463 139.301 90.5613 139.301H95.5613C95.6763 139.301 95.7696 139.207 95.7696 139.093V134.093C95.7696 133.978 95.6763 133.884 95.5613 133.884H90.5613Z" fill="#626C84"/>
<path d="M86.4358 139.718H81.4358C81.0912 139.718 80.8108 139.437 80.8108 139.093V134.093C80.8108 133.748 81.0912 133.468 81.4358 133.468H86.4358C86.7804 133.468 87.0608 133.748 87.0608 134.093V139.093C87.0608 139.437 86.7804 139.718 86.4358 139.718ZM81.4358 133.884C81.3208 133.884 81.2275 133.978 81.2275 134.093V139.093C81.2275 139.207 81.3208 139.301 81.4358 139.301H86.4358C86.5508 139.301 86.6441 139.207 86.6441 139.093V134.093C86.6441 133.978 86.5508 133.884 86.4358 133.884H81.4358Z" fill="#626C84"/>
<path d="M104.687 139.718H99.6866C99.3421 139.718 99.0616 139.437 99.0616 139.093V134.093C99.0616 133.748 99.3421 133.468 99.6866 133.468H104.687C105.031 133.468 105.312 133.748 105.312 134.093V139.093C105.312 139.437 105.031 139.718 104.687 139.718ZM99.6866 133.884C99.5716 133.884 99.4783 133.978 99.4783 134.093V139.093C99.4783 139.207 99.5716 139.301 99.6866 139.301H104.687C104.802 139.301 104.895 139.207 104.895 139.093V134.093C104.895 133.978 104.802 133.884 104.687 133.884H99.6866Z" fill="#626C84"/>
<path d="M113.812 139.718H108.812C108.467 139.718 108.187 139.437 108.187 139.093V134.093C108.187 133.748 108.467 133.468 108.812 133.468H113.812C114.157 133.468 114.437 133.748 114.437 134.093V139.093C114.437 139.437 114.157 139.718 113.812 139.718ZM108.812 133.884C108.697 133.884 108.604 133.978 108.604 134.093V139.093C108.604 139.207 108.697 139.301 108.812 139.301H113.812C113.927 139.301 114.02 139.207 114.02 139.093V134.093C114.02 133.978 113.927 133.884 113.812 133.884H108.812Z" fill="#626C84"/>
<path d="M122.937 139.718H117.937C117.593 139.718 117.312 139.437 117.312 139.093V134.093C117.312 133.748 117.593 133.468 117.937 133.468H122.937C123.282 133.468 123.562 133.748 123.562 134.093V139.093C123.562 139.437 123.282 139.718 122.937 139.718ZM117.937 133.884C117.822 133.884 117.729 133.978 117.729 134.093V139.093C117.729 139.207 117.822 139.301 117.937 139.301H122.937C123.052 139.301 123.146 139.207 123.146 139.093V134.093C123.146 133.978 123.052 133.884 122.937 133.884H117.937Z" fill="#626C84"/>
<path d="M132.063 139.718H127.063C126.718 139.718 126.438 139.437 126.438 139.093V134.093C126.438 133.748 126.718 133.468 127.063 133.468H132.063C132.407 133.468 132.688 133.748 132.688 134.093V139.093C132.688 139.437 132.407 139.718 132.063 139.718ZM127.063 133.884C126.948 133.884 126.854 133.978 126.854 134.093V139.093C126.854 139.207 126.948 139.301 127.063 139.301H132.063C132.177 139.301 132.271 139.207 132.271 139.093V134.093C132.271 133.978 132.177 133.884 132.063 133.884H127.063Z" fill="#626C84"/>
<path d="M141.188 139.718H136.188C135.843 139.718 135.563 139.437 135.563 139.093V134.093C135.563 133.748 135.843 133.468 136.188 133.468H141.188C141.532 133.468 141.813 133.748 141.813 134.093V139.093C141.813 139.437 141.532 139.718 141.188 139.718ZM136.188 133.884C136.073 133.884 135.98 133.978 135.98 134.093V139.093C135.98 139.207 136.073 139.301 136.188 139.301H141.188C141.302 139.301 141.396 139.207 141.396 139.093V134.093C141.396 133.978 141.302 133.884 141.188 133.884H136.188Z" fill="#626C84"/>
<path d="M150.313 139.718H145.313C144.969 139.718 144.688 139.437 144.688 139.093V134.093C144.688 133.748 144.969 133.468 145.313 133.468H150.313C150.658 133.468 150.938 133.748 150.938 134.093V139.093C150.938 139.437 150.658 139.718 150.313 139.718ZM145.313 133.884C145.199 133.884 145.105 133.978 145.105 134.093V139.093C145.105 139.207 145.199 139.301 145.313 139.301H150.313C150.428 139.301 150.522 139.207 150.522 139.093V134.093C150.522 133.978 150.428 133.884 150.313 133.884H145.313Z" fill="#626C84"/>
<path d="M159.439 139.718H154.439C154.094 139.718 153.814 139.437 153.814 139.093V134.093C153.814 133.748 154.094 133.468 154.439 133.468H159.439C159.783 133.468 160.064 133.748 160.064 134.093V139.093C160.064 139.437 159.783 139.718 159.439 139.718ZM154.439 133.884C154.324 133.884 154.23 133.978 154.23 134.093V139.093C154.23 139.207 154.324 139.301 154.439 139.301H159.439C159.553 139.301 159.647 139.207 159.647 139.093V134.093C159.647 133.978 159.553 133.884 159.439 133.884H154.439Z" fill="#626C84"/>
<path d="M168.564 139.718H163.564C163.22 139.718 162.939 139.437 162.939 139.093V134.093C162.939 133.748 163.22 133.468 163.564 133.468H168.564C168.909 133.468 169.189 133.748 169.189 134.093V139.093C169.189 139.437 168.909 139.718 168.564 139.718ZM163.564 133.884C163.45 133.884 163.356 133.978 163.356 134.093V139.093C163.356 139.207 163.45 139.301 163.564 139.301H168.564C168.679 139.301 168.773 139.207 168.773 139.093V134.093C168.773 133.978 168.679 133.884 168.564 133.884H163.564Z" fill="#626C84"/>
<path d="M90.4516 158.676H95.4516C95.6816 158.676 95.8683 158.863 95.8683 159.093V164.093C95.8683 164.323 95.6816 164.509 95.4516 164.509H90.4516C90.2216 164.509 90.035 164.323 90.035 164.093V159.093C90.035 158.863 90.2216 158.676 90.4516 158.676Z" fill="#626C84"/>
<path d="M81.4358 158.676H86.4358C86.6658 158.676 86.8525 158.863 86.8525 159.093V164.093C86.8525 164.323 86.6658 164.509 86.4358 164.509H81.4358C81.2058 164.509 81.0192 164.323 81.0192 164.093V159.093C81.0192 158.863 81.2058 158.676 81.4358 158.676Z" fill="#626C84"/>
<path d="M99.4679 158.676H140.532C140.762 158.676 140.949 158.863 140.949 159.093V164.093C140.949 164.323 140.762 164.509 140.532 164.509H99.4679C99.2379 164.509 99.0513 164.323 99.0513 164.093V159.093C99.0513 158.863 99.2379 158.676 99.4679 158.676Z" fill="#626C84"/>
<path d="M144.548 158.676H149.548C149.778 158.676 149.965 158.863 149.965 159.093V164.093C149.965 164.323 149.778 164.509 149.548 164.509H144.548C144.318 164.509 144.132 164.323 144.132 164.093V159.093C144.132 158.863 144.318 158.676 144.548 158.676Z" fill="#626C84"/>
<path d="M159.398 161.957H162.731C162.961 161.957 163.147 162.144 163.147 162.374V164.093C163.147 164.323 162.961 164.509 162.731 164.509H159.398C159.168 164.509 158.981 164.323 158.981 164.093V162.374C158.981 162.144 159.168 161.957 159.398 161.957Z" fill="#626C84"/>
<path d="M159.398 158.676H162.731C162.961 158.676 163.147 158.863 163.147 159.093V160.811C163.147 161.041 162.961 161.228 162.731 161.228H159.398C159.168 161.228 158.981 161.041 158.981 160.811V159.093C158.981 158.863 159.168 158.676 159.398 158.676Z" fill="#626C84"/>
<path d="M165.231 161.957H168.564C168.794 161.957 168.981 162.144 168.981 162.374V164.093C168.981 164.323 168.794 164.509 168.564 164.509H165.231C165.001 164.509 164.814 164.323 164.814 164.093V162.374C164.814 162.144 165.001 161.957 165.231 161.957Z" fill="#626C84"/>
<path d="M153.564 161.957H156.897C157.127 161.957 157.314 162.144 157.314 162.374V164.093C157.314 164.323 157.127 164.509 156.897 164.509H153.564C153.334 164.509 153.147 164.323 153.147 164.093V162.374C153.147 162.144 153.334 161.957 153.564 161.957Z" fill="#626C84"/>
<path d="M81.4358 150.377H94.6187C94.8487 150.377 95.0354 150.563 95.0354 150.793V155.793C95.0354 156.023 94.8487 156.21 94.6187 156.21H81.4358C81.2058 156.21 81.0192 156.023 81.0192 155.793V150.793C81.0192 150.563 81.2058 150.377 81.4358 150.377Z" fill="#626C84"/>
<path d="M98.71 150.377H103.71C103.94 150.377 104.127 150.563 104.127 150.793V155.793C104.127 156.023 103.94 156.21 103.71 156.21H98.71C98.48 156.21 98.2933 156.023 98.2933 155.793V150.793C98.2933 150.563 98.48 150.377 98.71 150.377Z" fill="#626C84"/>
<path d="M107.726 150.377H112.726C112.956 150.377 113.143 150.563 113.143 150.793V155.793C113.143 156.023 112.956 156.21 112.726 156.21H107.726C107.496 156.21 107.309 156.023 107.309 155.793V150.793C107.309 150.563 107.496 150.377 107.726 150.377Z" fill="#626C84"/>
<path d="M116.742 150.377H121.742C121.972 150.377 122.159 150.563 122.159 150.793V155.793C122.159 156.023 121.972 156.21 121.742 156.21H116.742C116.512 156.21 116.325 156.023 116.325 155.793V150.793C116.325 150.563 116.512 150.377 116.742 150.377Z" fill="#626C84"/>
<path d="M125.758 150.377H130.758C130.988 150.377 131.175 150.563 131.175 150.793V155.793C131.175 156.023 130.988 156.21 130.758 156.21H125.758C125.528 156.21 125.341 156.023 125.341 155.793V150.793C125.341 150.563 125.528 150.377 125.758 150.377Z" fill="#626C84"/>
<path d="M134.774 150.377H139.774C140.004 150.377 140.191 150.563 140.191 150.793V155.793C140.191 156.023 140.004 156.21 139.774 156.21H134.774C134.544 156.21 134.358 156.023 134.358 155.793V150.793C134.358 150.563 134.544 150.377 134.774 150.377Z" fill="#626C84"/>
<path d="M143.79 150.377H148.79C149.02 150.377 149.207 150.563 149.207 150.793V155.793C149.207 156.023 149.02 156.21 148.79 156.21H143.79C143.56 156.21 143.373 156.023 143.373 155.793V150.793C143.373 150.563 143.56 150.377 143.79 150.377Z" fill="#626C84"/>
<path d="M153.564 150.377H168.564C168.794 150.377 168.981 150.563 168.981 150.793V155.793C168.981 156.023 168.794 156.21 168.564 156.21H153.564C153.334 156.21 153.147 156.023 153.147 155.793V150.793C153.147 150.563 153.334 150.377 153.564 150.377Z" fill="#626C84"/>
<path d="M95.4517 141.843H100.452C100.682 141.843 100.868 142.03 100.868 142.26V147.26C100.868 147.49 100.682 147.677 100.452 147.677H95.4517C95.2217 147.677 95.035 147.49 95.035 147.26V142.26C95.035 142.03 95.2217 141.843 95.4517 141.843Z" fill="#626C84"/>
<path d="M81.4358 141.843H91.4358C91.6658 141.843 91.8525 142.03 91.8525 142.26V147.26C91.8525 147.49 91.6658 147.677 91.4358 147.677H81.4358C81.2058 147.677 81.0192 147.49 81.0192 147.26V142.26C81.0192 142.03 81.2058 141.843 81.4358 141.843Z" fill="#626C84"/>
<path d="M104.468 141.843H109.468C109.698 141.843 109.885 142.03 109.885 142.26V147.26C109.885 147.49 109.698 147.677 109.468 147.677H104.468C104.238 147.677 104.051 147.49 104.051 147.26V142.26C104.051 142.03 104.238 141.843 104.468 141.843Z" fill="#626C84"/>
<path d="M113.484 141.843H118.484C118.714 141.843 118.9 142.03 118.9 142.26V147.26C118.9 147.49 118.714 147.677 118.484 147.677H113.484C113.254 147.677 113.067 147.49 113.067 147.26V142.26C113.067 142.03 113.254 141.843 113.484 141.843Z" fill="#626C84"/>
<path d="M122.5 141.843H127.5C127.73 141.843 127.917 142.03 127.917 142.26V147.26C127.917 147.49 127.73 147.677 127.5 147.677H122.5C122.27 147.677 122.083 147.49 122.083 147.26V142.26C122.083 142.03 122.27 141.843 122.5 141.843Z" fill="#626C84"/>
<path d="M131.516 141.843H136.516C136.746 141.843 136.933 142.03 136.933 142.26V147.26C136.933 147.49 136.746 147.677 136.516 147.677H131.516C131.286 147.677 131.1 147.49 131.1 147.26V142.26C131.1 142.03 131.286 141.843 131.516 141.843Z" fill="#626C84"/>
<path d="M140.532 141.843H145.532C145.762 141.843 145.949 142.03 145.949 142.26V147.26C145.949 147.49 145.762 147.677 145.532 147.677H140.532C140.302 147.677 140.115 147.49 140.115 147.26V142.26C140.115 142.03 140.302 141.843 140.532 141.843Z" fill="#626C84"/>
<path d="M149.548 141.843H154.548C154.778 141.843 154.965 142.03 154.965 142.26V147.26C154.965 147.49 154.778 147.677 154.548 147.677H149.548C149.318 147.677 149.132 147.49 149.132 147.26V142.26C149.132 142.03 149.318 141.843 149.548 141.843Z" fill="#626C84"/>
<path d="M158.564 141.843H168.564C168.794 141.843 168.981 142.03 168.981 142.26V147.26C168.981 147.49 168.794 147.677 168.564 147.677H158.564C158.334 147.677 158.147 147.49 158.147 147.26V142.26C158.147 142.03 158.334 141.843 158.564 141.843Z" fill="#626C84"/>
<path d="M90.5613 133.676H95.5613C95.7913 133.676 95.9779 133.863 95.9779 134.093V139.093C95.9779 139.323 95.7913 139.509 95.5613 139.509H90.5613C90.3313 139.509 90.1446 139.323 90.1446 139.093V134.093C90.1446 133.863 90.3313 133.676 90.5613 133.676Z" fill="#626C84"/>
<path d="M81.4358 133.676H86.4358C86.6658 133.676 86.8525 133.863 86.8525 134.093V139.093C86.8525 139.323 86.6658 139.509 86.4358 139.509H81.4358C81.2058 139.509 81.0192 139.323 81.0192 139.093V134.093C81.0192 133.863 81.2058 133.676 81.4358 133.676Z" fill="#626C84"/>
<path d="M99.6867 133.676H104.687C104.917 133.676 105.103 133.863 105.103 134.093V139.093C105.103 139.323 104.917 139.509 104.687 139.509H99.6867C99.4567 139.509 99.27 139.323 99.27 139.093V134.093C99.27 133.863 99.4567 133.676 99.6867 133.676Z" fill="#626C84"/>
<path d="M108.812 133.676H113.812C114.042 133.676 114.229 133.863 114.229 134.093V139.093C114.229 139.323 114.042 139.509 113.812 139.509H108.812C108.582 139.509 108.395 139.323 108.395 139.093V134.093C108.395 133.863 108.582 133.676 108.812 133.676Z" fill="#626C84"/>
<path d="M117.938 133.676H122.938C123.168 133.676 123.354 133.863 123.354 134.093V139.093C123.354 139.323 123.168 139.509 122.938 139.509H117.938C117.708 139.509 117.521 139.323 117.521 139.093V134.093C117.521 133.863 117.708 133.676 117.938 133.676Z" fill="#626C84"/>
<path d="M127.063 133.676H132.063C132.293 133.676 132.479 133.863 132.479 134.093V139.093C132.479 139.323 132.293 139.509 132.063 139.509H127.063C126.833 139.509 126.646 139.323 126.646 139.093V134.093C126.646 133.863 126.833 133.676 127.063 133.676Z" fill="#626C84"/>
<path d="M136.188 133.676H141.188C141.418 133.676 141.605 133.863 141.605 134.093V139.093C141.605 139.323 141.418 139.509 141.188 139.509H136.188C135.958 139.509 135.771 139.323 135.771 139.093V134.093C135.771 133.863 135.958 133.676 136.188 133.676Z" fill="#626C84"/>
<path d="M145.313 133.676H150.313C150.543 133.676 150.73 133.863 150.73 134.093V139.093C150.73 139.323 150.543 139.509 150.313 139.509H145.313C145.083 139.509 144.897 139.323 144.897 139.093V134.093C144.897 133.863 145.083 133.676 145.313 133.676Z" fill="#626C84"/>
<path d="M154.439 133.676H159.439C159.669 133.676 159.855 133.863 159.855 134.093V139.093C159.855 139.323 159.669 139.509 159.439 139.509H154.439C154.209 139.509 154.022 139.323 154.022 139.093V134.093C154.022 133.863 154.209 133.676 154.439 133.676Z" fill="#626C84"/>
<path d="M163.564 133.676H168.564C168.794 133.676 168.981 133.863 168.981 134.093V139.093C168.981 139.323 168.794 139.509 168.564 139.509H163.564C163.334 139.509 163.147 139.323 163.147 139.093V134.093C163.147 133.863 163.334 133.676 163.564 133.676Z" fill="#626C84"/>
<path d="M89.5833 120.383H160.417V125.986C160.417 126.906 159.67 127.652 158.75 127.652H91.25C90.3296 127.652 89.5833 126.906 89.5833 125.986V120.383Z" fill="#626C84"/>
<path opacity="0.12" d="M160.417 120.383H89.5833V121.217H160.417V120.383Z" fill="white"/>
<path opacity="0.25" d="M158.75 125.985H91.25C90.3296 125.985 89.5833 125.239 89.5833 124.319V125.985C89.5833 126.906 90.3296 127.652 91.25 127.652H158.75C159.67 127.652 160.417 126.906 160.417 125.985V124.319C160.417 125.239 159.67 125.985 158.75 125.985Z" fill="#626C84"/>
<path d="M158.75 128.069H91.25C90.1012 128.069 89.1666 127.134 89.1666 125.986V120.383C89.1666 120.153 89.3533 119.967 89.5833 119.967H160.417C160.647 119.967 160.833 120.153 160.833 120.383V125.986C160.833 127.134 159.899 128.069 158.75 128.069ZM90 120.8V125.986C90 126.675 90.5608 127.236 91.25 127.236H158.75C159.439 127.236 160 126.675 160 125.986V120.8H90Z" fill="#46505C"/>
<path d="M110.417 170.134H139.583C140.044 170.134 140.417 170.507 140.417 170.968V190.551C140.417 191.011 140.044 191.384 139.583 191.384H110.417C109.956 191.384 109.583 191.011 109.583 190.551V170.968C109.583 170.507 109.956 170.134 110.417 170.134Z" fill="#E6F3FF"/>
<path d="M139.583 191.593H110.417C109.842 191.593 109.375 191.126 109.375 190.551V170.968C109.375 170.393 109.842 169.926 110.417 169.926H139.583C140.158 169.926 140.625 170.393 140.625 170.968V190.551C140.625 191.126 140.158 191.593 139.583 191.593ZM110.417 170.343C110.072 170.343 109.792 170.623 109.792 170.968V190.551C109.792 190.896 110.072 191.176 110.417 191.176H139.583C139.928 191.176 140.208 190.896 140.208 190.551V170.968C140.208 170.623 139.928 170.343 139.583 170.343H110.417Z" fill="#626C84"/>
<path opacity="0.52" d="M125 61.2717C125.69 61.2717 126.25 60.7121 126.25 60.0217C126.25 59.3314 125.69 58.7717 125 58.7717C124.31 58.7717 123.75 59.3314 123.75 60.0217C123.75 60.7121 124.31 61.2717 125 61.2717Z" fill="white"/>
<path d="M125 61.4799C124.196 61.4799 123.542 60.8257 123.542 60.0216C123.542 59.2174 124.196 58.5632 125 58.5632C125.804 58.5632 126.458 59.2174 126.458 60.0216C126.458 60.8257 125.804 61.4799 125 61.4799ZM125 58.9799C124.426 58.9799 123.958 59.4474 123.958 60.0216C123.958 60.5957 124.426 61.0632 125 61.0632C125.575 61.0632 126.042 60.5957 126.042 60.0216C126.042 59.4474 125.575 58.9799 125 58.9799Z" fill="#46505C"/>
<path d="M145.983 68.8037H150.983C151.213 68.8037 151.4 68.9904 151.4 69.2204C151.4 69.4504 151.213 69.637 150.983 69.637H145.983C145.753 69.637 145.567 69.4504 145.567 69.2204C145.567 68.9904 145.753 68.8037 145.983 68.8037Z" fill="white"/>
<path d="M156.806 68.8037H161.806C162.036 68.8037 162.222 68.9904 162.222 69.2204C162.222 69.4504 162.036 69.637 161.806 69.637H156.806C156.576 69.637 156.389 69.4504 156.389 69.2204C156.389 68.9904 156.576 68.8037 156.806 68.8037Z" fill="white"/>
<path d="M135.161 68.8037H140.161C140.391 68.8037 140.578 68.9904 140.578 69.2204C140.578 69.4504 140.391 69.637 140.161 69.637H135.161C134.931 69.637 134.745 69.4504 134.745 69.2204C134.745 68.9904 134.931 68.8037 135.161 68.8037Z" fill="white"/>
<path d="M86.3471 71.4527C87.4602 71.4527 88.3625 70.5504 88.3625 69.4373C88.3625 68.3242 87.4602 67.4219 86.3471 67.4219C85.234 67.4219 84.3317 68.3242 84.3317 69.4373C84.3317 70.5504 85.234 71.4527 86.3471 71.4527Z" fill="white"/>
<g opacity="0.72">
<path opacity="0.72" d="M146.066 91.5044H103.885V93.0231H146.066V91.5044Z" fill="white"/>
<path opacity="0.72" d="M140.732 86.4636H109.22V88.0045H140.732V86.4636Z" fill="white"/>
</g>
<path d="M132.252 108.086H120.247C118.873 108.086 117.755 106.968 117.755 105.594C117.755 104.22 118.873 103.102 120.247 103.102H132.252C133.626 103.102 134.744 104.22 134.744 105.594C134.744 106.968 133.626 108.086 132.252 108.086ZM120.248 103.519C119.103 103.519 118.172 104.45 118.172 105.594C118.172 106.739 119.103 107.67 120.248 107.67H132.252C133.397 107.67 134.327 106.738 134.327 105.594C134.327 104.45 133.397 103.519 132.252 103.519H120.248Z" fill="white"/>
</svg>
