<svg width="56" height="56" viewBox="0 0 56 56" fill="none" xmlns="http://www.w3.org/2000/svg">
<path d="M8.39159 9.78879C8.39159 9.41749 8.53909 9.0614 8.80164 8.79884C9.0642 8.53629 9.42029 8.38879 9.79159 8.38879H11.018C13.0536 8.38879 14.224 9.71319 14.9016 11.0348C15.3636 11.9392 15.6968 13.0424 15.974 14H44.8C45.2327 14.0001 45.6594 14.1005 46.0467 14.2933C46.434 14.486 46.7714 14.7659 47.0324 15.111C47.2934 15.4561 47.4708 15.857 47.5509 16.2821C47.6309 16.7073 47.6113 17.1453 47.4936 17.5616L43.3048 32.3316C42.9716 33.5034 42.2654 34.5346 41.2932 35.2688C40.321 36.003 39.1359 36.4002 37.9176 36.4H23.6964C22.468 36.4004 21.2735 35.9969 20.297 35.2516C19.3204 34.5063 18.6161 33.4606 18.2924 32.2756L16.4948 25.6816C16.4845 25.6521 16.4752 25.6222 16.4668 25.592L13.58 15.8004L13.3 14.8568C13.02 13.888 12.7736 13.0312 12.404 12.3116C11.9588 11.4436 11.55 11.1916 11.0152 11.1916H9.78879C9.41749 11.1916 9.0614 11.0441 8.79884 10.7815C8.53629 10.519 8.38879 10.1629 8.38879 9.79159L8.39159 9.78879ZM19.166 24.836L20.9944 31.5448C21.1565 32.1371 21.5088 32.6596 21.997 33.032C22.4853 33.4043 23.0824 33.6059 23.6964 33.6056H37.9204C38.5292 33.605 39.1213 33.4059 39.6068 33.0386C40.0924 32.6713 40.445 32.1557 40.6112 31.57L44.8 16.8H16.8L19.166 24.8332V24.836Z" fill="#AA26DA"/>
<path d="M28 43.4C28 44.5139 27.5575 45.5822 26.7698 46.3698C25.9822 47.1575 24.9139 47.6 23.8 47.6C22.6861 47.6 21.6178 47.1575 20.8301 46.3698C20.0425 45.5822 19.6 44.5139 19.6 43.4C19.6 42.2861 20.0425 41.2178 20.8301 40.4301C21.6178 39.6425 22.6861 39.2 23.8 39.2C24.9139 39.2 25.9822 39.6425 26.7698 40.4301C27.5575 41.2178 28 42.2861 28 43.4ZM25.2 43.4C25.2 43.0287 25.0525 42.6726 24.7899 42.41C24.5274 42.1475 24.1713 42 23.8 42C23.4287 42 23.0726 42.1475 22.81 42.41C22.5475 42.6726 22.4 43.0287 22.4 43.4C22.4 43.7713 22.5475 44.1274 22.81 44.3899C23.0726 44.6525 23.4287 44.8 23.8 44.8C24.1713 44.8 24.5274 44.6525 24.7899 44.3899C25.0525 44.1274 25.2 43.7713 25.2 43.4Z" fill="#AA26DA"/>
<path d="M42 43.4C42 44.5139 41.5575 45.5822 40.7698 46.3698C39.9822 47.1575 38.9139 47.6 37.8 47.6C36.6861 47.6 35.6178 47.1575 34.8301 46.3698C34.0425 45.5822 33.6 44.5139 33.6 43.4C33.6 42.2861 34.0425 41.2178 34.8301 40.4301C35.6178 39.6425 36.6861 39.2 37.8 39.2C38.9139 39.2 39.9822 39.6425 40.7698 40.4301C41.5575 41.2178 42 42.2861 42 43.4ZM39.2 43.4C39.2 43.0287 39.0525 42.6726 38.7899 42.41C38.5274 42.1475 38.1713 42 37.8 42C37.4287 42 37.0726 42.1475 36.81 42.41C36.5475 42.6726 36.4 43.0287 36.4 43.4C36.4 43.7713 36.5475 44.1274 36.81 44.3899C37.0726 44.6525 37.4287 44.8 37.8 44.8C38.1713 44.8 38.5274 44.6525 38.7899 44.3899C39.0525 44.1274 39.2 43.7713 39.2 43.4Z" fill="#AA26DA"/>
</svg>
