<svg width="201" height="243" viewBox="0 0 201 243" fill="none" xmlns="http://www.w3.org/2000/svg">
<g filter="url(#filter0_d)">
<path d="M55.4155 125.012V183.025C55.4155 184.622 56.7096 185.961 58.3489 185.961H92.1685C93.7646 185.961 95.1018 184.666 95.1018 183.025V125.012H55.4155Z" fill="#2D2927"/>
<path d="M95.1018 109.948H55.4155V51.9352C55.4155 50.3381 56.7096 49 58.3489 49H92.1685C93.7646 49 95.1018 50.2949 95.1018 51.9352V109.948Z" fill="#2D2927"/>
<path d="M74.6117 125.012V185.961H92.1686C93.7647 185.961 95.1019 184.666 95.1019 183.025V125.012H74.6117Z" fill="#4B4542"/>
<path d="M95.1019 109.948H74.6117V49H92.1686C93.7647 49 95.1019 50.2949 95.1019 51.9352V109.948Z" fill="#4B4542"/>
<path d="M90.3999 125.012H86.6901V185.961H90.3999V125.012Z" fill="#615C5B"/>
<path d="M90.3999 49H86.6901V109.948H90.3999V49Z" fill="#615C5B"/>
<path d="M96.2235 108.567H54.2941C53.6039 108.567 53 109.128 53 109.862V123.761C53 124.451 53.5608 125.056 54.2941 125.056H96.2235C96.9137 125.056 97.5176 124.495 97.5176 123.761V109.862C97.4745 109.128 96.9137 108.567 96.2235 108.567Z" fill="#E6A250"/>
<path d="M96.2235 108.567H74.7843V125.013H96.2235C96.9137 125.013 97.5176 124.451 97.5176 123.718V109.819C97.4745 109.128 96.9137 108.567 96.2235 108.567Z" fill="#E4B371"/>
<path d="M138.8 71.0139C131.38 61.086 120.294 53.8344 114.384 50.3813C112.573 49.3022 110.286 50.6403 110.286 52.7553V82.1503H140.439V75.9778C140.439 74.208 139.879 72.4383 138.8 71.0139Z" fill="#EE2449"/>
<path d="M113.565 50.0791V82.1502H117.059V52.0215C116.067 51.4172 115.161 50.8561 114.384 50.3813C114.125 50.2518 113.867 50.1654 113.565 50.0791Z" fill="#F05373"/>
<path d="M105.498 125.012V183.025C105.498 184.622 106.792 185.96 108.431 185.96H142.251C143.847 185.96 145.184 184.665 145.184 183.025V125.012H105.498Z" fill="#2D2927"/>
<path d="M142.078 79.0854H108.647V109.948H142.078V79.0854Z" fill="#E6A250"/>
<path d="M119.216 79.0854H112.745V108.783H119.216V79.0854Z" fill="#DD913D"/>
<path d="M124.694 125.012V185.96H142.251C143.847 185.96 145.184 184.665 145.184 183.025V125.012H124.694Z" fill="#4B4542"/>
<path d="M142.078 79.0854H124.824V109.948H142.078V79.0854Z" fill="#E4B371"/>
<path d="M140.526 125.012H136.816V185.96H140.526V125.012Z" fill="#615C5B"/>
<path d="M138.153 79.0854H135.004V109.948H138.153V79.0854Z" fill="#EEC088"/>
<path d="M146.349 108.567H104.42C103.729 108.567 103.125 109.128 103.125 109.862V123.761C103.125 124.451 103.686 125.055 104.42 125.055H146.349C147.039 125.055 147.643 124.494 147.643 123.761V109.862C147.6 109.128 147.039 108.567 146.349 108.567Z" fill="#E6A250"/>
<path d="M146.349 108.567H124.91V125.012H146.349C147.039 125.012 147.643 124.451 147.643 123.717V109.818C147.6 109.128 147.039 108.567 146.349 108.567Z" fill="#E4B371"/>
</g>
<defs>
<filter id="filter0_d" x="0" y="0" width="200.643" height="242.961" filterUnits="userSpaceOnUse" color-interpolation-filters="sRGB">
<feFlood flood-opacity="0" result="BackgroundImageFix"/>
<feColorMatrix in="SourceAlpha" type="matrix" values="0 0 0 0 0 0 0 0 0 0 0 0 0 0 0 0 0 0 127 0"/>
<feOffset dy="4"/>
<feGaussianBlur stdDeviation="26.5"/>
<feColorMatrix type="matrix" values="0 0 0 0 0.176471 0 0 0 0 0.160784 0 0 0 0 0.152941 0 0 0 0.19 0"/>
<feBlend mode="normal" in2="BackgroundImageFix" result="effect1_dropShadow"/>
<feBlend mode="normal" in="SourceGraphic" in2="effect1_dropShadow" result="shape"/>
</filter>
</defs>
</svg>
